<svg width="28" height="29" fill="none" xmlns="http://www.w3.org/2000/svg"><path d="M20.124 28.5a7.8 7.8 0 01-2.677-.478 28.538 28.538 0 01-10.363-6.606A28.537 28.537 0 01.478 11.053a7.744 7.744 0 01-.395-3.807 7.928 7.928 0 011.349-3.38 7.96 7.96 0 012.733-2.433A7.797 7.797 0 017.898.5c.412 0 .769.288.855.692L10.127 7.6a.875.875 0 01-.237.802l-2.347 2.346a23.032 23.032 0 0010.208 10.208l2.346-2.347a.875.875 0 01.802-.237l6.41 1.373a.875.875 0 01.691.856 7.797 7.797 0 01-.933 3.733 7.96 7.96 0 01-2.433 2.733 7.926 7.926 0 01-3.38 1.349 7.79 7.79 0 01-1.13.083zM7.199 2.288A6.06 6.06 0 002.865 4.87a6.028 6.028 0 00-.742 5.585 26.54 26.54 0 0015.922 15.922 6.028 6.028 0 005.585-.742 6.06 6.06 0 002.582-4.334l-5.214-1.117-2.45 2.45a.875.875 0 01-.991.174A24.775 24.775 0 015.692 10.944a.875.875 0 01.173-.991l2.451-2.451-1.117-5.214z" fill="#22A3DA"/></svg>