<svg width="28" height="28" fill="none" xmlns="http://www.w3.org/2000/svg"><path d="M14.01 28a2.55 2.55 0 01-1.547-.515A24.01 24.01 0 013.24 13.36a.822.822 0 01-.017-.115 11.137 11.137 0 01-.228-2.242C2.995 4.936 7.932 0 14 0c6.068 0 11.006 4.936 11.006 11.004 0 .806-.087 1.604-.258 2.374a.774.774 0 01-.017.11 24.055 24.055 0 01-9.027 13.875l-.34.249a.796.796 0 01-.076.05A2.58 2.58 0 0114.01 28zM4.87 13.105a22.372 22.372 0 008.577 13.058c.29.22.677.248.989.087l.284-.209A22.4 22.4 0 0023.1 13.23a.804.804 0 01.018-.113c.159-.682.24-1.394.24-2.113 0-5.16-4.198-9.357-9.359-9.357-5.16 0-9.357 4.198-9.357 9.357 0 .675.072 1.349.214 2.002a.846.846 0 01.015.099z" fill="#22A3DA"/><path d="M14 15.712a4.714 4.714 0 01-4.71-4.708A4.715 4.715 0 0114 6.294a4.715 4.715 0 014.71 4.71A4.715 4.715 0 0114 15.712zm0-7.771a3.066 3.066 0 00-3.063 3.063A3.065 3.065 0 0014 14.064a3.066 3.066 0 003.064-3.06A3.066 3.066 0 0014 7.941z" fill="#22A3DA"/></svg>