<svg width="135" height="115" fill="none" xmlns="http://www.w3.org/2000/svg"><path fill-rule="evenodd" clip-rule="evenodd" d="M76.007 99.368c1.102-.708 7.02-2.412 8.634-2.911 4.96-1.533 3.625-1.227 8.472.832 2.252.956 5.457 1.792 6.444 2.592-.33.382-6.677 2.062-7.665 2.599-1.113.605-2.869.775-4.01 1.372-1.453.759-2.178.745-2.813.446 1.727-.844 9.418-3.502 11.35-4.36 1.277-.569.682-1.04-1.044-.334-.956.39-1.798.644-2.79 1.097-1.804.823-4.394.867-6.19 2.007-2.213.732-1.686 1.452-4.842-.259-3.286-1.782-4.067-1.874-5.546-3.081zM40.83 29.98c.585-.749 3.38-3.535 2.428-4.212-.394-.327-1.919 3.147-2.428 4.212zm.533 7.412c.808-.006 2.383-.149 2.595-.282.293-.185.472-.498.512-.892.143-1.419.1-2.886.253-4.304.136-1.248 1.533-8.24-1.521-3.96a99.531 99.531 0 01-3.994 5.198c-.73.887-3.426 4.018-3.583 4.853-.029.15.175.301.231.418 1.653-.431 2.465-.729 3.88-1.347l-.902-.145 4.011-5.883-.123 5.517-1.359.827zm31.2 57.377c.196.005 1.02.978 1.151 1.258.327.698.294 1.462.175 2.227-.586.023-1.353-.4-1.381-1.008-.027-.573-.098-1.992.055-2.477zm-2.277-.32l-.067-1.104c.36-.138.808-.333 1.16-.308l.028 1.077c-.36.224-.687.31-1.12.336zm23.33-1.077c2.773-.952 4.03-1.197 5.164-.957 1.03.218 8.485 2.861 8.876 3.288-1.471.335-4.766 1.809-6.163 1.205-2.433-1.053-7.322-2.95-7.876-3.536zm7.675-5.114c.3 1.549-1.388 1.959-2.29 2.293-1.076.397-2.196.867-3.267 1.232-2.23.758-4.736 1.414-6.87 2.147-1.472.506-13.058 4.594-13.572 4.228-.179-.668.008-1.155.539-1.414 1.516-.74 4.264-1.653 4.739-1.805 2.147-.686 4.717-1.632 6.821-2.194 1.97-.527 12.666-5.07 13.9-4.487zm-28.628.317c-.31-.648.2-1.396.906-1.592.67-.186 1.565-.585 2.22-.448l.306 1.125c-.454.238-3.032.97-3.432.915zm27.868-1.29c-1.004.945-11.735 3.74-13.872 4.548-2.713 1.028-7.813 2.675-10.685 3.449-1.182.318-2.94-.869-2.13-1.323 1.706-.956 11.545-3.942 14.1-4.76 2.437-.78 4.579-1.542 6.967-2.432 1.15-.43 2.319-.842 3.48-1.273 1.47-.547 2.417 1.53 2.14 1.79zm-32.96-1.77c.46.047 1.889.71 2.403.934.814.355 1.485 1.086 1.197 2.063-.323-.201-1.803-.86-2.24-1.025-1.528-.577-1.285-.242-1.36-1.973zm8.828 2.07l.177-1.329 3.165-.921.326 1.109c-.372.288-3.157 1.137-3.668 1.14zm-12.777-3.75c.519.08 1.623.587 2.163.831 1.14.516 1.273.487 1.118 1.935-.309-.06-1.726-.702-2.081-.874-1.41-.682-1.187-.067-1.2-1.892zm-6.671 2.962c.55 1.646 12.698 4.574 12.505 7.44l-21.522-9.731c.013-.675-.07-.848.16-1.219l7.997 3.084c-.247-.514-4.426-2.318-5.31-2.767-1.165-.591-2.273-.59-.881-1.644.728-.552 2.057.307 2.948.653 3.557 1.378 7.902 3.343 11.37 4.988 1.154.546 2.25.948 3.358 1.386.596.236 3.182 1.247 3.564 1.544.398.309.016 1.42.016 1.42-.859.652-1.907-.026-2.782-.39-1.413-.586-10.808-5.187-11.423-4.764zm42.495-2.35l.025.116-26.967 8.238.002-1.968 23.87-7.414 1.558-.657c-.034-.472-.177-.416-.118-.705.57-.452 1.12.051 1.672.396l-.042 1.994zm-32.536-3.41c.558-.015 3.333 1.407 3.984 1.742l.044 1.048c-.609-.152-1.815-.716-2.44-.984-1.474-.63-1.548-.156-1.588-1.806zm.335-.942c.364-.203 1.127-.304 1.535-.415.794-.216.815.004 1.538.276.604.227 2.673.97 3.068 1.248-.543.256-1.192.286-1.683.45-.607.203-1.002-.1-1.6-.3-.6-.198-2.483-.892-2.858-1.26zm-15.168.063c.91-1.573 4.518.595 5.789 1.166 1.393.625 5.133 1.408 5.318 3.052.126 1.113-1.63-.07-2.389-.4-.976-.426-1.973-.845-2.955-1.261-1.55-.656-4.462-1.722-5.763-2.557zm26.359 3.084l-.506.053c-.034.2 1.23 1.013 1.473 1.176-.266.163-2.926.941-3.244.974-.91.096-1.926-1.046-2.383-.606l1.282.882c-1.082.424-2.7 1.022-3.693.615-.748-.306-2.725-.994-3.269-1.394.776-1.234 2.157.488 4.325-.272.995-.349 3.415-1.084 4.453-1.272.184-.102.752-.28 1.043-.318 2.356-.321 7.164-2.008 9.738-2.743 1.243-.357 3.949-1.305 5.939-1.774.67-.158 1.258-.262 1.683-.271.874-.017 1.33.372 1.99.773l-1.29.492.08.288 2.24-.41.03 1.678L80.42 86.46l.3-1.361 2.631-.867.472.764.366-.975 10.444-3.668c-.446-.276-3.767.85-4.533 1.025-.796.182-1.535.469-2.324.656-1.368.323-1.852-.988-2.295-.234l.947.551c-.772.465-3.188.879-4.26 1.29-2.032 1.018-2.672-.161-3.732-.4zm15.159-7.574l-9.535 2.628.28.683 10.444-2.869c.13.2.07 1.178.045 1.47l-22.994 6.451c-.184-.374-.12-.927-.138-1.345l2.624-.76.194 1.121.277.002.162-1.306 3.294-.958.39 1.106.07-1.184 2.79-.937.275 1.132.235-.023c.058-2.124.372-1.613-1.092-2.105-.166.107-.035.302-.581.542-.454.201-1.368.439-1.876.566-.279.07-.554.089-.937-.022-.943-.274-2.873-.833-3.664-1.277l1.684-.573c-.402-.24-1.646.163-2.135.245-.62.105-1.394-.349-2.029-.594-.564-.219-3.481-1.414-3.856-1.45l9.435 3.947c-.404.276-2.464.821-2.675.763-.519-.142-3.043-.98-3.653-1.553l1.636-.619c-.532-.5-1.738.683-3.567-.103-.713-.308-2.536-1.029-3.113-1.349 1.496-.805.142.17-.996-.289-.841-.34-4.342-2.045-4.67-1.816l4.36 2.106-.66.39c.264.437.712-.177 1.44-.02.2.042 1.048.375 1.301.462.542.186 1.88.802 2.356 1.15-.29.035-1.682.592-2.23.502-2.246-.369-4.816-2.19-5.158-1.478l4.993 2.385.092 1.255-9.21-3.685-.254.6 11.496 5.169c-1.4 1.129-2.796-.238-4.133-.616l.537-.393c-.269-.395-1.224.099-3.158-.714-1.735-.729-7.509-3-8.367-3.554l-.177-1.343 2.13.555.14-.358-2.213-1.104-.073-1.55 6.903 2.858.124-.287c-1.22-1.228-4.151-1.868-5.82-2.723-1.819-.933-1.177-1.116-1.245-3.01-.072-2.052-.544-2.857 1.497-3.408 3.025-.815 7.846-1.279 10.655-2.116.995-.296 2.305-.287 3.187.019 4.26 1.474 8.354 3.327 12.64 4.75 3.615 1.2 8.93 3.528 12.523 4.634zm-39.993-9.922c.414.025 1.164.362 1.597.498.282.09.535.193.798.278l.632.215c.138.086.07.035.2.175-1.465.167-1.273-.108-2.703-.577-.498-.162-.618-.035-.524-.59zm-37.376-1.973l9.175 3.978c.28 2.33-.078 6.468-.346 8.839-.41 3.606-2.034 3.679-4.024.918-1.57-2.178-4.742-11.152-4.805-13.735zm44.729-.3c.235-.217.298-.355.55-.203l3.754 1.237c-1.355.432-6.22 1.57-7.006 1.549-.603-.017-1.692-.612-2.372-.836-1.264-.417-2.103-.565-1.89-1.496.82.332 4.845 2.464 5.168 1.202l-5.745-2.137c0-.392-.104-1.702.07-1.968l7.47 2.652zM26.54 59.668l12.126 5.103c.116.304-.094 6.328-.113 7.174-.92-.117-7.36-2.981-8.56-3.567-1.94-.947-3.29-.552-3.248-2.765.04-1.96-.206-3.983-.205-5.945zm27.08-1.033c1.034-.027 4.579 1.587 5.785 2.028.97.353 2.069.649 3.064.968 1.812.58 1.331.535 2.593 1.411.266.185 7.387 2.255 8.878 2.88 1.3.547 2.233.285 2.098 1.767-2.099-.259-14.11-4.772-17.622-6.02-.963-.343-1.927-.69-2.892-1.025-1.42-.493-2.001-.341-1.904-2.009zm26.83-.26l-.013-1.322 2.95-.957-.203 14.51-2.743-.787c-.288-1.276-.017-7.545-.023-9.297-.005-1.332 1.216-1.867 1.917-2.792 1.52-2.006-1.884.646-1.885.646zm-1.032 10.49l-.001.477c-.224.065-.037.11-.419.034-.237-.048-.227-.08-.36-.163-1.347-.423-.604-7.758-.646-9.268-.039-1.37-.064-9.309.153-10.102l1.326-.333-.053 19.354zm-64.54-14.251l10.3 4.392.271 7.375c-1.32-.25-6.363-2.61-7.914-3.27-2.191-.934-1.841-.787-2.223-3.339-.185-1.233-.63-4.045-.434-5.158zm61.159 8.28L55.184 56.53c.373.357 4.63 1.66 5.461 1.943.928.317 1.865.638 2.802.922 1.816.55.623 1.155 2.105 1.608 1.888.578 3.782 1.152 5.653 1.791 1.358.463 4.919.927 4.974 2.523-1.615-.032-9.451-3.284-12.413-3.973-1.647-.384-4.536-1.624-6.346-2.199-6.62-2.109-2.582-2.788-3.932-3.733-1.645-1.152-.608-1.535 1.018-.959 1.016.36 2.129.765 3.131 1.156a204.6 204.6 0 006.213 2.3c1.734.614 9.38 2.564 11.919 3.817.388.191.137 1.043.269 1.168zm-.146-2.042l-20.148-7.185c.067-.043 2.12-.349 2.373-.38.906-.117 4.472 1.42 5.52 1.811.848.318.508.707 2.448 1.275 1.8.527 3.702 1.25 5.508 1.834.892.289 1.794.632 2.691.933 1.723.581 1.501.022 1.608 1.712zm-15.61-8.057c3.323-.98 5.077.653 8.321 1.654.936.29 6.99 2.188 7.298 2.498l.035 1.131c-1.646-.084-6.06-1.798-8.025-2.45-.572-.19-1.558-.453-2.066-.68-1.055-.467-.277-1.212-1.32-.685-.498.252-3.628-1.114-4.244-1.468zm4.625-.523c1.034-.62 2.087-.021 3.123.216 1.364.31 4.474 1.42 6.03 1.897.663.202 2.371.558 1.82 1.5-.527.058-10.837-3.41-10.973-3.612zm4.224-1.096c1.117-.62 4.055.551 5.547 1.068.704.245 1.22.202 1.137 1.031-.328.085-6.507-1.864-6.684-2.1zm-55.554 2.797l.736 7.76-4.461-1.76-.1.248c.333 1.063 2.86 1.836 3.91 2.28 1.614.684 1.51 2.378 1.978 4.078.751 2.732 3.253 10.857 5.607 12.663 1.232.944 3.08 1.78 3.912-.136 2.366-5.451 1.044-9.095 1.773-10.693l11.571 5.44.806-.224-.025 18.392L2.718 75.882l.169-18.028 6.515 2.483.1-.252c-.47-1.033-4.934-2.405-6.146-2.947-2.234-1.001-1.91-.288-1.978-2.504-.205-6.726-.305-5.706 2.691-4.65 1.01.356 2.206.866 3.168 1.334 1.786.87 4.46 1.97 6.34 2.656zm37.502 9.296l.235.076-.02.486.119 14.001-4.095-1.817-.112.25c-.545.948 2.2 1.827 2.911 2.042l-.345.774c.22.162 1.297.234 1.633.28-.573 1.552-4.757 2.66-4.685 4.555.057 1.502.064 3.04.014 4.548-.095.815.12 1.265.536 1.53.479.306 1.205.384 1.697.77l-7.751 1.785-.16-13.976 7.022.28.032-.462-3.594-.787 2.09-.742-.095-.444-5.403.17-.296-13.793 4.98.474c.122.336.441 5.374.5 6.163l.564-.01.312-5.882 3.444.148.136-.414-6.18-1.238 1.409-1.27-.162-.32-5.112.728-.045-14.06 5.112.603c.144 1.36.181 10.284 1.411 10.255l-.202-9.944 3.362.105.041-.461-6.723-1.439 3.323-.558 4.088 1.67.283 15.095-4.579-2.013c-.63 1.272 2.952 2.043 4.305 2.842zm-10.458-17.6c.056-1.532-.242-2.283.356-2.65.002-.002 4.657-.786 4.708-.777.532.08.657.675.457 2.5l-5.521.927zm-1.31-2.884l.074 20.33-12.736-5.285-.5-5.998-.772-.762-.185-5.29.4-.054.69 2.442c.061-1.39.298-2.212.123-2.78-.12-.39-.437-.654-.833-.815-.44-.176-.765-.235-1.017-.167-.368.098-.642.453-.749 1.123-.152.972-.003 4.085.08 5.311.122 1.809.947.87.977 2.758.019 1.218.173 2.414.172 3.633-2.518-.974-8.271-3.311-10.456-4.036.153-1.71-.006-2.996.146-4.706.105-1.177.946-.844 1.741-.66l.083-1.636c-3.439-1.301-2.77 5.04-3.035 6.462L3.596 49c-.56-.207-.865-.727-.874-1.603-.048-4.647.05-11.75-.26-15.938-.148-2.01-.833-3.445 1.668-2.32 1.164.524 2.775.996 4.02 1.447 3.367 1.22 30.33 11.347 31.161 12.199zm47.67-24.706c.541.038 1.311.081 1.755.364-.298.17-1.325.354-1.684.339l-.07-.703zm-45.574 3.922c-2.14.362-4.849.48-6.777.887-2.367.5-4.589.947-7.01 1.171-.824.076-16.099 2.436-7.828-.572a310.259 310.259 0 0011.303-4.385c3.01-1.232 8.336-3.579 11.277-4.347-.403.989-1.353 3.802-.965 7.246zM55.81 52.284c-.377-7.577-.073-25.693-.445-38.073.055-7.31-1.665-6.178 5.496-7.316 7.536-1.199 15.822-1.741 23.2-3.16 2.594-.5 1.676 2.499 1.664 4.566-.012 2.137.123 4.285.067 6.432-.138 5.4.413 3.89-1.71 4.252l-4.43.603c-.787-.041-.462-.514-1.196-.197-1.061 2.397 1.576 2.068 2.775 1.904 1.306-.179 3.283-.608 4.556-.584.16 4.598-.01 9.26.105 13.85.057 2.292.014 4.631.017 6.932 0 1.31-.242 2.171-.86 3.242-.078.184-.152 1.993-.075 2.16.118.255.483.406.8.448l-3.475.841.027.324 1.048.434c-.002.767.07 6.16-.073 6.434l-2.805.5c-.105-.252.116-5.898.136-6.66l1.082-.392c-.08-.375-.974-.551-2.222-.353-6.426 1.02-16.967 2.727-23.682 3.813zM36.913 23.617c2.088-.31 4.414-.489 4.555-.382.473 1.933-6.44 11.501-5.65 12.819.826-.142 6.357-10.017 6.968-11.443-.019-.195-1.692-11.034 3.168-12.08.554-.12 1.234.093 1.702.368l.003-7.025c.623-.021 5.618 1.432 6.302 1.376l.022 44.392-.886-.43c-.124-1.492.396-3.656-.952-4.54-.854-.56-3.857-1.277-4.443-1.78-.303-.794.295-7.69.287-9.136-.007-.998-.266-4.716-.052-5.039 1.05-.266 1.954-1.095 2.353-1.656 3.55-4.997 1.13-16.804-1.568-15.328-.001.012.575.846.99 1.78.694 1.568 1.023 3.967 1.088 5.644.07 1.766-.08 3.583-.527 5.018-.548 1.756-1.7 3.54-2.635 3.245-.642-.403 1.251-2.716 1.617-3.638.475-1.2.786-3.69.53-4.956l-1.18-.321-.237-1.476 1.23-.518c.16-.95-1.354-3.797-2.364-3.87l-.53 2.128-1.208.06-.906-2.066-.24.105c-1.124.495-2.329 7.124-.084 8.79.154-1.258-.3-5.632 1.649-6.012 1.307.336 1.632 2.984 1.53 4.091-.325 3.504-2.075 2.956-2.236 3.336l1.158.415c.09.94-.974 7.856-1.165 9.352-.046.358-.263 2.095-.455 3.224.543.265.602.39.953.424.12-.877.585-3.614.638-4.304l.088 5.98c-1.86.563-3.553.674-5.474 1.018-1.442.26-3.863-.943-5.27-1.49-3.379-1.314-6.93-2.444-10.257-3.852-6.587-2.787-14.09-4.803-20.513-7.757l.08-.368 5.755 1.57 1.584-.225c.224-.458.365-1.013.477-1.874l3.565-.558.038.955-1.098.011-.07.351 1.628.477 1.428-.225.042-1.99 18.572-2.59zM51.133 5.29c1.601-.588 11.064-1.28 13.97-1.744 1.37-.22 2.318.258 3.44 1.322L55.65 6.422 51.133 5.29zm19.023-.671c-.739-1.187-.803-1.603-.44-1.755.297-.125 6.75-.847 7.642-.975.293-.029 5.473.913 5.525 1.03l-12.727 1.7zm-57.28 20.177l-.28-1.373c-.514-.321-3.87 2.197-4.64 2.623-1.379.765-6.13 1.533-6.42 1.537l.285 20.373c-.488.02-1.39-.065-1.779.187l.107 8.482 1.492.67c.309 2.932-.39 17.284.218 19.467.307 1.102 1.856 1.038 5.7 2.727 6.485 2.847 12.73 6.047 19.107 9.135 3.142 1.521 6.596 2.986 9.744 4.497 1.086.522 3.534 2.139 4.58 1.894 1.811-.424 3.655-1.114 5.573-1.545 2.27-.51 3.16-1.57 5.224-.218 1.202.787 1.38.568 2.487.375.768-.133 1.734.588 2.465.934 1.187.56 7.47 3.146 7.722 3.7l.046 1.147c.335.447 2.401 1.538 2.9 1.33.663-.277 1.258-.256 1.834-.076 1.169.364 9.75 4.546 9.73 4.758l-.025.697c-.004.146.027.186.151.246l1.676.807.701.337c.688.332 1.164-.391 1.427-.375.293.019.625.28 1.681.847.956.513 10.297 4.41 11.269 4.898 1.151.579 3.274 1.326 3.852 1.611-3.015-2.275-25.5-12.29-31.939-15.77-2.54-1.374-3.385-1.527-5.93-2.789-2.478-1.228-4.926-2.528-7.392-3.764-.687-.344-2.005-.937-3.242-1.549a395.66 395.66 0 01-2.892-1.501c-.394-.397-.416-.994-.108-1.618l46.68 22.229 6.624 2.86c-.977-.537-13.76-6.815-14.059-7.257l13.461-4.85 21 8.879.172-.412-31.554-14.437c.097-1.262 4.505.46 7.888 1.962 2.6 1.154 3.916 1.757 6.306 2.81 6.866 3.02 15.355 7.445 22.247 9.439l-21.886-10.037 2.445-.893c-.946-.518-2.53 1.15-4.225.052l5.248-1.876 1.282.398-2.107.79.763.214c.195.055.803-.25 1.596-.496.628-.196 3.19.981 3.857 1.249 1.651.664 4.627 1.845 6.143 2.613 3.181 1.614 8.004 3.181 11.434 4.339l-1.486-.755-30.472-12.89c.096-.212 1.879-.645 2.046-.637 1.163.06 30.357 12.413 33.355 13.381.021-.485-25.423-11.059-30.148-13.164-.96-.427-1.842-.525-2.252-1.183-.506-.812-.016-1.71-.185-2.17-.238-.644-.941-.854-1.662-1.846-.753-1.039.06-3.015-.473-3.545-.483-.482-.758-.411-1.168-1.13-.091-.829-.03-1.622-.112-2.004l-3.229-1.36c-.276-.844 1.03-1.897-.958-2.733-3.551-1.495-6.804-2.58-10.355-3.914l-.031-18.93.086-3.67 2.737-.43c.114-.294.007-.418-.144-.959l6.046-1.061-.048-2.374c-.469-.242-.808-.333-1.32-.259l.362 1.593-5.543 1.027c-.063-.41-.16-.931.217-1.12 1.106-.554 3.95-.456 4.28-.976.013-.021-.206-.768-.217-1.072l-3.95-1.305c-.102-.304.095-19.043.107-21.12l5.862-1.054-.067-.362c-.06-1.907-4.385-2.16-5.834-2.548.154-2.35.018-5.026.049-7.426.014-1.06.055-2.914-.01-4.463-.047-1.157.21-1.877-.922-2.29-1.49-.543-4.636-.984-6.396-1.251-.946-.143-1.313-.326-2.267-.217-2.84.323-5.844.75-8.709 1.117a7.958 7.958 0 00-.485-.534c-2.432-2.425-3.391.618-3.842 1.11-.526.248-11.841 1.488-13.451 1.68-2.674.318-4.884-.722-4.736 2.297.325 6.607.637 4.132-1.428 5.502-3.146 2.086-6.842 3.43-10.446 4.622-3.401 1.124-7.154 2.787-10.562 4.186-1.439.59-10.173 4.123-10.878 3.96z" fill="#22A3DA"/></svg>