<svg width="89" height="105" fill="none" xmlns="http://www.w3.org/2000/svg"><path fill-rule="evenodd" clip-rule="evenodd" d="M44.648 74.398l-.047 3.766c-1.77-.27-13.113-6.09-16.254-7.707l-5.375-2.58c-7.028-3.3-14.133-7.459-21.113-10.64l-.113-11.046 6.231 3.257c.197 3.293-1.077 2.586 2.582 4.292 10.56 4.925 20.837 10.806 31.298 15.685.409.226.759.391 1.307.348.762-.059 1.045-.027 1.515-.505l-.031 5.13zM32.605 17.514c.18.457.644.615 1.265.715a4.69 4.69 0 00-.65.707c-.725-.178-1.455-1.007-.614-1.422zm11.983 62.224l-.352 22.337-5.328-2.89c-1.804-1.013-3.534-1.889-5.33-2.906-.892-.506-1.713-1.002-2.63-1.49L20.36 89c-.967-.491-1.744-.953-2.66-1.448-3.188-1.722-7.622-4.076-10.573-5.808-.885-.52-1.748-.985-2.64-1.48-.493-.275-.851-.586-1.289-.772-1.674-.82-1.301-.53-1.27-2.39l-.055-18.618c1.161.126 13.018 6.35 15.91 7.77 1.706.932 3.537 1.7 5.24 2.615 6.86 3.691 14.57 7.558 21.565 10.87zm-42.442.75l3.939 2.146c1.692.94 3.462 1.88 5.222 2.817 3.462 1.845 6.9 3.818 10.382 5.7l5.16 2.883c1.765.93 3.395 1.874 5.19 2.85l6.408 3.589c1.306.852 4.63 2.555 5.708 3.306.35.243.467.805 1.293.208.458-.329 9.64-3.822 10.875-4.296 10.722-4.115 21.413-8.287 32.018-12.667-.473-14.521.195-37.02-.074-45.743l-1.73-.665c.037-.125.443-.032.514-.68.051-.469.022-1.615.042-2.038-.326-.371-.802-.795-1.172-1.138-2.552-2.247-3.942-3.261-4.72-3.68-.492-.188-.79-.307-1.299-.473-1.111-.361-7.633-2.756-7.85-2.967l-.87-2.318c-.723-1.013-2.246-1.572-2.88-1.914-.95-.514-2.293-1.271-2.819-2.162-.602-1.02-.082-1.623.499-2.184.686-.663 4.162-1.336 5.329-.307.893.787.577 1.179.886 2.372.516-.145.584-.657.589-1.35.004-.737-.21-1.04-.559-1.418-1.48-1.602-4.46-1.144-6.304-.487-1.443.514-1.916.543-2.264 1.626-.538 1.68-.457 2.495.187 3.107 1.73 1.642 4.676 1.393 6.302 3.13.519.554.43.704.624 1.403-.569-.094-5.76-2.034-6.444-2.328-1.04-.447-2.066-.764-3.137-1.196-.952-.383-2.776-.947-3.487-1.308-.83.241-1.047.25-1.696.661-.22.14-.072.003-.306.19-.625.496-.414 2.031-.42 3.123-.704-.135-1.622-.455-1.764-1.142-.168-.815.114-3.72 1.837-3.793 1.45-.06 3.474-1.068 3.175-2.602-.078-.402-.347-.624-.552-.9-.575-.774-1.931-1.19-3.025-1.38-1.711-.298-2.796-1.009-2.205-1.522.266-.23.715-.212 1.285-.223-.05-1.643-3.552.202-2.573 1.82.317.523 1.153.88 1.98 1.153 1.7.563 3.285.27 3.412 1.237.21 1.607-2.12.967-3.05 1.665-1.006.753-1.453 3.318-1.392 4.544l-2.534-.895.201-4.695-1.64-5.985c-.12.127-2.169.678-2.448.703 1.438-1.537 2.791-3.436 2.067-5.584-.15-.447-.52-.983-.992-1.016.603 1.575.513 3.602-.518 4.995-.572.847-1.367 1.504-2.288 2.012-.559.308-1.962.666-2.708.768-.097-.098-.921-.937-.991-1.051.873-.365 1.818-1.127 2.527-1.689.275-.217.835-.814.942-1.093.157-.412.215-1.535.04-1.824-.31-2.504-3.143-2.962-2.634-5.839.243-1.376 1.968-2.621 2.723-3.689.172-.242.593-1.463-.229-1.508-.167.327-.042.58-.281 1.01-.438.79-1.118.891-2.027 2.17-.186.261-.887 1.445-.984 1.794-.19.69 0 1.842.247 2.383 1.197 2.607 2.027 2.048 2.192 3.436.177 1.484-2.236 2.896-3.165 3.125l-.075-5.206c-.093-.35.037-.093-.137-.262-.065-.596-.968-1.445-1.572-1.659-1.152-.408-4.329-.387-5.004.536-.632.987-.647 1.1-.681 1.933-.085 2.05.05 5.104.06 6.712-1.353.555-1.29 1.743-.61 2.104-.268.305-.33.71-.861 1.402-1.202.086-7.603 1.96-8.086 1.911-.067-.82-.569-1.386-1.423-1.534.01-1.367.158-5.451-.142-6.414-.196-.63-.311-1.29-.809-1.82-.96-1.024-4.522-1.156-5.7-.053-.258.24-.928 1.294-1.001 1.67.674.138.519-.22.896-.584.615.55 1.793.943 3.586.822.17.248.229.383.247.741-.997.163-1.495.247-2.524.045-.908-.178-1.61-.66-2.185-.918.036 1.245.024 5.018.064 6.506-1.344.66-.874 1.696-.579 2.175.04.065-.014.15-.044.23-.161.448-1.71 3.164-2.116 3.844-.252.422-.511.806-.765 1.265-.497.9-.147 2.377-.193 3.623-2.823.835-6.541 1.79-9.33 2.587-.231.066-.274.589-.266 1.08.192 13.37-.038 41.543.078 43.074.093 1.214.115 1.395 1.408 2.012zm84.882 5.442L56.346 97.924c-1.278.463-8.937 3.514-9.527 3.494-.14-.628-.189-9.681-.167-10.958.062-3.642-.183-7.246-.02-10.843.252-.208.496-.26.7-.346 1.523-.49 1.847-.824 3.29-1.328 3.156-1.102 35.869-13.516 36.508-13.442.165 1.572.016 20.765-.102 21.429zM9.046 46.714c.588.018 7.481 3.442 8.551 3.944l6.374 3.061 19.024 9.515-.04 5.58c-1.444-.764-24.66-12.14-27.445-13.514-2.063-1.07-4.313-2.017-6.35-3.087l-.114-5.498zM1.679 35.813c.634.065 3.045 1.598 3.929 2.045l6.746 3.37c2.05 1.022 6.238 3.195 8.08 3.992.52.225.805.436 1.304.658l22.348 11.215c.27.134.471.476.52.925.1.91.06 2.508.035 3.128-.63-.046-3.827-1.636-4.583-2.017-2.866-1.44-6.188-2.871-9.088-4.269l-20.426-9.68c-.305-.067-2.098.317-2.542.644l.035 1.76c-.158-.038-5.726-2.702-6.32-3.109l-.038-8.662zm44.952 41.733c.064-6.393-.253-13.146-.126-19.655.02-1.003.096-.885 1.313-1.246.78-.29 1.11-.293 1.768-.597.794-.368 1.61-.607 2.45-.9 3.433-1.195 6.55-2.404 10.04-3.558 4.141-1.37 24.203-8.745 25.197-8.61l.019 20.688L47.529 77.93c-.978.342-.907.531-.898-.385zm1.232-22.952c-2.793.97-2.112 1.029-3.774.33l-6.86-3.35c-2.348-1.159-4.651-2.208-6.89-3.324-2.342-1.168-4.533-2.2-6.863-3.351-3.2-1.543-18.763-8.357-20.558-9.942 1.512-.51 5.825-1.813 7.318-1.979.03.455-.02.872.03 1.349.062.588.18.649 1.049 1.063l4.748 2.322c-.017.625-.202 1.1-.131 1.423.042.192.252.369.581.521 3.22 1.493 7.154 3.578 10.392 5.117.544.259 1.129.611 1.55.804 3.47 1.585 6.097 2.946 9.357 4.495l6.117 3.105c.219.112.543.199.752.33.392.246.202.359.864.356.44-.002 4.726-1.575 5.28-1.759 1.23-.41 2.306-.814 3.453-1.186a394.94 394.94 0 006.929-2.338c.606-.21 1.102-.364 1.701-.572.574-.2 1.204-.33 1.797-.563.63-.247 1.07-.411 1.746-.62.303-.093 1.543-.472 1.683-.577 1.087-.233 5.364-1.663 6.45-2.14l4.695-1.616a6.08 6.08 0 00.865-.294c.803-.351.75-.46-.003-.739-.383-.141-.87-.296-1.26-.484l-5.87-2.395c-2.57-.996-5.161-2.108-7.755-3.176-2.64-1.086-5.12-2.052-7.737-3.176-2.017-.838-6.13-2.319-7.816-3.245l.121-1.358c.503-.001 1.31.47 1.833.689.317.132.638.21.941.338.575.24.384.423.74.823.161-.241-.077-.317.489-.284l13.517 5.28c2.976 1.154 2.267.593 2.637 1.834.164.548.352.75.951 1.094-.358-.984-.217-.968-.308-1.663.716.136 3.014 1.257 3.912 1.592 1.268.474 2.435.919 3.682 1.431l7.132 3.061c-1.952.811-4.323 1.465-6.417 2.24-2.154.8-4.305 1.49-6.53 2.251-2.228.762-4.323 1.466-6.473 2.192-6.008 2.11-12.06 4.004-18.067 6.091zm25.214-14.987c.709.245 3.007 1.155 3.535 1.527-.145.28-.469.508-.67.662-.778.593-1.057-.073-2.948-.715l.083-1.474zm13.255-.194c-.483.2-.926.454-1.308.605l-3.239-1.239c-.127-.955-.068-2.104-.063-3.072.006-1.165.494-.66 1.721.181l2.708 2.078c.335.344.307.83.18 1.447zm-14.935-7.3l.297-.89c.76.154 3.363 1.269 4.358 1.624.791.283 1.388.516 2.157.804.684.257 1.45.635 2.169.8l-.031 3.689c-.467-.054-.803-.177-1.125-.433.006-.018.03-2.498.03-2.513-1.596-.663-7.09-2.534-7.855-3.082zm-14.38-3.145l-1.156-.366c.097-.515.039-1.004.072-1.515.114-1.777-.13-2.086 2.039-1.17l5.455 2.127c2.405.92 4.864 1.935 7.311 2.746l-.159.961c-.756-.066-9.68-3.722-11.752-4.557-.725-.293-.86-.428-1.733-.566-.06.353-.061 1.9-.077 2.34zm-10.98-11.814l2.004-.475c.178.316 1.114 4.381 1.132 4.916-.774.193-6.84 1.888-7.115 2.074.577.222 2.743-.495 3.539-.698 1.18-.302 2.564-.722 3.703-.941l-.474 7.209c-.148.567-.334.486-.924.649-2.031.562-7.257 2.495-9.303 2.966-1.119-3.995-2.12-3.693-4.005-5.614-.827-.842-1.529-1.672-1.67-3.092-.148-1.476.528-3.104 1.133-3.767.503-.266 1.492-.504 2.342-.745l5.496-1.383c-.198.574-.871.886-.419 1.607.318.505.79.58 1.286.97-.192.377-.687.59-1.011.855-.982.804-2.323 1.825-2.254 3.32.068 1.462 1.37 1.839 1.835 3.703.132.531.145 1.03.517 1.213.885-1.41-1.276-3.66-1.422-3.943-.277-.536-.112-1.049.085-1.589.583-1.602 1.771-1.886 2.34-2.32 2.759-2.109-.7-1.998-.994-2.548-.056-.668.23-.696.703-.952 2.052-1.114.999-.749 3.476-1.415zm3.226 17.072l-.031 1.582-2.653.995c-.118-.56-.312-.906-.482-1.317.247-.213 2.887-1.256 3.166-1.26zm-.159 4.688l.017 2.651c-.837.045-1.434.477-2.048.584l-.02-2.442c.854-.19 1.39-.606 2.051-.793zm6.88-6.381l2.085.829c.306.169 1.209.442 1.343.603-.642.582-1.144.901-1.717.66-.613-.26-1.148-.453-1.727-.74.004-.138 0-1.333.015-1.352zm4.296 3.176c-.197-.32-.098-.522-.08-1.366.593.099 1.23.407 1.736.614.444.181 1.303.361 1.808.718-.412.15-.973.577-1.407.83-.323.009-1.893-.532-2.057-.796zm4.194 1.784l.007-1.401c.489.027 2.035.736 2.552.97.314.11.308.08.539.265-.191.357-.238.286-.591.517-.627.41-.805.45-.97.371-.51-.247-1.062-.453-1.537-.722zm4.06 1.774c-.19-.418-.103-1.01-.118-1.565.568.123 1.293.474 1.88.703.667.264 1.297.545 1.95.818-.455.1-1.15.853-1.314.897-.783-.053-1.677-.789-2.398-.853zm2.816 2.355c.575-.025 2.56.888 3.029 1.204-1.501 1.178-3.44-.37-4.297-.71.424-.162.928-.36 1.268-.494zm-2.016 1.404c.514-.084 1.06.278 1.166.464-1.634.54-.622 2.22-2.873 2.314.174-1.381.383-2.34 1.707-2.778zm-30.242 5.456c.943.202.686-1.124 4.428-.392.607.118.962.32 1.427.454.724-.395.994-.693 1.9-.965.738-.222 2.37-.125 2.678-.297-.1-.364-.456-.341-1.275-.367-.586-.017-1.055-.032-1.579.112-.724.2-.655.24-1.302-.051-.937-.42-3.394-.33-4.434.107-.606.255-1.789.815-1.843 1.399zM27.62 35.223c.002-.462-.726-.448-1.14-1.617-.225-.639-.142-1.828.233-2.294.862-1.069 2.113-.917 2.963-1.84.65-.707.728-1.785-.642-2.461-1.479-.729-5.595.781-5.301-1.916.06-.554.167-.723.49-1.095-1.005.125-1.117 1.85-1.092 2.043.095.73.92 1.214 1.823 1.236.992.025 2.168-.072 3.042.281 2.19.887-.023 1.96-.68 2.428-.491.352-1.164.793-1.43 1.57-.246.715-.359 1.798.02 2.507.24.446 1.281 1.398 1.714 1.158zm48.128-5.117c1.08-1.208-1.684-2.841-.18-4.878l1.107-1.226c.989-1.139.723-2.026.338-3.53-.267-1.041-.68-1.44-1.28-2.206-.268-.343-.228-.493-.704-.484-.208.53.24 1.182.474 1.555 1.317 2.1 1.363 2.793-.155 4.638-.611.743-1.564 1.672-1 3.003.261.617 1.09 2.012 1.4 3.128zM39.16 9.736l.089 5.288c-.226.175-.366.29-.641.278-.155-1.342.039-4.654-.324-5.69l.809-.224.067.348zm9.402 33.279c.523-.196 1.095-.41 1.726-.314l1.216.365c.414.17.129-.037.368.233-.148.297-.77.433-.366 1.17.653.173 1.15-.28 2.33-.046 1.549.308.963.584 1.735 1.047.72.433 2.836-.302 3.708.26.252.163.584.433.75.604-1.172 1.017-1.204.36-2.587.33-.903-.02-2.515.374-3.057.66-.603.317-.437.544-1.242.437-1.978-.26-4.882.634-4.878 2.357.934-.021.679-.996 2.922-1.367.593-.098 1.487-.173 1.981.122.645.384.391.71 1.575.55.72-1.51 3.774-1.723 4.457-1.099L48.841 51.75c-.429.12-.916-.172-1.464-.517-1.384-.869-2.872-.671-4.393-.115-.813.297-1.664-.442-2.95-1.068-.499-.244-.905-.425-1.408-.654l-2.892-1.432c-.26-.13-.436-.24-.714-.37l-.546-.258c-.228-.192.04.157-.173-.202.714-.155 1.615-.928 3.95-.944 1.452-.01 3.072.217 3.842-1.052.622-1.027 1.777-1.56 3.1-1.71 1.14-.13 1.953.673 3.107.393.522-.126.361-.435.261-.806zm17.804 3.058c-.45.114-.515.25-1.038.254-.01-2.182.114-3.49 1.053-4.023.73-.447.862-.292 1.548-.045-1.236 1.134-1.395 2.174-1.563 3.814zm-34.241-4.295c-1.278.359-2.366.92-3.532 1.171-.898.194-1.545.576-1.931.569-.49-.011-1.288-.593-1.713-.779.244-.207.796-.33 1.072-.435.35-.133.74-.264 1.079-.381.731-.254 1.49-.52 2.2-.756.76-.253 1.094-.426 1.773-.634 1.108-.34 1.205.806 1.052 1.245zm31.538 4.502l-1.238-.393c-.086-1.044.063-2.833.426-3.623.179-.388.415-.997.783-1.239.453-.295 1.161-.188 1.628.17-.564.713-.693.523-1.225 2.008-.297.83-.175 2.14-.374 3.076zm6.247-5.351c-.292.294-.588.492-.975.71-.884-.167-2.333-1.028-3.222-1.344.239-.325.557-.341 1.025-.496.74-.245 1.512.303 2.705.833l.467.297zm-8.977 4.061l-1.053-.343c.006-1.709-.137-2.247.443-3.636.224-.538.683-1.583 1.446-1.392.309.077.63.281.91.398-.328.237-.708.912-.955 1.362-.643 1.173-.651 2.28-.791 3.611zm-3.87-.942c-.184-1.805.172-5.207 1.767-5.535l1.318.568c-.915.588-1.737 2.253-1.593 5.282-.653.028-1.09-.059-1.493-.315zm-25.165-1.09c.98-.545 1.215-.319 1.071-1.43-.098-.818-.22-1.365-.802-1.975l.105-1.6c1.082.55 1.882 5.6 1.283 8.211l-.093-.307c-.047-.18.004-.102-.082-.304-.139-.33-.64-.812-1.135-.935.095.645.483.979.435 1.745-.598-.003-1.563-.588-1.93-.883.232-.14.466-.257.634-.449.672-.768.494.058.514-2.073zm29.86-4.494c.693-.235 1.213-.289 1.82-.374.934.259 1.834.84 1.842.848-.184.232-.508.44-.797.569-.431.193-.605-.004-1.003-.172-.518-.22-1.505-.584-1.863-.871zm-6.187 4.934l-1.1-.403c-.04-.915-.21-2.413.115-3.549.659-2.298 2.053-2.258 2.747-1.616.116.107-.448.473-.692.823-.887 1.274-.92 3.221-1.07 4.745zm-19.459 1.878l-1.308.387c-.04-3.113-.067-5.304-1.589-7.831-.155-.258-.512-.721-.625-.887-.181-.348.76-.654 1.031-.42.721.622 1.744 2.662 1.956 3.458.434 1.628.492 2.722.535 5.293zm21.542-8.618c1.975-.766 2.102-.152 3.897.47-.203.12-.846.56-.987.62-.41.178-.727-.041-1.046-.214-.58-.313-1.414-.508-1.864-.876zm-5.688 5.11c0-1.376-.155-2.767.229-4.033.156-.515.39-1.112.751-1.364.567-.394 1.56-.213 2.123.149-.737.523-1.544.824-1.715 2.998-.05.641.066 1.527-.07 2.12-.221.973-1.012.272-1.318.13zm-9.277 1.467c-.45.274-.766.453-1.039.784-3.642-.095-2.328 1.4-4.897 1.265l-.066-1.795c.413-.342 4.656-1.773 5.463-2.03 1.12.592.722.265 1.149 1.256.27-.174.183-.722-.01-1.181-.194-.462-.63-.562-1.04-.595-.135-.247-.058-.912-.019-1.62.779-.606 1.09-1.92.199-3.344l.02-1.659c.725.65 1.211 1.852 1.457 2.754.556 2.039.725 4.807.294 5.495-.298.488-.545.083-1.51.67zm11.357-8.185c.645-.239 1.05-.643 1.71-.394.539.204.982.461 1.536.633-.177.334-.467.462-.755.617-.376.201-.413.133-.838-.05-.46-.2-1.22-.539-1.653-.806zm-14.658 1.727c-.021.441.091.492.27.727a39.293 39.293 0 002.301-.863c.458.304.42 1.155.207 1.747-.44.367-5.493 2.082-5.855 2.101l-.477-1.556 2.063-.616c.014.199.066.782.174.894.149.151.489-.037.588-.175.42-.58.028-4.413.07-5.345l1.722-.55c.137 1.574.009 2.832-1.063 3.636zm4.336-3.56c1.457 1.375 2.47 4.367 2.582 6.482.04.756.058 2.092-.159 2.701l-1.011.138c.107-3.863-.54-6.846-2.496-9.076l1.084-.246zm-32.967-3.7c.886.169 2.404 1.011 3.399 1.46-.092 1.137-1.417 1.969-.596 2.75.61.584 1.702 1.033 2.855 1.135l-.218 1.927c-.53.012-2.87-1.18-3.623-1.555-.617-.308-.61-.342-.655-1.087-.563-.042-.63.142-1.179.189l.017-4.82zm6.015 9.042c-.117-1.394 1.252-12.544 1.392-12.87.296.271.267 1.014.36 1.565.532 3.123.423 1.516.12 4.94l-.768 6.851c-.128-.025-.972-.41-1.104-.486zm-5.79-9.766c.047-.51 1.103-2.215 1.475-2.858l1.62-2.746.414.184c.14.484-.056.247.07.682.728 2.487.682 2.987-.075 5.573.48-.027.56-.097.71-.047.206.273.637.67 1.696.682l-.083 1.132c-.6.03-4.93-2.222-5.827-2.602zm2.883-6.636c-.428-.477-.162-.929.381-1.17.209.466 1.528 1.594 3.791 1.505 1.717-.067 2.777-.442 3.325-1.297.639-.023.971.582 1.081 1.107l-4.28 1.175c-1.26.174-3.77-.73-4.298-1.32zm4.872 1.988c2.744-.473 12.05-3.346 13.544-3.42-.744 3.21-.707 4.734 1.466 7.032.906.958 1.77 1.384 2.49 2.189.765.852 1.218 1.825 1.411 3.208-1.021.477-17.772 5.727-18.469 5.621.032-1.847.467-5.723.62-7.324.08-.839-.182-.994.672-1.223l3.356-.99c.59-.218.703-.452 1.39-.591-.88.001-5.044 1.15-5.11 1.148-.226-.006-.109.02-.275-.07l-1.095-5.58zm2.052-6.682c.014.975-.014 1.924.023 2.846.035.91-.84 1.263-1.312 1.267.79-1.267.53-2.206.514-3.88l.775-.233zm16.119 1.302c.424-.554.952-.886 1.567-1.207.74-.388 1.443-.73 1.53-.745.206.23.744.446.385.953l-3.482.999zM20 15.163c.23-.153.385-.26.722-.343l.03 2.024c-.394.184-.245.118-.82.154L20 15.163zm-1.78 6.664c-.79.07-.972-.02-1.732-.166-1.66-.317-1.866-1.103-1.955-2.572a7.468 7.468 0 01.076-1.612c.493-.044 1.159.233 1.533.033-.43-.399-1.036-.347-1.445-.697-.365-.312-.109-1.175-.154-1.768 1.409.718 2.738.655 3.748.54.133 1.706.398 5.089-.07 6.242zm1.154-7.816c.053-.035.741-.1 1.359-.641.172.373.108.55-.227.767-.247.16-.583.316-.923.329l-.209-.455zM15.4 12.372c1.08-.674 3.524-.761 4.679.155.4.317.376.41-.111.654-.991.496-3.07.472-4.195.068-.387-.14-.944-.521-.373-.877zm17.9-2.374c.62.202 1.89.466 2.461.14-.512-.065-2.29-.06-2.609-.926l.412-.678c.58.458 2.215.992 3.687.56.137.153.282.423.402.636.517.915-.25.49-.435 1.242l.102 4.814c-.42.315-1.121.69-1.633 1.001-.426.258-.817.722-1.33.717-.463-.005-1.057-.278-1.075-.732-.04-1.04-.011-2.66-.002-4.254.521.044 1.272.31 1.715.062-.554-.288-1.262-.346-1.758-.696.002-.433-.058-1.504.062-1.886zm5.04-1.224c.356-.212.408-.382.59.108-.206.241-.544.494-.996.483l-.239-.388.645-.203zm-4.543-.635c.226-.437 1.801-.471 2.333-.51.337-.026 3.061-.008 2.015.707-.893.61-4.014.433-4.348-.197z" fill="#22A3DA"/></svg>