<svg width="107" height="89" fill="none" xmlns="http://www.w3.org/2000/svg"><path fill-rule="evenodd" clip-rule="evenodd" d="M24.158 80.74c1.785.002 5.245 1.45 6.601 1.26l-.124 3.097-1.163-.268c.24-.19.205-.172.208-.457-.32-.247-4.908-1.357-5.708-1.58l.186-2.053zm-10.63-.038c.671.022 7.458 1.79 7.952 2.06-.576.03-7.695-1.826-7.953-2.06zm0 0c-.505.048-1.46-.15-1.764-.46.535.018 1.39.171 1.764.46zm10.58-.724l-.012-.411c.812-.126 4.474.944 6.057 1.213.529.09.53.048.637.388l-4.947-1.075c-.935-.219-.837-.3-1.735-.115zm43.37-.974l.375.123c-.561.032-.287-.046-.374-.123zM29.48 74.466c.652 1.925.71 4.05 1.19 6.003-.487-.055-6.345-1.543-6.55-1.673-.079-.636.367-.86 1.032-1.315l4.328-3.015zM65.12 80c-1.712 1.136-6.54.091-8.312-.29-1.855-.398-7.078-1.104-8.365-1.503.952-.499.437-.168 1.823-.085 1.67.1 13.154 2.06 13.899 1.946.58-.09.107-.399.955-.068zm-53.356.242c-.501.062-7.924-1.826-8.546-2.147.445-.198 3.582.752 4.306.945.747.2 3.93.9 4.24 1.202zm56.47-2.993l.047.335c-.105-.12-.271-.058-.047-.335zm-25.246.214c-.19-.242-.32.053-.018-.398.15.252.23-.104.018.398zm9.858-.598l12.432 1.808c-1.048.002-4.798-.694-6.221-.874-1.075-.136-5.57-.621-6.211-.934zm-8.47.66c.529-.312 2.103-.385 2.871-.557.393-.088 2.67-.543 3.04-.329l-4.218 1.185c-.54-.041-1.144-.22-1.693-.3zm6.456-1.02c.103-.07.243-.2.515-.185.341.02.26.174.317.323-.428.057-.483.102-.832-.138zm8.866-.193l.23.145c-.46-.048-.096-.06-.23-.145zm9.535 2.408c.081-.211-.307-.224.897-.434.414-.072.75-.17 1.143-.246.774-.148 1.555-.306 2.324-.451 1.528-.29 3.03-.595 4.536-.916 1.482-.316 3.06-.613 4.567-.898l3.579-.62c.523-.065.677-.367 1.03-.017-.349.243-14.164 2.958-17.001 3.484l-.827.176c-.261.001-.061.02-.248-.078zm-34.687-1.082l.203-7.423c1.238-1.07 2.431-2.067 3.792-3.05.702-.505 3.487-2.49 3.912-3.02 1.117.397 3.34 2.046 4.498 2.75 1.402.855 3.09 2.142 4.497 2.83l-.005 4.799c-1.76 1.046-6.044 1.273-8.286 1.723-2.27.455-6.892.968-8.611 1.391zm-10.488-1.027l.233-28.887c.28.39 1.099 5.237 1.282 6.177.781 3.991 1.57 8.636 2.419 12.48.22.997.433 2.125.606 3.119.169.974.502 2.209.559 3.159-.8.65-1.666 1.41-2.499 2.022-.796.586-1.733 1.488-2.6 1.93zm77.9-3.843c.146-.357-.215-.186.361-.204.185-.005.453-.014.669 0-.396.218-.48.202-1.03.204zm-49.943-1.042l-.061-20.98.438-.424c.13 2.183.111 24.667-.042 24.96-.453-.186-.282-1.219-.282-1.688-.001-.602-.053-1.26-.053-1.868zm39.968.106l-.05-.852.606-.015c.219.993-.026.03-.124.456-.077.342.36.42-.432.41zM58.507 76.25c-1.06-.1-4.453-.515-5.3-.834.003-1.038-.23-2.23-.014-3.258l-.063-5.198c.39-.135 2.798.055 3.392.087l.088 6.085c0-1.336-.16-4.933.083-6.002.478-.144 1.589-.118 1.948.123.208.507-.057 7.89-.134 8.997zm41.817-6.826c.524.175.379.076.406.616-.304-.25-.271-.22-.406-.616zm-16.091.256c.527.091.937-.11 1.61-.102-.06 1.132-.126 3.045-.005 4.106L74.59 75.89c-1.255.26-2.606.356-3.825.718.01-.907 4.578-9.064 4.682-9.141.61-.203 3.59-.463 4.274-.408l.838-.089.034 3.26 3.382-.461c-1.055.002-2.51.465-3.407.451l.246-3.323 4.98-.386.03 2.878-1.591.292zm9.025-3.848l1.85-.143c.148.739.09 1.139.109 1.257.055.348-.057.124.173.337l-.098-1.61 1.925-.208 2.898 5.374c-.699.157-1.335.295-1.994.377l-3.697.744c-.394.106-.612.075-.988.173-.696.18-.536.29-.706-.19.718-.303 1.922-.183 2.488-.565l-2.39.317c-.388-.474-.038-1.332.547-.576l.09-.373-.207-4.914zm-22.684 6.726l-.07-4.818 3.021-.095c-.225.602-.982 1.835-1.388 2.535-.313.54-.5.666-.72 1.262-.16.432-.39 1.003-.843 1.116zm18.089-6.29l2.883-.326c.036 1.144.258 4.122.165 4.95-.47.08-.92-.027-1.235.114.139.265-.038.254.469.141.454-.102.336-.15.822-.086l.05.79-1.322.185c.292.765.938-.52 1.413.24.208-.412.304-.45.718-.223-.208.486-.633.322-1.8.595-.39.091-1.542.329-1.885.282l-.18-3.812c.924-.268.985-.165 1.59-.213.801-.065.348-.07.508-.21-.658-.084-1.336.229-2.087.232l-.11-2.66zm3.126-.32l1.32-.067.14 4.751-.55.065-.096.067c-.527-.085-.287-.06-.698.016.024-.569.197-.59.141-.96-.076-.516-.144-.553-.14-1.134l.446-.171c-.635-.034-.48.417-.563-2.567zm-30.038 1.385c.845-.183 4.268.216 5.714.132l-.08 10.051c-.522.044-6.805-.901-6.993-1.031-.155-.157-.046.055-.066-.431-.075-1.871.085-4.273 0-5.754l1.116.093c-.565-.317-.538.013-1.096-.259l.034-2.924 1.212.007c.222.928.17 3.269.106 4.272-.462.028-.477-.115-.8.004.358.176.403.09.827.114l.044 1.784c.507-.385 2.457.181 3.974.185l-3.848-.486-.07-2.623 1.213.075.112 1.154c-.502-.014-.5-.113-1.124-.04l1.004.147c.206.32.106-.086.153.462.16-.465-.163-.294.38-.482l-.36-.12.029-1.02.403-.027c-.92-.434-.273.134-1.781-.283-.123-.866.19-2.423-.103-3zm3.09-1.209c.255-.122 1.775-.108 2.202-.066.593.06.37.05.473.331-.094.028-1.039.057-1.264.073a6.78 6.78 0 01-.813-.01c-.56-.031-.467.071-.598-.328zm-4.44-.11c.402-.253 2.564-.038 3.305-.052.507-.01.854-.1 1.067.294-.335.235-.708.144-1.179.117l-2.265-.077a8.703 8.703 0 01-.525-.04c-.68-.094-.252-.02-.404-.241zm15.827.138c.102-.497.055-.45.57-.458 1.004-.015 2.506-.267 2.955-.046-.15.398-.36.438-1.549.466-.656.016-1.333.097-1.976.038zm3.552-.37c.08-.148-.076-.319.397-.314.615.005.28.033.432.345-.375.155-.475.177-.83-.031zm-26.619 0c.306-.191 1.945-.085 2.672-.086.515 0 .55-.05.714.332-.487.265-3.057-.102-3.386-.246zm10.01-.848l1.474.035.05.84-1.518-.016c-.133-.48-.097-.387-.005-.859zm-1.46-.093l1.286.023.036.879-1.265.013-.058-.915zm37.031.513l1.798-.088.124 3.547c-.377-.436-1.786-2.9-1.922-3.46zm-45.616-3.816l3.402.062-.017 1.268-.002.116.026 1.632-.02.881-.686.071-2.703-.115V61.54zm38.692 3.23l.793.032c-.083.036-.124.091-.398.115-.61.053-.346.036-.395-.146zm-3.197.465l-.004-1.81 2.844.053.023 1.445c-.329.087-1.959.184-2.221.095.616-.046 1.482 0 1.96-.303l-2.115.078c-.298.46.13.286-.487.442zm-26.905-1.54l2.986.089-.04 1.057-2.935-.102-.011-1.043zm31.261.875l-1.273.06.001-1.11c.531-.066 2.158.032 2.745.08.705.058 2.106-.262 1.992.703l-2.574.228c-.588.044-.62.11-.736-.356l-.155.395zm-12.228-.245l.045-1.535c.634-.13 1.725-.128 2.385-.13l2.614-.206c0 .795.165 2.29-.06 2.902l-4.644.54c-.474-.01-.193-.01-.346-.11l.005-.24c.417-.201 1.561-.14 2.11-.14l-2.069-.12-.044-.783 4.557-.426c-.042.011-4.26.257-4.553.248zm-24.13-2.71l.784-.003.036 2.468-.752-.009-.067-2.457zm41.144 2.122c.444-.04 2.338-.006 2.672.182-.414.254-1.488.165-2.072.167-.541.205.028.012-.218.394l-.382-.743zm-54.223-.284c.404-.511 3.231-2.527 3.947-3.03 1.313-.92 2.759-2.134 3.96-3.14l.014 11.118-3.013-1.836c-.534-.368.057-.347-.995-.617-.386-.1-3.59-2.165-3.913-2.495zm-8.675 4.73c-.094-.641.115-8.232.267-8.756l6.113 3.868-6.38 4.889zm40.72-4.135l-.075-.924.546.012-.471.912zm-4.97 11.114c-.094-1.157.816-2.221 1.31-3.216l3.398-6.145c.535-.93 1.333-2.69 1.945-2.829-.157.89-1.892 3.373-2.406 4.58-.214.5-.594 1.094-.866 1.583-.442.794-3.015 5.83-3.381 6.027zM95.12 63.007l.03-1.142.768 1.28-.798-.138zm-7.416-5.384c.39.19.27.281.264.814-.004.351-.003.7-.004 1.052l.162 10.26c.026.683.106 1.417.093 2.095-.024 1.224-.267.867.404 1.79.687-.094 1.628-.322 2.37-.452.745-.131 1.73-.173 2.28-.648.742.362 6.372-1.188 7.362-1.104l.201.506c-.675.223-1.64.332-2.332.512l-1.759.318c-.81.11-.52.163-.619.26.707-.014 4.271-.856 4.576-.802.477.083.091-.032.266.197-.927.406-9.225 1.904-11.599 2.4-1.352.281-1.341.437-1.463-.074.239-.115 3.512-.748 4.069-.848.698-.126 1.346-.238 2.024-.395l1.573-.283c.415-.076.33-.079.518-.24-1.657-.031-7.075 1.72-8.215 1.492-.128-2.784-.151-5.783-.162-8.574-.005-1.319-.105-2.65-.103-3.962.002-.71-.183-3.947.094-4.314zM41.261 62.69c.322.05.266.039.438.293-.49-.063-.197.074-.438-.293zm29.224-.707c1.7-.246 3.24-.227 4.925-.377l-.02 1.34.042.227c0 .75.071.863-.182 1.522-.535.2-.666.07-1.031.276l.771-.041c-.063.437-.064.42-.377.744-.852.09-3.25-.09-3.803.333.322.151 3.039-.219 3.628-.184l-.094.504c-.65.108-1.253.079-1.995.216-.546.1-1.39.127-1.817-.065l-.047-4.495zm18.403.303l2.53.192.084.454c-.566.07-1.144.038-1.694.023-.614-.016-.84.274-1.217.187l-.058-2.462c.775-.045 2.304-.453 2.91-.149l.061 1.74c-.547-.013-2.274-.157-2.617.015zm-28.466-.625l1.138.017.047 1.853-.953.02.961.149.025 2.014-1.201-.008-.017-4.045zm-1.628.615l-.019 3.434c-.642-.01-1.454-.296-1.958.002l1.45.123c.638.078.139-.106.51.18-.265.196.196.095-.392.165l-1.767-.023c.066-.703-.119-1.355.097-2.002.529-.04.624-.075.787.42l.126-.383-.051-2.577 1.222.013-.005.648zm2.866-.508c.542-.216 2.236-.104 2.92.002l2.27.124c.197.006.386-.067.666-.072l-.04 4.081-2.63-.09-.058-.73 1.668-.143-1.665-.132c-.164-.371-.118-.584-.066-1.006l1.436.003c-.48-.3-3.611-.224-4.451-.222l-.05-1.815zm33.263.067l-2.424.025c-.603-.065-.424-.202-.652.193.369.175.183.062.613.019.301-.03.608-.024.927-.053.519-.048 1.072-.173 1.578-.054l.038 1.092-3.292-.092-.011-.393c.76-.18 1.994-.017 2.81-.017-.756-.414-1.942-.06-2.796-.336l-.07-1.787 2.668-.229c.314.491.745 1.009.61 1.632zM80.59 64.332l-.984.189 1.002-.017.007.785-4.104.213c.458-.815 1.014-1.613 1.34-2.522l2.083-.108c.511-.116.053.01.248-.122-.945-.108-1.312.023-2.162.08l.746-1.475 7.006-.533.023 1.646c-1.086-.136-4.29.288-5.011.138l-.008-1.03c-.3.242-.041 2.017-.186 2.756zm-4.372-1.38l-.645.014-.041-1.328 1.496-.185-.81 1.5zm21.004-.326l-.528-.684c.262-.157.117-.087.469-.214l-.596-.058-.748-1.345c.622-.395 2.871-.435 3.45-.33.919.165.274.167 1.017-.133.073.594.257 3.435.041 3.766-.131-.386.22.128-.077-.478-1.46-.07-1.778-.32-2.808.047l-.22-.571zm-39.647-2.322c.302-.134.942-.141 1.24 0-.181.146.09.057-.217.117-.41.078-.772.087-1.023-.117zm-.938-.024c.36-.108.615-.171.83.147-.504 0-.558.075-.83-.147zm18.957.024c.222-.332-.27-.16.98-.214.592-.024.868-.15 1.167.098-.257.387.04.158-.348.22-.401.064-1.474.094-1.8-.104zm-22.46 0c.261-.384.323-.161 1.533-.134.532.012 1.425-.106 1.85.134-.42.303-3.057.148-3.382 0zm4.434-1.231l1.239-.021.004.964-1.183.006-.06-.95zm22.09.877c1.94-.019 1.987-.128 4.133-.097l-.603-.115c-.59.01-1.917.005-2.32.138l-.046-1.888c.299-.136 4.37-.313 4.97-.307l-.012 1.943c-1.577-.006-.815.298-3.16.36l-3.183.218c.197-.49.976-2.05 1.365-2.263l-.052 1.847-.787-.172-.304.336zm8.863-.446l.002-1.05c.903.324 1.966.057 2.895.184l.03.62c-.393.235-2.004.322-2.082.31-.44-.068-.266-.138-.845-.064zm3.135-.128l-.01-.768 1.737-.015c.228.245.293.353.359.683l-2.086.1zm-56.542-.473c.512.02 4.814 2.765 5.41 3.254-.31.155-.997-.408-1.433-.643-.43-.231-1.001-.614-1.438-.88-.434-.265-.31-.193-.692-.298l-1.226-.796c-.576-.455-.402.04-.62-.637zm59.814-.263l4.132.018c.475-.014.93-.25 1.172.131-.187.423-.378.24-1.666.423-.761.108-1.43.087-2.19.11l-.077-.248-.01-.051-.407.064c.04.406.044.277-.448.672l-.506-1.12zm-.743-.176l.534.77c-.363-.167-.439-.384-.534-.77zM77.9 59.983l-2.307-.001v-1.84l3.34-.198c-.209.728-.734 1.345-1.033 2.039zm-.85 2.868l2.402-4.316c.246-.448.115-.447.48-.575.105.324-1.812 3.543-2.278 4.477-.26.52-.07.487-.604.414zm16.663-5.246l.413.61c-.395-.257-.258-.19-.413-.61zm-12.89.159c.172-.706.564-.976.763-1.627.654-.098 3.673-.212 4.206-.113l-.01 1.636-4.96.104zm10.624.226l-2.896-.02-.042-2.109c1.259-.017 2.15.084 3.38-.208l1.224 2.328-1.464.018c.01-.555.17-.948-.12-1.422-.06.09-.087.063-.122.243l.04 1.17zm-32.584.91l-1.31.004-.076-1.056-3.693-.127c.42.314 1.062.135 1.553.152l.098 1.01c-.491.03-1.238-.087-1.532.14l1.49.044.468-.114c-.489-.028-.447.198-.447-1.014 1.398 0 1.075-.047 1.161.367l.123-.377.818.009c-.186.579.19.557-.286 1.073.361.274.227.503.159.994l-.683.01-3.617-.066.044-3.832h4.299l1.498-.002-.067 2.785zm16.714-.928c-.692.098-2.917.368-3.374.006.06.435-.273.2 1.36.212.612.005 1.29-.047 1.929-.047l-.01 1.861-1.483.169c.497 0 1.076-.16 1.493-.05-.173.444.386.26-1.1.453l-3.947.32-.002-4.633 9.495-.183c-.081.472-.639 1.452-.928 1.78l-3.408.145c-.012-.341.18-1.197.34-1.384l-.362-.25-.003 1.6zm-10.901-1.776l2.89.035-.027 4.45-4.525-.01c-.418.012-1.197.115-1.352-.25.527-.47 4.692.22 5.494-.115-.578-.315-1.976-.14-2.752-.126-.58.01-2.203.054-2.58-.057-.02-.03-.049-.11-.055-.092l-.197-1.976-.085 2.575-.998-.105c-.09-1.326.048-1.303.056-1.589 0 0-.048-.394-.053-.49-.024-.55-.024-1.637.031-2.172.567-.145.598-.055 1.079-.07.42-.013.751-.058 1.223-.027l1.711.027.014 1.772c-.57-.02-2.052-.184-2.438.088l2.419.025.054.84c-.571.048-1.641-.195-1.983.093.415.093 1.585.03 1.923-.018l.17-.93-.02-1.877zm28.7-.404c1.55-.512 5.133.086 6.684-.331.069.328.196 2.316.016 2.615-.628-.14-4.795-.193-5.534-.115-.345-.442-1.054-1.57-1.166-2.17zm-46.261.246l-.31-.286.739-.212c-.064.44-.057.329-.43.498zm45.328-.797l1.094 1.92c-.54-.504-.733-1.403-1.094-1.92zM42.15 62.604c-2.315-1.237-4.618-3.184-6.939-4.29.232-.472 5.033-3.746 6.035-4.393.7-.451 1.297-1.045 2.043-1.436.343.19.843.909.93 1.069.45.836 1.616 1.33 1.827 2.122.123.465.472.948.996.966.811.029.877-1.313 1.8-2.08.253-.212.835-.694 1.01-.97.446-.707.053-.48.945-1.029l.06-.641.553-.258.005 3.628c-.332.257-.674.623-1.04.924-.341.282-.807.587-1.205.895-.803.623-1.516 1.275-2.282 1.894-.759.613-4.129 3.327-4.738 3.599zm4.982-7.866c.137.263.141.373.002.637-.334-.297-.42-.42-.002-.637zm15.88.321c.037-.105-.22-.411.912-.344.629.037.57-.075.613.48-1.044.003-1.162.181-1.526-.136zm-1.566-.116c.291-.183.718-.242 1.115-.168.309.058-.12-.07.19.058l.138.11c-.152.37-.705.395-1.09.298-.557-.14-.082.046-.353-.298zm31.18-.377c2.352-.147 3.628-.03 5.742-.03.3 0 .636.015.93.002.51-.023.481-.182.784.055-.32.643-5.498.397-6.494.41-.374.005-.36.145-.714.108l-.248-.545zm-45.02.684c-.091-.405-.096-.479.224-.731.203.367-.013.508-.224.731zm40.863-.712l2.837.003c-.344.358-1.138.21-2.097.203-.508-.004-.365.019-.653-.134-.027-.014-.058-.047-.087-.072zm-27.877.172c.322.212.212.044.564.11.23.043.186.044.3.11-.101.226.316.398-.958.226 0-.6-.148-1.444.119-1.97l.766-.043c.04.526.116 1.1-.02 1.555-.35-.09-.434-.138-.771.012zm22.027-.392l1.882-3.53 1.22-.05c.165.558.103 2.982.054 3.668-.772.258-1.969-.176-2.624.208.433.01.87.005 1.307.014.72.014.909-.126 1.327.082-.304.149-.325.114-.744.106-.92-.018-1.49.066-2.6-.017l.653-.224-.475-.257zM59.74 53.151l.253.005c0 1.926-.043 3.85-.099 5.772-.049 1.695.023 3.836.003 5.69-.02 1.855-.152 3.69-.078 5.538.066 1.638-.06 3.973-.148 5.66-.49-.734.07-20.116.07-22.665zm-14.326.864c.277.198.347.38.442.72-.361-.165-.077.153-.327-.284-.195-.34-.074-.126-.115-.436zm2.96.44c-.083-.319-.068-.286.157-.53.173.402-.098.419-.157.53zm43.308-.65l.659 1.187c-.258-.234-.61-.843-.66-1.187zm-42.746.103c.026-.358-.027-.352.236-.45l-.236.45zm-4.228-.37c.234-.186.208-.239.425-.022-.255.157-.152.182-.425.022zm5.013-.36c-.158-.19-.175-.092-.075-.303l.075.304zm-14.03-.312c-.138.01-.292-.255-.02-.197.143.03.157.187.02.197zm8.358-.327c.51-.113.174-.105.438.072l-.24.412c-.02-.032-.027-.098-.029-.082-.001.016-.01-.06-.014-.073-.004-.019.07-.114-.155-.329zm24.456-.455l.02 3.72c-.228-.53-.122-3.213-.02-3.72zm-24.405.242l-.041-.34c.2.264.176.04.04.34zm6.236.248c-.14-.458-.155-.647.255-.769l-.255.769zm-7.94-.31l-.359.211c-.182.27-.5.483-.822.607-.246.354-5.587 4.264-6.05 4.425.125-.757 1.293-1.068 1.776-1.625l-1.766 1.126-.018-3.013c.726-.472 2.274-2.433 2.78-2.69l3.635.033c.82.008.642.144 1.047-.356l.475.798c-.2.278-.344.343-.698.483zm1.294-.215l-.119-.561.377.262-.258.299zm46.696-.581l.706 1.242c-.312-.21-.532-.876-.706-1.242zm-46.348-.155l.445-.003-.333.244-.112-.241zm3.908 2.986c-.22-.212-.068-.096-.06-.465l-.724-.498c-.73.29-.636.465-1.07.789-.233-.328-1.83-1.59-1.695-2.524.91-.636 4.073.056 5.538-.231.203-.304.148-.623.63-.683.16.752-.133.292-.457.956-.293.6-.056.152-.372.427-.403.35.044.38-1.138 1.316-.625.495-.309.525-.652.913zm-4.756-3.642c.355.087.452.182.235.537-.389-.168-.33-.038-.235-.537zm36.724 7.21c.14-.677.681-1.249.928-1.898.67-1.762 1.147-2.148 2.021-3.562.254-.411.678-1.432 1.087-1.624-.27.663-.62 1.15-.945 1.762l-1.006 1.786c-.531.882-1.527 3.297-2.085 3.536zm-28.97-6.773c.147-.135.32-.34.426-.412-.136.372-.085.298-.427.412zm37.476-1.578l2.745 4.84-2.684.039-.04-2.323.904-.09v-.055l-.879-.033-.046-2.378zm-29.522 5.716c-.558-.026-1.118-.057-1.679-.02-.706.045-1.383.155-1.806-.126.227-.372.102-.294 1.58-.247l1.598-.015c-.082-.056-.011-.066-.225-.108-.153-.03-.292-.018-.444-.034-.472-.046-.251-.065-.715-.017-.483.05-1.235.053-1.718.008l-.08.015c-.64.08-1.672-.11-2.102.138.738.258 1.434-.213 2.122.111-.136.266.238.315-.987.312-.551-.002-.768-.003-1.316.1.026-1.675-.046-3.385-.05-5.069-.004-1.49.53-2.773 1.404-3.915.656-.136 4-.44 4.516-.31.148.867.064 3.55.024 4.547-.058 1.45.052 3.247-.122 4.63zm26.785-6.468c.229.49.113 1.262.107 1.807l-1.145.077 1.038-1.884zm-1.449 1.42l-.14.406c-.036-.042-.2.191-.064-.178.098-.265.107-.154.204-.229zm-42.19-.111c.01-.006-.015-.271.213.08.186.286.099.144.134.466-.304-.186-.334-.526-.348-.546zm1.994 1.24l-.825-1.48c1.266 1.162.68.93 2.408.95-.323.108-.481.015-.771.107-.445.14.04.158-.785.255l-.027.168zm-1.37-1.447c.379.011.043-.135.355.258-.368-.01-.112.143-.355-.258zm41.566.317c.085-.367.21-.537.454-.838l-.454.838zm-43.02-2.27c.013.029.031.04.037.088l.294.788c.143.428.223.52.386.894l-2.35-.091c.265-.317.563-.498.888-.77.476-.397.185-.559.744-.91zm11.205 1.445c-.263.055-.088.177-.39-.143.505-.285.254-.141.39.142zm-10.124-.53c.27.274.322.225.139.44l-.139-.44zm42.393.517c.135-.32.185-.516.44-.717l-.44.717zm-5.62.003l-6.085-.092c-1.893-.023-1.508-.35-1.765.099l3.62.06c1.36.061 2.852.027 4.24.037l-.015 1.244-.863-.077 4.731.161-1.261 2.454-.177.087c-.046.39-.309.871-.583 1.2-1.515.2-9.778-.136-10.315.189l10.2-.008c-.229.351.222.164-1.205.281-1.819.15-8.362.077-9.175.308l.007-8.06 8.677.265c.127.871.005 1.08-.03 1.852zm-37.192-1.39c.285.189.224-.006.227.4l-.227-.4zm47.065-.006c.961-.017 10.481.21 10.67.335.185.22.083-.07.186.337l.138 3.322-4.786-.023-.055-2.023.154-.163c-.544-.048-.078.15-.283 2.14l-.723.041-.07-3.626c-.306.282-.048 1.075-.198 1.461-.65.016-1.905-.175-2.401.023l2.416.094c.151.552.202 1.487-.025 1.92-.6.428-1.692-.161-2.407.122.316.17.77.086 1.131.085.475-.002.908-.026 1.376.052.025.435-.126 1.007.016 1.36.223-.293.122-.636.119-1.384h.791l-.013 1.29c.169-.33.086-.827.142-1.287l4.817-.034.092 2.037c-.653-.151-4.64-.127-5.743-.07-.976.05-1.111-.098-1.865.455l-3.48-6.464zm-53.082 4.59l.038-1.565c.457-.5.907-1.065 1.43-1.582l1.22-1.11c.4-.274.058-.044.377-.447l1.08.054c-.39.78-3.705 4.405-4.145 4.65zm47.256-1.917l-3.895.01-.04-1.186.047-.08c-.175-1.127.149-.98.205-1.842.913.063 4.541.135 5.079.365-.093.584-1.087 2.033-1.396 2.733zm-33.123-2.528l1.315-.014c.126.323.277 1.45-.147 1.541-.798.172-6.026.069-6.971-.005-.601-.047-.33.076-.892.107-.746-.616-.167-.218-.519-.895-.206-.396-.47-.247-.489-.949l6.12.088c2.079.016 1.66-.168 1.583.127zM35.279 50.29l.055-2.542 2.487.116c-.424.627-1.923 1.912-2.542 2.426zm24.606 2.82c-.277-.415-.115-1.22-.1-1.782.03-1.05.064-4.968.233-5.427.191.279.077 6.793-.133 7.209zm27.809 4.398c-.423-.628-.285-9.208-.285-10.683.76-.17 11.515.29 12.25.53-.135.308.16.158-.33.21-.862.09-1.404 0-2.12.03-2.013.09-6.164-.157-8.579-.173-.365-.002-.996-.09-.983.371.006.222.14.965.159 1.32l.108 7.111c0 .232.011.48.009.709-.007.557.088.396-.23.575zm-34.528-9.886l-.062-.668.408-.152c-.207.509.071.384-.346.82zm32.742-1.189c-.012-.113.102-.102.085-.006-.023.143-.085.012-.085.006zm-15.999 30.5c.653.428 1.17.096 1.856-.016l6.448-1.202c1.38-.22 2.832-.515 4.211-.78.749-.144 1.444-.29 2.212-.36 1.02-.093 1.038-.36 1.795-.496.392-.945.305-.404.115-2.011-.085-.716-.047-1.802-.044-2.568l.4-.175-.42-.108c.083-2.676-.23-7.513-.039-9.453.04-.4-.238-1.534.087-2.086l.392-.003c.307.785.19 10.498.302 12.77l.015 4.201c-2.863.81-6.1 1.167-9.028 1.872-2.982.718-6.176 1.18-9.164 1.837-.269-8.263-.01-17.255-.016-25.628 0-.911-.054-8.351.127-8.57.306.565-.06 1.355.49 1.892.791-.342.834-.207 2.063-.153.727.032 1.44.062 2.166.125.725.063 1.496.041 2.239.084l8.713.516c.298.027.817.165 1.028.16.736-.014.161-.332.847-.158.182.522.363 9.938.265 10.863l-.615.029-.048-7.935c-.101-1.958.374-2.615-2.381-2.385l-13.804-.513c-.05-.007-.126-.07-.352-.099-.082.935.034 2.664.062 3.69l-.156 7.645c.094.381.233.246.156.85-.065.502-.2.295-.078.917.178.898-.093 1.167.026 1.843.147.84-.027 1.112-.045 1.807-.018.67.215.011.035 1.9l.14 11.698zM90.716 46.27c.661.07 1.205.019 1.858.043.527.019 1.12.2 1.57.171-.634.02-1.082.009-1.696-.021l-1.39-.046c-.534-.095-.17-.014-.342-.147zm-3.307-.217c.621 0 2.828.032 3.241.294-.585.009-1.1-.034-1.672-.04-.276-.003-.496-.002-.774-.023l-.394-.037c-.159-.04-.049-.001-.208-.069l-.193-.125zM60.396 45.9c2.255-.393 5.797-.149 6.888-.553.21-.077.123-.107.233-.054.366.625.011 8.372.05 9.802l-2.943.13c.058-1.015 1.424-.282 2.454-.48.602-.117.132.015.369-.196l-2.809.042.006-1.883c-.17.209-.145-.26-.132.836.004.343-.019.675-.008 1.026l-1.528.079-1.457.023-.12-1.589-.848.02c-.222-1.37.475-6.472-.155-7.203zm-19.006-.34c.54-.252 4.105.04 5.049.037.531-.001 4.43.089 4.93.347-.26.42.278.108-1.109.16-2.589.099-5.371-.088-7.992-.094-.66 0-.83.156-.878-.45zm-5.973.148l.012-.403 4.975.131.46.538c-.858-.015-5.034-.035-5.447-.266zm64.522-.737l.298.614-.692.005c.106-.466.176-.304.394-.619zm-2.353.502c.084-.376.442-.8.724-1.065.484.495.717 1.122-.169 1.112-.16-.002-.393-.032-.556-.047zm-1.145-1.247l.534 1.15-1.375-.008c.027-.394.542-.978.841-1.142zm-44.613 1.1l1.862-.114-.17.61-1.056.088c-.385.875.419 1.724-.447 2.458-.192-.992.13-2.069-.189-3.042zm42.76-1.23l.495 1.185-1.306-.062c.016-.378.535-.905.811-1.123zm-24.676 1.056l14.436.651c1.42.117 1.05-.018 1.567-.033.537-.014.152-.144.328.2-.73.276-15.68-.51-16.331-.818zm-15.403.107c-.293.225-.122.18-.44.026.002-.002-.01-.357.44-.026zm36.44-1.04c.351.125.649.373.663.782-.36.1-.707.064-1.085-.017.007-.372.136-.432.423-.765zm-2.174-.45l.933 1.114-1.736-.063c.316-.39.43-.815.803-1.051zm-48.499 1l.168-.055c.46-.139.206.028.536-.38l-.005.541c-.256.008-.53-.019-.699-.106zm14.405.968l.13-.559c1.489-.437 4.806-.308 6.516-.537 1.348-.18 5.566-.558 6.736-.396l.01.642c-.387-.068-.387-.306-1.587-.203-.475.041-1.08.215-1.614.249l-5.056.383c-.655-.075-.263.004-1.54.204-.657.103-2.956.254-3.595.217zM92.8 43.989l.508 1.154-1.362.02c.275-.508-.04.05.47-.363-.049-.488-.124-.615.384-.811zm-52.396.306c.001-.039.311-.252.193.06-.101.269-.208.257-.193-.06zm56.806.655c-.265-.295-.308-.419-.376-.826l.95.072c-.112.3.037.058-.214.386-.188.246-.133.2-.36.368zm-40.653-.512c.406-.222.363-.316.803-.27.48.05.81.064 1.295.066-.51.211-1.493.233-2.098.204zm38.257-.42l.984.008-.534.888c-.378-.38-.272-.485-.45-.896zm-15.346-.49l.348-.229c1.22 1.115.037 1.089-.495.956-.554-.14-.106-.006-.305-.16l.452-.566zm-11.112.575c-.024-.145.133-.05.12.04-.017.125-.08.202-.12-.04zm30.277-.14l.845.15-.495.795-.458-.632.663-.097c-.45-.172-.216.098-.555-.217zm-5.468-.125l.864.04c-.12.413-.306.687-.653.942l-.211-.982zm-52.89-.331c.167.296.191.158.025.467-.245-.345-.217-.2-.025-.467zm51.862.636l-.266-.282c.284-.141.133-.112.53-.051l-.264.333zm-37.34.069c-.068-.255-.061-.153.276-.414-.222.392.01.266-.275.414zm34.934-.632l.837.038-.4.562c-.442-.324-.232-.243-.437-.6zm-8.604.769c.785-.958.775-.917 1.076-.792.023.404-.033.341-.345.61-.37.319-.205.304-.73.182zm-4.575-.275c.12-.379.428-.785.72-.998l.59.557c-.347.663-.65.453-1.31.44zm-13.984-.484l2.015.2-1.773.23-.242-.43zm8.682.128c.059-.364.604-.955.923-1.161.139.096 1.121 1.073.341 1.202l-1.264-.04zm15.905-.306l1.337.027c-.02.338-.193.616-.44.836l-.897-.863zm-12.433-.471l.307-.194.576.69c-.512.69-.68.555-1.461.433l.578-.93zm-8.11.463c-.033-.208.22-.185.19-.006-.04.257-.181.056-.19.006zm-11.647 0c.004-.035.135-.128.084.002-.035.092-.1.154-.084-.002zm-.875 1.259l-1.649.137c.327-.63 1.001-1.085 1.406-1.647l.845-.035c-.138.87-.484.742-.602 1.545zm-32.103-2.55l.389-.055c.177.88.036 8.382.002 9.849-.078 3.445.032 6.932-.101 10.374-.132 3.401.031 6.852-.08 10.262l-.113 9.765-.627-.157c.199-.68.064-8.475.064-9.84 0-3.392.14-6.774.101-10.142-.018-1.617.13-3.371.152-5.011.068-5.003.334-10.046.213-15.045zm63.112 1.091l1.015.055c-.17.377-.232.531-.539.746l-.476-.8zm-.668-.086c.639.078.382.075.746.617.27.402.4.354.085.698a3.534 3.534 0 01-.83-1.315zm-1.13.05c.234.156 1.043 1.16 1.09 1.45l-1.758-.173c.28-.603.305-.094.667-1.277zm-13.49.301c-.395.171-.566.097-1.027.095.148-.396.374-.916.723-1.119.36.412.527.569.303 1.024zm12.838-.415l.294-.056c-.351.266-.108.184-.294.056zm-3.181.475c-.634.336-.181.744-1.127.669.165-.268.369-.42.595-.64.412-.403.237-.443.538-.825.37.368.144.326-.006.796zm1.518-.022c-.228-.203-.286-.33-.357-.675l.899.107-.542.568zm-25.24-1.11l3.47.27.012.62c-.953-.026-2.61-.038-3.465-.29l-.016-.6zm22.325.304l.695-.04c-.116.315-.129.354-.427.488l-.268-.448zm-3.35.24c-.618.413-.317.818-1.081.923.187-.274.382-.386.559-.633.301-.422.167-.478.297-.879.511.096.344.186.226.589zm-14.258 1.254l-.941.036.218-.392c.261-.547.08-1.027.31-1.411.254.166.083.447.089.86.008.598.155.492.325.907zM75.992 44c.166-.317.343-.419.52-.776.26-.522.067-.706.576-.69-.1.636-.444 1.45-1.096 1.466zm.116-1.082l-.339-.398.79-.055c-.15.356-.115.18-.451.453zm-35.468.49l-.353-.102.033-.524c.426.55.699-.004 1.377.335l.292-.29-1.374-.176c-.632-.014-.583.118-.589.599-.098-.178.007-.64.028-.856.542.006 1.117.05 1.658.066.574.017 1.128.16 1.713.188l9.693.406c-.282.396-2.235-.008-3.55.014-.408.006-.925.013-1.206.264.541-.111 3.715-.013 4.354.067-.226.612-.291.186-1.059 1.257-1.75.204-3.781-.407-5.523-.145l4.036.207c.498.053 1.006-.102 1.204.322-.345.205-8.53-.103-9.801-.103-.346-.136-.29-.173-.437-.573 1.003-.316 3.326.338 4.45.03l-3.898-.159c-.428-.03-.602.053-.855-.339-.538.155.032.191-.317.09l.124-.579zm32.43-1.213c.44.006.735-.017 1.106.16l-.602.566c-.405-.228-.343-.334-.504-.726zm-2.56 1.452c.159-.53.337-.599.657-1.02.377-.495.382-.725.936-.402a5.012 5.012 0 01-.626.824c-.42.463-.193.63-.967.598zm-16.253-1.444l.847.057.025.55-.508-.39c-.588-.167-.108-.008-.364-.218zm-14.87-.162l.377.766c-.43-.123-.33-.282-.376-.766zm-14.263-.488l5.764-.903c.154.742-.156.837.139 1.699l.612.175c-.202 2.256-.123 5.024-.123 7.29 0 2.446-.091 4.903-.15 7.344-.076 3.2-.022 7.68-.224 10.84-.056.88.002 3.202-.236 3.5-.361-.18-.362-.808-.503-1.72a27.449 27.449 0 00-.346-1.846l-1.438-7.422c-.482-2.85-3.39-17.414-3.495-18.957zm45.27.559c.314-.177.118-.153.582-.071-.401.373-.182.508-.582.071zm-.672-.094c.679.015.923.614.48.855l-.48-.855zm-2.232 1.57c.154-.469.375-.702.61-1.132.362-.66.285-.534.973-.712-.101.458-.335.689-.59 1.094-.434.69-.152.71-.993.75zm-31.205-1.635c.488-.016 1.72-.028 2.112.11l.053.401.665.033.429.794.484.073c-.274.329-.397.26-.192.746l-.372.173c.458.06.352-.05.652.228-.045.214-.082.152-.274.408l-3.47-.147c-.658-.12-.232-.06-.39-.188.719-.032 1.063.04 1.76.069.584.024 1.167-.032 1.678-.02-.611-.048-2.937-.086-3.262-.277.475-.313 1.31-.065 1.8-.206-.377-.033-.902-.018-1.253-.07-.333-.05-.075-.019-.255-.072l-.126-.047c-.218-.061-.036.214-.387-.17l.88-.258c-.025-.027-.061-.072-.074-.049-.018.033-.116-.045-.17-.058l-1.017-.13c.192-.568.158-.288.665-.58-.17-.087.197-.183-.4-.123-.415.042-.082.05-.323.159l.152-.353 1.06-.014c.272-.065.157-.054.321-.163-.364-.354-.236-.2-.746-.27zm5.24-.115c.688-.11 6.554.33 7.702.41.778.053 1.803.236 2.555.177l-.492-.119c.818-.194.983.15 1.395-.165-.418-.023-.983.032-1.276-.121l1.406.01.196.325c.803-.043.697.176.784.307-2.816.153-6.851-.53-8.127-.433-.868.067-1.42-.325-2.57-.171.43.185.291-.068.675.212-.927-.225-.767.029-.854.092l1.25.067c-.25-.05-.48-.005-.748.009l-.504-.039c-.023-.008-.049-.029-.072-.038-.645-.264-1.123-.236-1.882-.234l-.067.204c-.378-.502-.336-.152-.703-.31-.36-.154-.082.04-.237-.26.664.149 1.389.268 2.092.2l-.522-.123zm-17.11-.13c.404.253 1.535 7.414 1.793 8.633l1.662 8.817c.444 2.923 1.155 5.89 1.648 8.837.239 1.425.548 2.966.845 4.385.145.691.178 1.468.423 2.142.282.778.128 1.734.104 2.566-.36-.654-1.435-7.478-1.717-8.857l-1.712-8.868c-.59-4.082-1.917-9.156-2.526-13.356l-.681-3.304c0-.025.153-.98.161-.995zm11.706-.124c.208-.218-.125-.252 1.049-.15.41.036.75.093 1.165.098l-2.214.052zm43.787-.147l.686.072c-.191.138-.416.05-.686-.072zm-40.19-.351c.037.16.08.302.087.47.024.643-.012.303-.089.421-.085-.194-.104-.73.002-.891zm38.776.302c.25-.06.37-.073.629-.063.377.015.387.032.606.209l-1.235-.146zm-7.86-.284c.401.484 8.658.878 9.388.954.65.067 1.657.263 2.233.287 1.172.046 6.724.472 7.122.745l-14.426-1.2c-1.624-.194-3.124-.393-4.77-.484a1.88 1.88 0 00.453-.303zm-29.632.123c.867.07 1.748.01 2.535.118.275.038.333.127.506.154.484.076-.018-.122.5-.02.48.093-.309.117 1.205.19l3.817.182c.513.02.996-.026 1.346.19l-8.31-.424c-.194-.456.114.522.017-.202-.713.078.135.182-1.279.115-.47-.022-1.07.086-1.383-.108.256-.167.649.131 1.734-.042l-.688-.153zm-.99-.1l.84.091c-.467.1-.455.123-.84-.09zm-3.95-.171c.352-.288 2.134-.028 2.67.057.278.378.309.336-.074.453.473.189.208-.1.329.261-.497-.037-.555-.077-.376-.466-.692-.183-2.186-.126-2.548-.305zm-23.85.116c.42-.22.917-.233 1.43-.259-.283.203-.353.169-.717.239-.43.083-.42.154-.714.02zm70.42-.028c.096-.243.022-.227.378-.265-.219.239-.009.173-.378.265zm.492-.851c-.047-.473.132-.451.465-.228-.204.231-.1.245-.465.228zm2.965.073l-.68-.05.137-1.195c1.256-.143 1.524.56.543 1.245zm-2.75 1.217c.053-.23.088-.26.163-.442.196-.476.108.061.018-.55.76-.402.03-.498.591-1.243.347.513-.004.279-.069.658-.066.387.096.192-.032.5-.4.96-.229.984-.671 1.077zm-6.255-1.81c.215.237-.065-.07 0 0zm-5.903-.306c.84.01 3.842.283 4.514.602.178.898-.22-.122.55 1.29l-4.993-.492-.07-1.4zm12.491-.558l.251-.264.17.276-.42-.012zm-.6-.06c.347.386.379.052.45.692-.592-.193-.344-.277-.751-.67l.3-.022zm-11.877-.008c-.003-.083.122-.145.09-.01-.03.128-.089.07-.09.01zm-16.517-.214l.31.157c.27-.405.628-.764.791-1.264l6.323.766-.143 1.921-7.576-.589c.054-.374.252-.379.516-.655l-.22-.336zm-40.959 2.32c.067-.048-.075-.064.33-.178.994-.279 13.053-2.11 13.13-2.105-1.004.166-2.174.477-3.228.657l-6.736 1.129c-.878.132-2.748.55-3.496.498zm69.353-2.098l-.142-.301c.228.114.197.106.142.301zm-5.44-2.685c1.056.744 1.265 1.03 1.175 2.56-.181 3.11-2.185 3.578-2.807 1.286 1.238.13 1.883.642 2.074-.62-1.838.325-1.552-.263-2.522-.184-.612.05-1.588-.145-2.162-.085 0-.227-.116-.001.22-.243l-1.222-.254c-.613-.006-.189-.06-.415.115.072-.37-.25-.131.327-.323-.426-.124-.44-.252-.914-.204.128.257-.035.052.391.276l-.565-.053-.041-.64 6.443.685.272.562c.802-1.059-.992-1.047-1.597-1.077-.008-.356.219-.775.395-1.112.173-.33.606-.507.947-.69zm5.704 1.548l.287.148c-.545.103-.117.12-.287-.148zm-37.89-.215c.35-.022.39.077.68.33-.766-.316-.48.15-.68-.33zm35.78.644l.058-.663c.324.145.608.684.79.939l-.27-.824c.7.2.08.234.573.903.563.763.76 2.274-.461 2.91.234-.528.18-.342.325-.934.138-.566.486-.449.247-.944-.38.49-.367 1.949-1.346 1.823l.216-.494c-.549.121-.304.374-.977.428.195-.338.11-.133.202-.534-.666-.065-.421.457-1.04.472.088-.47.266-.092.191-.655-.672.347-.273.553-.98.609.354-1.185.454.064.981-3.12.195.35-.016.219.285.41.09-.519.05-.238-.098-.673-.244-.718-.108-.406.069-.578.33.39.22.623.678.99.217-.366.029-.096.184-.509.241.317.067.22.373.444zm2.501-.833c2.255-.482 1.682 4.396-.085 4.53.17-.307.956-2.035.969-2.3.025-.528-.69-1.693-.884-2.23zm-37.498.018l.276-.023c-.32.246-.14.116-.276.023zm-.568-.117c.01-.093.238-.253.15-.012-.062.168-.172.237-.15.012zm10.328-.351l.242.313c-.346-.033-.288.084-.242-.313zm-9.224.118c.157-.102-.031-.276.355-.006-.402.267-.227.078-.355.006zm36.159-.54c.434.477.25.407.097.993-.058-.655-.405-.64-.097-.992zm-35.664-.183c-.177.36.1.174-.322.247.116-.297-.035-.173.322-.247zm-1.061.727l-.265-.096.236-.69c.174.241.072.443.029.786zm.334-1.402c.44-.108-.09.208.545-.087.057.474.122.266-.186.587-.38-.23-.176-.135-.359-.5zm36.02-.272l.383.471c-.371.206-.147.143-.51-.132l.126-.34zm-25.691.736c1.582.016 4.82.588 6.848.774l1.7.296c.42.13.056.13.683.154-.264-1.073-1.248-.81-2.191-.949l.799-.522-.592-.182c.358-.171 3.147-.62 3.608-.632-.246 1.561.002 3.38-.12 4.971l-4 .41-.035-1.913c2.432.244 2.236.72 2.59-.798-1.04.778-.32.472-2.794.33-.514-.03-1.516-.093-1.869-.317.639.054 1.23.223 1.831.059-.372-.311-.686-.192-1.576-.29-3.932-.439.53.497-3.693-.02-.31-.038-.62-.11-.932-.132-.56-.04-.617.158-.658-.262.162.078 2.617.35 2.94.276-.65-.288-2.586-.614-3.324-.677l.05-.63c.359-.083.474-.094.735.055zm-9.566-.154l.02-.363.334.037-.103.546-.063-.474-.188.254zm20.868-.912c.387-.191 1.816.125 2.323.316.296 1.558.008 3.739.008 5.367-.353-.13-.213-.366-.871-.431-.422-.042-.88-.052-1.263-.224-.258-.563.12-3.954-.197-5.028zm-20.579-.113c.053-.046.498.073.205.167-.206.067-.227-.148-.205-.167zm34.77-.316c.386.118.35.11.323.565-.212-.231-.293-.263-.322-.566zm-35.573.327c-.391-.132-.222.049-.32-.327l.32.327zm0 0l.316.221c.114-.812-.587-.528-.057-1.387l.19 1.06c-.002.045 0 .185-.006.227-.032.244-.007.108-.09.283-.417-.15-.228.07-.352-.404zm35.475-1.51c.27.094.228-.11.296.447-.365-.027-.519-.05-.296-.447zM54.09 36.047c.323-.49.017-2.056-.405-2.388 1.627.302.68 3.965-.52 4.364.134-.307.111-.186.273-.402.32-.427-.022.006.157-.437.188-.467.428-.51.495-1.137zm14.438-2.29l.116-1.595c.642-.18 3.435.424 4.628.572.536.067.379.773.254 1.335-1.279.13-4.017-.664-4.998-.313zm-21.014-.3c.483.18.275.13.313.396l-.313-.397zm14.475-.116c2.01-.197 3.86-.7 5.966-.802l-.095 1.42c-1.333.145-3.59.335-4.855.699-.42-.296-.347-.428-.945-.579l.382-.185c-.462-.175-.36-.075-.453-.553zm-14.447-.195c-.01-.072.127-.146.107.016-.02.166-.08.165-.107-.016zm-.51.118c-.054-.089-.215.042-.013-.3l.014.3zm-3.878-.74c.008.096.217.598.257.867.119.81.039 2.765-1.047 2.903.1-.644.143-.384.52-.815l-.248-.49-.616.487c-.714-.317.429-.141-1.275-.319-.516-.054-1.133.101-1.65.02l2.031.16c-.077.448.073.128-.185.43l-.271-.3c-.656.443-.835.291-1.632.297l-.273.34c-.056-.26-.03.056 0-.172.065-.49.062.272.024-.104-.22.013-.041-.095-.247.046a.487.487 0 00-.038.035l-.045.134c-.64.075-3.027.096-3.375.358.403.267.303.082.692.199l-1.921.028-.049-3.576c7.355-.267 5.283-.61 6.842.899l.288-.659c.516.718.04.712.519 1.094.293-.718.26-1.778 1.159-1.93.426.535.409 1.568.452 2.22.411-.584-.054-1.402.088-2.151zm39.218-.159c.327.251.253.19.194.617-.27-.245-.504-.244-.194-.617zm-27.694 6.162c-.57.269-.498.746-1.428.633.444-.238.162.069.369-.271l-.612-.236c-.224.322-.022.084-.192.453l-.352-.132.168.324-18.84-1.498.034-.63c1.508-.036 2.921-.034 4.39-.097 1.316-.057 2.612-.136 3.931.044.381.538.508.908 1.256 1.177.558.201 1.431-.13 1.727-.629l.745.545 1.236-.75c.559.333 3.817.382 4.784.583.1.357.037.353.33.576l-.104-.455c.723-.072.956.001 1.583.187.965-.918 1.576-3.875.548-4.78l-1.543-.18c.276-.364.346-.33.565-.732l1.054-.125c-.346.282-.53.215-.969.603.61-.107.458-.214 1.228-.245-.189-.39-.124-.086-.05-.295.622.587 1.16.252.977 2.442-.06.73.07.602-.296 1.34-.201.405-.327.877-.651 1.215.457.21.046-.135.33.137l-.218.796zm-7.173-6.052l.302.262c-.268-.065-.249-.223-.302-.262zm-.934-.26c.004-.037.227-.177.145.017-.05.118-.181.326-.145-.018zm-12.741.11l-.05-.846 5.05.493.003.115c-.791 0-4.595-.114-5.003.237zm13.577-.81c-.002-.065.16-.135.118.011-.035.122-.113.21-.118-.011zm-2.667 2.437l.307-.111-.115-.706c-.422-.283-.34-.23-.75-.645-.332.13-.545.288-.71-.09-.145-.332.125-.23.289-.617-.29.016-.114-.105-.416.152l-.234-.307c.376-.36.398-.615 1.128-.603 1.251.02 2.02 2.035 1.825 3.748-.298 2.628-2.325 4.212-3.22 2.103.52-.51.162-.445.881-.721l-.238-.245c-.015-.012-.052-.034-.076-.054l.305-1.024c.466-.106.382.025.621-.287l-.472-.184a.395.395 0 01-.068-.05l.677-.167-.658-.342-.195-.787c.748-.075.376-.114 1.072.349l.047.588zm22.745-2.55l.084-.887.1.831c-.155.144.021.177-.183.056zm-21.603-.013c.138-.263-.025-.07.284-.288l.364.398c-.063.33-.04.446-.257.54l.027-.603c-.568-.088-.064.111-.418-.047zm24.021-.53c.477.103-.067.13.528.16.33.018.254-.07.62-.02l.05.849-1.504-.15c.452-.358.287-.266.306-.838zm11.827.008c.365.006.22-.095.283.305-.364-.135-.169-.014-.283-.305zm-36.702-.024c.384.047.227-.073.302.136l-.302-.136zm22.044-.72c.117.275.156.37 0 .62-.153-.353-.128-.399 0-.62zm14.842.267c.018.41.114.243-.186.267l.186-.267zm-35.826.174c-.113.033-.206-.163-.021-.156.075.003.12.126.02.156zm22.168-1.593l1.07.186c.017.788-.083 1.826.242 2.521l-1.302-.127c-.25-.043.115.095-.261-.044.087-.18-.03-.067.12-.144l.244-.064-.113-2.328zm13.222 1.247c.104-.476.029-.263.27-.29-.02.099.162.177-.27.29zm-.048-1.252c.107.029.172-.143.313.161.194.416-.025.225-.072.304-.25-.168-.261-.05-.241-.465zm-13.456.425c-.103-.31-.096-.267.043-.54.121.246.088.165-.043.54zm-20.678-.845c.479.559.131.536.253 1.044.114.479.112.576-.2 1.094-.16-.543.056-1.162-.022-1.574-.059-.314-.176-.043-.03-.564zm34.183-.7c.23.333.048.173-.014.273-.051-.104-.176.035.014-.274zm-13.375.224c.519-.121 1.4-.018 1.886.12-.095.476-.205.64-.72.424-.043-.177-.09-.06.13-.213l-1.296-.331zm-20.793-.082c.063-.21-.169-.145.237-.148l-.237.148zm19.866-.79c.258-.085.102.064.356-.304.279.383.105.204.24.195l.156-.424c.243.248.052.096.188.069l-.002-.778c1.864-.346 1.814.768 1.925 2.119-.857-.206-1.876-.492-2.79-.456l-.073-.422zm14.013.42c-.108-.29-.107-.264.012-.484.18.314.153.192-.012.484zm-3.99-1.349l1.347.301c-.242.194.285.14-.342.15-.148.002-.272-.037-.403-.06-.886-.15-.453-.059-.602-.391zm-29.845.224c-.117-.172-.31-.006.005-.406.365.398.004.372-.005.406zm33.626.107c-.135-.313.08-.636.353-.82-.113.489.021.628-.353.82zm-33.643-1.49l.069.408c-.335-.366-.223-.21-.07-.407zm34.17-.235l1.312.319c.096.822.196 6.74.016 7.086-.45-.387-.081-.607-.3-1.169-.103-.262-.204-.152-.219-.501-.012-.301.1-.223-.02-.655-.172-.614-.038-.635-.182-1.205-.179-.705.114-.58-.34-1.299.138-.805.17-.408-.027-1.237a22.808 22.808 0 01-.24-1.339zm-3.434-.828l.722.14c.08.918.166 1.258-.484 2.05-.37-.023-.419-.015-.68-.21.428-1.067.36-.754.653-.893-.37-.284-.162-.517-.21-1.087zm2.68-.367l.406-.189c.07.393.11.366-.059.673-.308-.136-.097.012-.141-.205-.034-.168.084.056-.206-.279zm-33.484-.415c.322.322.206.229.086.456-.24-.267-.21-.152-.086-.456zm.096-1.122c.205.36.241.288-.006.624-.09-.07-.155.199-.19-.25-.028-.34.1-.279.196-.374zm-35.95-.53c1.51-.358 3.653-1.37 5.181-1.918 4.247-1.524 8.508-3.31 12.783-4.872.583-.212 2.136-1.006 2.57-.792.295.28-.02 15.253-.029 17.717-.005 1.525.137 4.183-.633 5.4-.34.26-13.306 2.311-15.067 2.675-1.646.341-3.43.462-5.045.904.127-4.151.476-15.536.24-19.113zm69.122.451c-.138-.186-.232.061-.003-.364.124.301.136-.055.003.364zm-33.73-.224c-.04-.148.11-.041.108.033-.005.11-.063.132-.108-.033zm34.117-.411l2.82.748-.15 2.422c-.648.051-1.47-.158-2.106-.348.03-1.553-.149-1.007-.223-1.422-.11-.62-.118-.765-.341-1.4zm-33.642-.39c.193.257.24.176-.042.542-.212-.38-.183-.263.042-.543zm.08-.958c.021.217-.094.227-.258.334l-.088-.567c.48.055.305-.181.346.233zm-1.784-.175c-.398-.085-.944-.123-1.282-.28.352-.5 1.997-.142 2.458.215-.28.453-.596.191-1.176.065zm1.732-.668c-.414-.046-.179-.008-.273-.207.31.065.163-.112.273.207zm32.624-.62c.269.305.257.26-.002.404-.099-.158-.18.018.002-.404zm-32.879-.726l.184.335c-.418-.063-.256.19-.184-.335zm7.034 18.155c-.411.335-.643 1.387-1.495 1.998-.145-.366-.1-.194.21-.592l-.107-.485c-.395.39-.311.836-.868.782l.32-.494c-.393-.204-.103-.066-.284-.257-.2.363-.285.62-.8.696.217-.512.459-.23.21-.835-.601.452-.36.768-1.153.712.227-.682.425-.17.46-1.057-.336.52-.235.232-.534.5-.354.315-.076.499-.563.52.007-.386.067-.289.372-.592-.05-.456-.096-.231.064-.754.188-.616.272-.459.11-.72 0 .001-.547 2.188-1.385 2.008-.21-.476.315-.109.39-.995-.35.174-.667.616-1.035.904-.163-.04-.14-.032-.265-.178-.15.39-.137.282-.627.253.095-.418.697-1.359.919-1.905.445-1.098-.185-1.026.218-1.646.137-.213.164-.105.371.039.04-.563.06-.386-.236-.758 1.008.053.816 1.596.927 2.315-.107-.286.11-.727.15-1.08.067-.601-.168-.575-.219-1.179.932-.02.93 1.497.91 2.195l.151-.635c.05-.289.107-.164.03-.563-.065-.327-.276-.633-.354-.92l.457-.004c.205.43.219.783.526 1.104.25-.44-.066-.471-.108-1.007.815.157.244 1.167 1.023 1.234-.059-.409-.196-.909-.48-1.222.4-.035.211-.139.216-.205-.29-.265-.774-.187-1.234-.193-.675-.007-.7-.153-1.176-.185-.438-.03-1.228.674-1.324-1.132-.035-.664.228-.4.05-.99l-.233-6.206c.046-.59.161-1.994.102-2.542-.075-.699-.473-4.228-.314-4.658.133.383-.042.32.231.644.134-.256.137-.542.127-.922 2.247.267 4.975 1.23 7.27 1.686 6.069 1.204 12.157 2.646 18.163 4.115 1.04.255 2.644.759 3.643.887l.068.366c.439.106.205-.024.561.17.322 1.296-.718 1.122-.625 2.512l1.84.195c.057-1.008.067-.436.386-1.14.148-.328.204-.936.284-1.313.42-.177.402-.12.834.033.339 1.14.345 2.031.711 3.598l.388 2.88c.101.599.128.301.395.719-.08.326.155 2.37.233 2.73.053.245.145.368.189.593l.295 2.26c-.731-.124-2.76-.858-3.285-.649-1.535-1.722-2.724-.814-3.584.981-1.226.098-3.017-.51-4.373-.525-.185-1.97-.032-1.798 1.72-2.056.428-.063.993-.288 1.198-.546l.06-2.047c-.567-.445-1.802-.533-2.566-.562l.046-1.172c-.481-.343-1.195-.391-1.774-.475l-.022-.795c.52-.36.807-.61.693-1.939-.063-.727-.234-1.416-.906-1.687-1.316-.531-2.867-.389-3.874.622.032.546.19.778.127 1.428-.08.851-.069.39.158 1.2.2.712.207 2.327.127 3.062l-.99.338-.005.033c-.715-.192-2.9.19-3.665.406l-.08.946c.24-.33.153-.116.199-.558l.02 1.055c-.028-.037-.068-.182-.082-.2-.19-.233.076-.03-.174-.124-.264 1.968.286 1.3 1.196 1.326l.148.66c-.916.008-5.896-.617-6.65-.875-.148-1.158-.243-2.402-1.394-2.926-.759-.345-1.798.018-2.294.644-.443.559-.172.188-.75.507.021.025.056.028.066.073l.379.574c.195.428.052.45.453.6l-.226-1c.394.03.087-.2.335.184.27.418.348 1.214.619 1.57-.123-.955.166-.893-.444-1.793.463.077.498.056.672.535.487 1.338.49-.35.537 1.9zm-10.128-16.27l2.684.558c.228 1.817-.08.407-.046 1.377.016.492.324 1.061.243 1.472-.208 1.06.037.008-.012 1.327-.02.537-.066 1.084-.067 1.642l.1 2.955c.137.383.135 1.022.11 1.439-.047.826.328 1.018.056 1.436-.294-.533-.229-.661-.687-1.168.55-.958-1.007-1.611-1.827-1.03.382.312.519.112 1.049.27-.618 1.22-.737.41-1.762.666-.624.157-.778.511-1.172.843l-8.842-.492c0-2.723-.022-6.024.183-8.703.106-1.378.07-2.97.07-4.375 0-1.51.201-2.809.201-4.24l9.716 2.317.146.604c.528-.219.11-.443.867-.353.603 1.842-1.094 2.33-1.01 3.456zm3.037-2.874c.285.223.29.133.128.514-.162-.07-.157.149-.24-.236-.1-.458.015-.122.112-.278zm32.78-.255c.08.358.222.253-.142.35l.142-.35zm-34.217-.166l.945.165c.009.398-.127.325-.057.75.058.353.156.132.12.52-.054.585 0 1-.019 1.595l-1.706-.388c.159-.412.568-1.155 1.115-1.006l-.412-.235.014-1.401zm33.93-.773l.143.118-.182.13.038-.248zm-32.464-.148c.302.292.183.133.106.351-.238-.063-.362.152-.106-.35zm32.341-.813c.3.092.19-.217.239.303-.35-.1-.175.11-.239-.303zm-32.536.099c.001-.143.07-.149.106-.001.039.152-.108.087-.106 0zm32.633-.7l.211.097-.17.231-.041-.328zm0 0c-.26-.1-.07.116-.193-.132-.155-.311.066-.177.125-.21l.068.342zm-32.472-.677c.06.547.122.24-.174.278l.174-.278zM32.642 36.746c-.508-1.975.036-14.692.036-17.82 0-.984-.047-1.985.024-2.965.079-1.101-.1-1.269.105-1.989.156-.548-.137-.313.301-.535.32.477.02-.18.023 1.174l-.099 10.493c-.008 1.938-.157 3.9-.153 5.828.002.792.062 5.423-.237 5.814zm46.562-23.648c-.001-.05.102-.247.199.014.087.235-.194.117-.199-.014zm-31.978-.595c1.953.285 21.13 5.617 24.367 6.42.873.217 7.956 2.027 8.134 2.214.27.444.505 2.146.66 2.804-.58.005-18.401-4.292-20.576-4.82-1.349-.328-2.79-.617-4.115-.994l-8.207-1.972c-.031-.59-.119-1.19-.14-1.775-.012-.3.057-.657.035-.933-.049-.646-.21-.127-.158-.944zm-36.292 8.673l.022-3.063c.907-.278 1.85-.74 2.746-1.096L32.88 9.334l-.017 3.555-5.453 2.058c-2.222.886-16.116 6.282-16.476 6.23zm35.78-8.673c.009-.299.106-.235.153.011.064.341-.156.076-.153-.011zm32.751-.244c-.416.178-.375.222-.403-.16l.403.16zm-.461-1.026c.005-.078.096-.197.148 0 .036.132-.158.149-.148 0zm-32.196-.586c.122.232.185.184-.076.53l.076-.53zm32.348.007c-.118-.279-.153-.085.049-.407l-.05.407zm-32.773 1.663c.02.205.115.86.107.981-.021.305-.163.427-.082.778.17.725.119 1.07.042 1.81-1.593-.321-11.931-2.986-12.857-3.054-.167-.82-.122-3.172-.017-4.045.671.079 12.663 3.429 12.807 3.53zm.413-2.46c-.18-.406-.152-.317.108-.515.103.295.114.218-.108.516zm32.083-.693c.184.28.201.182.057.49-.246-.268-.214-.206-.057-.49zm-.157-.687c-.24-.24-.09-.152.002-.252l-.002.252zm-31.947-.244c-.12-.25-.217-.198.168-.455l-.168.455zm31.879-1.075c.311.26.267.187.125.498-.328-.295-.292-.217-.125-.498zM46.787 5.253c-.126-.263-.042-.314.06-.605.043.432.11.358-.06.605zM33.408 7.9c-.056-.652-.08-4.45.108-4.888.18.716.005 3.126-.046 4.098l-.062.79zM32.832.889l-.023 1.18-.354-.292c-.29 1.284-.138 3.702-.057 5.142l.019 1.868-15.238 6.242c-.747.339-4.574 1.94-5.145 2.011.118-.895.072-2.088.09-3.01.011-.675.355-2.627-.646-2.535-.067.222-.008 5.206.015 5.77-1.573 1.045-1.14.016-1.096 4.451.794.748.467.756.468 1.871l-.1 7.807c-.016 1.723-.152 3.403-.15 5.133 0 1.108-.444 3.992.037 4.744.624.022.15-.186.96-.144l-.012.355c-1.145.327-6.633 1.251-7.949 1.418-.496.063-.948.15-1.437.226-.557.089-.994.046-1.158.524.463.215 1.442-.047 2.024-.145l5.958-.99c2.629-.483 5.368-.787 7.973-1.311 1.375-.277 14.666-2.565 16.104-2.565.194 3.513-.101 7.808-.186 11.408-.088 3.79-.252 7.66-.251 11.423l-.305 11.187c-.115 2.942-.02 8.675-.382 11.234-.366-1.047-.547.625-.529-2.609.001-.188-.012-.38.041-.562.15-.516.05.109.254-.49-.4-.79-.24-1.345-.24-2.325 0-5.69.403-11.943.403-17.715 0-3.39.05-6.875.19-10.259l.224-9.716c-.698-.706-2.818.044-3.832.198l-11.93 2.1c-2.215.435-14.91 2.289-15.78 2.889.03.567.198.884.171 1.593L.617 67.882c-.036 1.222-.376 6.817-.075 7.55.86-.282.53-2.436.529-3.239l.202-11.422c.03-2.486-.037-5.103.093-7.577.127-2.431.16-5.154.16-7.597 1.6-.19 3.313-.653 4.932-.878 2.566-.358 14.009-2.598 15.012-2.458-.001 9.99-.38 19.954-.403 29.932-.006 2.428-.208 4.902-.18 7.324l-.095 2.437c-1.458-.19-11.065-2.88-13.416-3.473-.875-.22-3.9-1.25-4.514-.925-.125.269-.089.194-.01.474-.357.209-.413.201-.62.63-.246-.041-1.226-.34-1.327-.332-.263.022-.8.42-.905.626.893.694 23.781 6.167 28.618 7.67.663.205 1.347.32 1.998.555.598.216.248.39.693.566.295.116.297-.017.581.132.273.144-.07.121.375.284.538-.744.458-4.786.463-5.943.03-6.37.377-12.735.506-19.116l.404-18.294c.023-2.07.227-4.455.132-6.473 2.909.33 5.816.489 8.73.76a650.8 650.8 0 008.695.767c1.173.093 10.13.744 10.83.934.902.247.955.048 2.156.028 1.319-.02 3.092-.467 4.378-.283-.036.413-.858 1.476-1.147 1.905-2.004-.011-4.285-.226-6.305-.38-1.24-.095-.882-.7-2.569-.72-1.053-.011-2.136-.114-3.195-.178l-.32.405c-3.171-.067-6.453-.482-9.629-.693-3.294-.218-6.575-.533-9.86-.633l-.048 1.43-.64.09c-.098 1.708.001 3.607-.093 5.37-.094 1.768-.069 3.688-.106 5.47-.076 3.603-.233 7.256-.3 10.845-.066 3.526-.081 7.225-.292 10.723-.108 1.794-.028 3.674-.15 5.483-.063.961-.425 4.52.358 4.967l.267-1.612c.647.38.666.118 1.345.261l4.22 1.012c.872.257 1.912.44 2.806.677.427.112.953.254 1.387.354.638.147.968.333 1.159-.323-.655-.638-6.694-1.573-8.283-2.073-.78-.245-1.899-.701-2.627-.369l-.04-.448 4.966 1.066c1.163.283 4.086 1.08 5.125 1.016-.155-.442-.396-.388-.97-.534-1.83-.462-8.047-1.879-9.122-1.851l.04-2.677c.64-.134 1.18-.349 1.853-.464.71-.122 1.406-.191 2.105-.334l3.078-.522c.68-.064.492-.108 1.068-.285l.236.454a96.94 96.94 0 015.21.833c1.711.32 3.529.538 5.234.917 1.655.368 3.523.507 5.155.89.835.197 1.7.37 2.517.51 1.221.207.508 1.178 1.342 1.781l.371-.205-.206-1.429c1.39-.495 14.298-2.894 16.6-3.284 3.672-.622 7.33-1.55 10.989-2.226l16.775-3.18c.184-.415.177-.292.013-.682.177-.115.099-.065.069-.17-1.222-.23-2.567-.215-3.818-.348-.5-.054-.731-.253-1.164-.248-.096-2.225-.323-4.517-.421-6.743l-.658-14.342c-.035-1.198-.1-2.41-.095-3.613.004-.78.014-.875-.278-1.572-.718-1.717.442-1.296-4.231-1.657l-12.038-1.216c.17-.246.349-.392.556-.692.206-.3.315-.547.466-.824.68-.032.927.141 1.433-.311.479-1.292-.209-1.247-1.053-1.554-.525-.375-.361-2.118-1.836-2.046l.345.118c-.397.138-.244.054-.503.281l-.352-.628.378-.488-.29-10.392.8-.13c.119-.683.071-1.761.126-2.468.082-1.065-.206-1.105-1.107-1.395-.327-2.391.11-14.563-.462-15.452-.457.094-.342.227-.261 1.495.12 1.885.08 3.79.08 5.712 0 1.83.168 6.607-.034 8.083-.502.018-1.367-.227-1.713-.487-.195-.315-.43-1.277-.44-1.652-.016-.665-.206-1.31-.166-1.913.034-.526-.21-1.18-.264-1.703-.083-.825.084-1.154-.157-2.05-.155-.579-.154-1.25-.146-1.824.006-.361-.284-1.309-.26-1.798.032-.661-.295-.795-.266-1.669.028-.806-.19-1.057-.46-1.5-.807.39-.236 1.673-.179 2.225.028.268-.155.284-.039.882.236 1.211.263 2.29.471 3.514.193 1.128.263 3.71.474 5.482l.302 1.772c-1.077-.123-2.973-.707-4.093-1.017a179.837 179.837 0 00-4.022-1.07l-16.21-4.222a144.554 144.554 0 01-4.004-1.097c-1.253-.362-2.758-.873-4.009-1.122.067-.664-.02-.375-.086-.843-.055-.401.073-.364.049-.753-.074-1.174.087-.998.068-1.798-.465-.217-.068.05-.5-.082.402-.398.357-.82.33-1.385-.424.023-.045-.138-.395.247-.103-.988.363-.47.216-1.497-.312.422-.043.192-.288.213.133-.473.482-1.095.197-1.684-.515-.229-.678.074-.7.599-.033.808.225 1.897.163 2.648-.074.893-.17.452.184 1.323-.62 1.14-.022.723-.092 1.348-.036.318-.212.271-.161.72.035.313.157.29.212.7-.775-.082-2.186-.588-3.02-.803-1.06-.274-2.114-.493-3.155-.787-1.026-.29-2.068-.569-3.091-.849-.59-.16-2.648-.693-3.025-.902l-.026-6.315c-.137-.39-.47-.407-.732-.228-.02-.444-.077-1.296-.663-1.032z" fill="#22A3DA"/></svg>