<svg width="111" height="111" fill="none" xmlns="http://www.w3.org/2000/svg"><path fill-rule="evenodd" clip-rule="evenodd" d="M70.034 69.166c-.084.792 1.03 1.12 1.67 1.267l-.021-1.24c-.512-.092-1.263-.303-1.649-.027zm-.53 7.214c.821.344.878.346 1.406.62l1.586-.578-2.91-1.31c-.743-.384-1.281.01-2.046.142-.535.093-.983.137-1.047-.372.178-.184 1.108-.31 1.364-.448l-2.16-1.007.029 8.965c1.481-.495 4.575-1.516 5.888-1.943-1.15-.605-3.046-1.907-3.646-1.808-.554.166-.716.318-1.48.357.015-.442.413-.548 1.05-.792l2.794-.995c-.723-.48-1.154-.968-.828-.831zm2.61 1.178l3.362 1.577 1.884-.628c-.4-.256-3.158-1.412-3.36-1.507-.065-.008-1.204.346-1.885.558zm-.896.3c-.992.318-1.542.516-1.656.599l3.004 1.683 1.802-.634-3.15-1.649zm-13.275-8.86c-.41.494-.91.691-1.56.18-.822-.647-.46-5.11-.095-5.514.587-.653 1.312-1.024 2.076-.216.293.31 1.19 2.808 1.435 1.505.079-.418-.136-1.455.66-1.22.406.12.212 1.04.366 1.263.09.129.565-.017.885-.525.315-.5.256-.397.246-1.12l-.004-8.135c.012-1.776.093-9.596-.083-10.769-.328.04-.295.123-.74.038-.355-.652-.374-1.814-.395-2.633.174-.202.4-.324.807-.277.103.137.098.143.154.262.288-.209.089.03.185-.3l.002-1.984c-2.024.41-4.251 1.19-6.36 1.698-3.397.817-6.708 1.787-10.074 2.678-.171 1.96-.01 4.772-.011 6.907 0 2.354.031 4.709.026 7.06-.009 4.732.013 9.485.033 14.214.034 8.13.168 16.636.112 24.761-.007.991-.049 2.535.068 3.463.664.002 3.248-.992 4.104-1.277 1.04-.346 12.053-3.917 12.278-4.211l-.017-1.94c-.867-.168-.862-.35-.817-1.666.01-.317-.009-.926.097-1.153.175-.375.406-.31.718-.456l-.03-17.658c-.774-.054-.84-.073-.844-.84-.006-1.097-.27-1.665.296-1.886l.491-.176c.035-1.47.032-2.578-.206-3.171-.067-.169-.803-.088-.868.08-.117.311-.075 1.281-.727.921-.142-.079-.076-.437-.142-.544-.142-.233-.326-.196-.48-.048-.504.481-1.034 2.023-1.586 2.688zm.96-3.014c-.004-.462-1.006-2.195-1.455-2.152-.667.063-.62.667-.647 1.121-.072 1.224.058 2.984.103 3.246.047.27.348.413.618.19.493-.408 1.385-1.825 1.38-2.405zm3.263 30.8c-.687.087-1.248-.021-1.508-.449.219-.204 1.197-.523 1.493-.541l.015.99zm7.894-39.788l.912.254s.148.09.277-.14c.05.507.014.26.482.45-.016-2.223-.024-.988-1.294-1.529-.269-.114-.082-.138-.38-.254l.003 1.22zm6.747-2.864c.492.263.76.127 1.155.2l.422.15c.04.01.337.02.465.035.138-.586.157-1.89-.48-1.592-1.415.661-.23.037-1.105.109-.387.032-.053.116-.486-.03.022.4-.02.565.029 1.128zm.07 5.14c.602.15 1.138.39 1.983.631.085-.276.112-.9-.065-1.503-.403-.052-.73-.238-1.045-.21-.867.08-.233.039-.847-.253l-.027 1.335zM43.981 7.404l8.489-1.752c1.194-.305 1.335-.05 1.277-2.015-.016-.565.093-.932-.23-1.377-.328-.456-1.58-.839-2.346-.898-.536-.038-8.592 1.182-10.816 1.843-.721.215-.799.488-.091.966.775.523 1.675.876 2.61.892 1.987.035 9.87-2.19 10.35-1.775.108.094.065.077.032.412L44.81 5.634c-.947.26-2.858.37-3.751-.055a6.443 6.443 0 01-1.326-.84l.062 1.31c.095 1.539 2.274 1.59 4.188 1.355zM54.02 5.703l-.48.46.02 2.32 12.27 3.287.102.714c8.157 2.108 18.122 4.45 26.14 6.912.67.241.492.875.515 1.672.376.458.998.837 1.172 1.606.144.631.037 1.852.034 2.593-.004 1.164-.164 4.42.061 5.332l4.418.34c2.655.162 6.33.407 8.917.428 1.661.014 2.31.131 2.6.36.234.185.829 1.369.789 1.705-.048.397-.013.987-.048 1.383-.143 1.605-.136 4.982-.184 6.747l-.5 46.635c-.593.4-.937.237-1.857.188-.694-.037-1.333-.094-2.036-.138-2.676-.167-5.45-.453-8.1-.56-1.073-.044-3.216-.24-4.303-.264.01.769-.037 2.072-.01 2.667.017.37-.148.379-.552.52l-4.312 1.772c-1.376.469-.365.624-.992 1.061-.005.004-2.831.851-3.258.996-1.095.37-1.334-.07-1.936.014-2.415.336-8.293 2.839-11.02 3.705-3.299 1.048-1.976.975-2.516 1.653-.11.137-3.29 1.116-3.971 1.388-1.103.44-.489-.61-2.155-.026l-14.884 5.152c-.866.274-.732.673-1.14 1.038-.338.302-2.933 1.229-3.356 1.137-.39-.083-.485-.403-.917-.306l-3.949 1.422c-.389.151-.46.371-.853.423-.505.066-.703-.25-1.054-.279-.32-.027-.677.143-1.212.057-.887-.143-3.9-2.48-4.913-3.112-1.13-.706-2.151-1.422-3.223-2.14L11.274 93.98c-2.286-1.422-7.385-4.717-9.702-6.337-.243-.17-.61-.393-.778-.555-.18-.173-.33-.67-.358-.952-.066-.651.097-1.798.131-2.49.072-1.485.104-6.41.024-8.054-.033-.686.094-1.753.088-2.588-.024-3.214.116-7.14.12-10.548.009-7.082.043-14.266.015-21.186C.8 37.7.854 34.198.786 30.633l-.049-8.05c.063-.636.384-.407.33-.936C1.023 21.194.925 21 1 20.442l22.254-4.728.01-1.914c-.053-.75.279-.77.79-.99l-.02-2.83c-.046-1.808 3.685-2.366 5.477-2.082 1.305.207 3.28.578 3.445 2.303l-.018 3.284 2.677-.653.035-2.897 1.556-.559c.023-.788.055-1.373.02-2.164-.046-1.005-.007-1.089.42-1.208a29.05 29.05 0 011.078-.272c.041-.722-.208-2.325.375-2.597 1.514-.703 9.043-2.077 12.07-2.18 1.033-.035 2.906.28 3.284 1.422.128.386.073.64.125 1.417.056.822-.006 1.319-.558 1.909zm-1.426.656l-2.454.506a.914.914 0 00-.075.125c.483.176 1.043.495 1.445.754l-.03 4.433c.477-.066.955-.58 1.026-.767.15-.385.097-1.232.105-1.694.015-.808.113-2.675-.017-3.357zm-8.62 1.792l.109 4.553 1.679-.215-.109-4.573-1.679.235zm-1.738.345l-1.194.032c-.127 1.502-.05 3.068.074 4.518l1.173-.167-.053-4.383zm-.197 8.813l.014 2.426-1.082.14-.015-2.428 1.083-.138zm24.994-3.788c.1.094 23.566 6.24 24.972 6.743-.46.495-33.975 9.128-40.771 10.875-1.83.486-13.035 3.402-14.023 3.241-10.934-4.216-21.881-8.435-32.795-12.702-.31-.121-1.383-.562-1.645-.789l.445-.217c2.884-.733 19.358-4.308 20.012-4.246.136 1.284-.047.812.85 1.385l.004 1.928c-.196.17-.225.127-.421.296-.515.446-.467.646-.455 1.353l.01.693c2.153 1.944 9.584 1.717 10.765-.119l-.003-.744c-.002-.69-.029-.751-.517-1.232l-.474-.467-.084-5.27 2.7-.66.002 2.158-1.724.433-.017 1.464c.634.608 6.666 4.35 7.016 4.444.675.18 6.92-1.95 8.044-2.243.073-.574.002-1.133-.117-1.339-.25.341-.156.552-.208 1.07-1.165.46-5.863 1.66-7.114 1.823l-.012-.83 6.314-1.167c.182-.33.154-1.152.15-1.612 1.276.043 1.917.429 3.712-.264.759-.293.825-.303 1.288-.85.478-.563.336-.841.57-1.585l3.895 1.316 8.415-2.383.066-.693c.35-.021.676.212 1.15.19zm-14.497-.172l.034 2.597c-.182.4-.058 1.002-1.846 1.364-.825.166-2.15.3-2.703-.308l.01-3.032c1.193.425 3.814-.002 4.505-.621zm-19.685 6.762c.7.535 1.001.543.25 1.13-1.891 1.479-5.664 1.236-7.355.796-.4-.104-1.305-.516-1.802-.82-.67-.41.12-.893.61-1.134 1.748 1.813 6.483 1.674 8.297.028zm-.743-.592c-.988 1.712-5.827 1.515-7.23.008l-.005-1.463c.4.048 1.237.369 1.563.308a43.598 43.598 0 001.051-.729c.251-.264.16-3.233.001-3.537-.241-.46-.571-.47-1.27-.753-.604-.245-.784-.343-1.36-.633v-1.63c2.089 1.728 6.63.713 7.225.031.004.694.028 8.393.025 8.398zm-8.059-5.692c.675.202 1.393.221 1.819.847.11.162.182.698.174 1.117-.011.5-.03 1.015-.043 1.516-.586.007-1.556-.358-1.984-.57-.042-.412-.007-2.495.034-2.91zm1.154-4.341c.088-.788 1.511-1.163 2.818-1.237.956-.055 2.957.24 3.715.817.657.5.743 1.286-.483 1.725-1.314-1.245-3.795-1.478-6.05-1.305zm25.37-1.378l.059 4.11c-.519.323-2.272.77-3.28-.07l-.018-3.612c1.208.118 2.016-.002 3.24-.428zm-9.643 8.798l.009-1.265 1.102-.094c-.011.284-.01 1.044-.014 1.263l-1.097.096zm2.937-1.566l-.043 1.369-1.222.087.016-1.38 1.249-.076zm-4.756-.262l1.034.607.043 1.321a3.996 3.996 0 01-1.105-.576l.028-1.352zm-3.436 1.71l4.19 3.448c-.982-.279-3.666-1.758-4.698-2.386-.972-.592-1.019-.727-1.049-1.31l1.54-.386.017.634zm6.903-3.292l1.257-.144-.002 1.545-1.217.072-.038-1.473zm-1.668.242l1.1-.157.028 1.362-1.102.1-.026-1.305zm6.479 4.327l-.012.46c-.59-.291-1.302-.663-1.871-.8.326.387.913.837 1.574 1.25-.22.148-4.057.706-4.483.696l-.012-2.367 1.33-.081c.255.476.238.46.51.567l.017-.78c1.08-.142 1.076-.108 1.365-.285-.463-.164-.808-.069-1.345-.074l.02-1.38 1.323-.19c.087.48.068.79.301 1.73.191-.63.23-1.527.242-1.777.3-.062.296-.186.43-.309l-.26-.067c.023-.592.064-.956.075-1.504.705-.001.738-.457.835 2.01.04 1.022-.04 1.925-.04 2.901zm10.158-2.327l-.012-1.13 7.699-2.149-.01 1.28c-.399.151-6.735 1.832-7.677 1.999zm-13.128-2.42l1.348-.1.023 1.47-1.346.202-.025-1.572zm-4.218 1.706l-1.033-.564.052-1.296.954.532.027 1.328zm-3.476-1.84c.233.187 1.869 1.558 1.869 1.59l-.004 1.251-1.81-1.185c.051.379 1.435 1.482 1.777 1.636l.005 1.423c.335-.355.448-.66.605-.96.334.187.648.437.947.658l-.02 2.019c-.369-.11-2.173-1.572-2.748-1.989-.417-.303-.688-.51-.86-.728-.364-.463-.28-.974-.211-2.553.045-1.03-.008-2.06-.013-3.09.318.098.81.518 1.072.667l-.002 1.527c-.143-.03-.279-.147-.607-.265zm1.927.867l-.83-.412.009-1.309.82.497v1.223zm14.9-4.822l11.069 2.9-7.322 1.868c-.59-.024-3.057-.867-3.817-1.294l.07-3.474zM38.745 7.764c.386.054 1.034.536 1.274.79l-.032 4.358-1.255-.873c.045-1.333-.037-2.936.013-4.275zm46.302 21.874c-.475.1-.72.23-1.174.353-.386.103-.769.15-1.159.242-.752.176-1.439.424-2.181.599-2.211.519-6.533 1.736-8.802 2.409-1.904.565-4.045 1.17-5.979 1.612l-.313-.333c-.55-.586-5.563 1.03-5.83 1.244-.327.262-.26.465-.505.79-.266.351-12.26 3.447-13.477 3.6-.011-.525.028-.657-.2-1.067-.29-.023-2.595.287-2.804 1.105-.168.652.038 10.465.043 11.626.025 5.278-.044 10.568-.022 15.842-.485.245-3.987 1.14-4.69 1.298-.082-2.62.05-5.233.037-7.843-.012-2.613.049-5.183.064-7.777.022-3.956-.015-7.832.103-11.8.035-1.176-.062-2.817.064-3.905.851-.415 3.146-.91 4.254-1.18 1.373-.332 2.923-.78 4.277-1.04 1.872-.546 3.88-1.012 5.746-1.47a9774.094 9774.094 0 0034.722-9.076c.613-.165 5.6-1.452 5.775-1.432.016 1.24-.064 2.48-.043 3.712.014.816.004 2.862-.137 3.5l-2.35-.14c-.895-.492-1.285-.875-1.615-1.357-.021-.517.076-1.251-.077-1.647-.403-.173-.91.03-1.358.15-1.222.326-1.411-.117-1.461 1.014-.044.982-.312.701-.908.97zm-18.423 5.565l4.614-1.2a70.555 70.555 0 004.696-1.18l9.29-2.458v-.002a2.22 2.22 0 01.038-.268c-.12.121-.257-.203-.038.268v.009c-.205.858.11 2.42.115 3.303.02 3.191.103 7.02.025 10.099-.153 6.145-.145 14.184-.025 20.47.083 4.348-.08 9.252-.026 13.677.022 1.877.169 4.963-.08 6.724-3.27 1.279-6.648 2.134-9.643 3.254-1.6.597-3.332 1.023-4.866 1.642-.664.268-4.314 1.505-4.901 1.542-.007-.63-.04-.893-.028-1.117 2.07-1.036 6.882-2.35 9.118-3.202 2.274-.867 4.68-1.589 6.876-2.37.928-.33 1.859-.603 1.897-1.755.165-4.982-.145-40.517.065-48.157.027-.961-.358-1.543-.793-2.016-.596-.647-1.265-.654-2.226-.368-1.62.481-3.195.856-4.84 1.313l-9.731 2.51c-.112-.283-.009-.225-.191-.51l.654-.208zm15.162-9.638c1.358-.33 10.406-2.65 10.998-2.977-.077-.33.1-.017-.212-.324-.607-.6-.819-.244-2.73.224-1.16.284-2.299.59-3.444.841-2.23.49-4.542 1.25-6.758 1.776-12.68 3.194-25.503 6.745-38.187 9.665l-3.395.812c-.113.478-.163.46.04.91 14.63-3.427 29.112-7.39 43.688-10.927zm13.205 7.229c1.99.167 14.167.764 14.331.927.442.44-.402 24.315-.342 28.646.026 1.958-.118 3.839-.061 5.794.052 1.816.041 9.903-.069 11.487.004.96.016 7.508-.168 7.817-.18.121-.284.061-.602.034-2.967-.252-7.164-.442-10.164-.617-1.42-.083-10.085-.555-10.703-.762-.296-.84-.155-24.16-.14-27.06.023-4.506.119-9.005.115-13.5-.002-2.298.057-11.347.467-13.033.596-.07.577-.105 1.248-.056 1.998.144 4.094.155 6.088.323zm-18.095 4.633c.31.133.014-.226.376.057.024.02-.048.005.128.136.131-.087.167-.138.3-.163.547-.102-.024-.035.363.065l.646.241c.157-.76.086-1.343-.116-1.975-.316.181.023-.073-.154.154l-.137.202c-.012.019-.026.052-.044.074-.184-.508-.768-.515-1.34-.439-.101.4-.1 1.239-.022 1.647zm-4.961 6.445c.033-.739.025-.784-.247-1.34-.577-.196-.91-.425-1.628-.602-.115.293-.113.712-.044 1.03.079.36.246.41.585.492.14.034.326.05.459.087l.639.222c.413.127-.267-.022.236.111zm5.228 1.733c.352.128.606.21.88.27.363.081.165.018.49.156.197.083.17.11.433.13L79 44.95c-.237-.17-1.458-.65-1.804-.667l-.032 1.323zm-28.436-3.242c-.266-.047-.8.173-1.64-.644l1.407-.355c1.572-.4 9.645-2.67 11.366-2.978.329.728 1.627.17 2.007.108l.013.44c-4.247 1.232-8.835 2.288-13.153 3.429zm15.602-7.02c.626-.043 1.056.174.946.814l-1.375.27c-.327-.303-.593-.608-1.162-.523-.565.084-.491.278-.708.744-.103.221-.093.19-.408.283-.948.279-.966.315-1.199.173-.257-.157-.316-.407-.38-.615.258-.145 3.841-1.116 4.286-1.146zm-27.887-.194c.14.186.067.453.046.763-.677-.101-3.654-1.295-4.493-1.644-7.26-3.015-14.802-5.612-22.03-8.696-2.179-.93-4.38-1.702-6.538-2.713-.369-.172-.736-.294-1.02-.504-.145-.108-.368-.249-.485-.337-.387-.29-.11-.454.102-.423l3.35 1.344c.54.252 1.24.489 1.79.705 9.76 3.835 19.52 7.66 29.278 11.505zm1.346 72.45c-.039-1.568-.07-2.906-.067-4.56.01-5.548.192-11.387.133-16.805-.055-4.97.14-10.427.064-15.467-.007-.448-.026-.735.066-.826.089-.088 4.139-1.24 4.628-1.413l.05 18.242c-.004 1.324-.211 12.62-.02 13.396.078.321.353.358.629.538l.834.599c.668.507.802.449 1.374.464.61-.737-.322-.183 1.554-.894 1.776-.673 3.765-1.168 5.52-1.813 1.072-.392 6.518-2.41 7.33-2.39 1.193 1.972 2.319.937 4.284.303 1.177-.412 1.034-1.677.904-2.153.332-.2.531-.053.718-.322.17-.243.071-.703.206-1.032.098-.121 1.408-.454 1.63-.522.542-.163 1.084-.386 1.585-.555l9.515-3.125c2.1-.668 4.29-1.496 6.382-2.086.996-.281.992-.52 1.623-.304 1.202.413 4.992.438 5.689.49.058 1.767.227 2.222-.821 2.585L39.303 107.97c-.622.203-1.49.611-1.514-.372zm28.106-14.803l.01-.491c.06-.063 18.769-6.652 19.51-6.707-.076.072.035.425-.081.502-1.605.467-3.089 1.131-4.659 1.64-3.395 1.099-6.491 2.252-9.829 3.347-.797.261-1.66.515-2.466.828-.672.26-1.794.742-2.485.88zm10.192-12.41c.019.001 5.091 2.567 5.332 2.777-1.321.545-2.225.91-3.587 1.352-1.331.434-11.723 3.997-12.056 4.015l-.043-4.62c3.389-1.314 6.89-2.424 10.354-3.524zM36.095 108.78l.054-39.532 1.06.538-.014 5.006c-.055 5.046-.02 9.796-.127 14.928l-.1 18.71c-.26.259-.347.47-.873.35zm41.297-28.768l5.266-1.66c.061.58.11 3.66-.013 4.124-.641-.252-4.886-2.2-5.253-2.464zm.89-4.545l3.616 1.525-3.19 1.098-3.668-1.554 2.57-.806c.358.446.594.977.672-.263zm-8.022-.99c1.39-.48 2.547-.846 3.427-1.058.453.163 2.415.997 3.272 1.44-.326.162-2.951 1.027-3.224 1.06-.08.025-3.21-1.27-3.475-1.443zm-4.33-1.953c.693-.205 2.786-.912 3.561-.907.364.002 1.642.551 3.141 1.356-.105.065-3.149 1.014-3.395 1.056-.167-.003-1.924-.79-2.803-1.254l-.504-.25zm-.868-33.786c.052 2.29-.027 4.614-.002 6.912.074 6.766.011 13.855.01 20.65-.002 4.565.05 9.11.081 13.677.016 2.288-.032 4.59-.022 6.883.01 2.213.077 4.697-.059 6.883l-1.047.432-.207-54.864c.082-.538.429-.299 1.246-.573zm.6 31.261l2.26.95-2.27.728.01-1.678zm17.099-5.22l-.063 11.253c-.407-.058-3.446-1.296-4.014-1.534-3.63-1.523-7.168-3.047-10.919-4.58-.597-.273-1.035-.379-1.058-.463-.01-.04.847-.281.91-.301 3.238-1.02 13.615-4.448 15.144-4.376zm-5.222-1.722c.063.01.029-.553.03-.81l3.715 1.46c-1.424.42-3.257 1.038-4.037 1.194l-4.424-1.614 4.04-.996c.235.242.502.737.676.766zm-4.899-2.581c1.05.359 2.055.714 3.104 1.073l-3.933 1.277-3.508-1.264c.62-.258 3.343-.914 3.664-.903l.659.56.014-.743zm-.973 5.968c-.51-.08-3.613-1.675-3.655-1.367-.051.232 1.738 1.105 2.518 1.815-.689.219-4.472 1.32-4.835 1.258-.161-.489-.11-9.077-.074-10.208.393.06 5.303 1.817 5.536 2.011l-4.734 1.434 4.15 1.804c-.46.195-1.895.586-2.129.716-1.08.603 2.268-.018 3.101-.207.686.191 2.576 1.153 3.816 1.785-.247.174-3.386 1.008-3.694.96zm-5.983-11.003l17.113-4.88-.079 12.357-17.074-6.112.04-1.365zm11.352-6.729l.008-.606c.709.242 3.063 1.043 4.134 1.509-1.26.224-1.974.625-3.413.916l-4.182-1.483c.636-.322 2.339-.783 2.776-.872.263.191.669 1.109.677.536zm-11.36-4.601c.389.008 3.622 1.19 4.415 1.468 1.054.37 1.326.241 1.806 1.129.24.013.175.06.396-.052l.19-.207c.602.179 1.659.613 2.476.924-.408.255-1.397.526-1.954.742-.908.352-1.143.468-2.08.123l-3.043-1.057c-.333-.131-.68-.344-1.023-.24-.185.786.907.801 1.584 1.188l1.714.79c.161.123.026-.01.154.162-.445.14-.893.288-1.373.402-.958.23-.713.85-.41.869l1.707-.464c.753-.226 1.137-.503 1.95-.152l3.5 1.511c-.317.251-4.796 1.328-4.86 1.323-.514-.038-1.59-.71-2.07-.897-.989-.386-1.56-.784-2.115-.587-.128.643.698.796 1.187 1.052.596.313 1.426.563 1.56.843-.3.21-3.276.97-3.738 1.005l.027-9.875zm-29.492-5.852c-.041-1.266.47-1.287 1.135-1.47-.253 5.581-.107 30.048-.056 31.96-.33-.195-.801-.505-1.053-.647.124-9.842-.208-20.26-.026-29.843zm7.242 61.226c-.197-.367-.194-5.647-.188-6.1.03-2.38.008-4.856-.014-7.24-.044-4.835-.043-9.733-.023-14.571.02-4.796.113-9.667.056-14.481-.013-1.201-.177-13.457-.087-14.4.372.054.618.237.984.368-.218 1.957-.033 4.855-.008 6.97.028 2.38-.036 4.773-.008 7.151.057 4.754-.002 9.545-.018 14.302-.018 4.706.087 9.554-.006 14.213-.094 4.704.09 9.548-.172 14.2l-.516-.412zm1.628-59.598l-.032 1.272c-.295.121-1.616.572-1.857.578l-.016-1.297 1.905-.553zM34.359 68.293c-.32.012-12.802-5.35-14.44-6.058-1.034-.46-2.027-.837-3.043-1.323l-4.572-1.92c-.429-.188-1.244-.655-1.636-.511-.045.401.473.524 1.246.874L34.405 69.4l-.023 37.172c-9.58-5.967-19.602-11.781-28.927-18.089-.785-.53-1.26-.87-2.042-1.353-.803-.496-1.055-.837-1.802-1.193a45.936 45.936 0 01-.092-3.01l.086-19.934c.014-2.634-.113-5.47.015-8.076.38.044.737.313 1.099.457.742.295 1.373.623 2.132.903 1.228.451 3.016 1.404 4.293 1.828.316.105.392.069.627.022-.768-.59-6.955-3.108-8.156-3.984-.146-2.405.013-5.223-.002-7.688-.016-2.594.007-5.185.014-7.777.01-3.621.092-7.954.03-11.531-.016-.974-.187-2.785-.016-3.617.626.038 3.302 1.264 4.244 1.626 1.475.565 2.834 1.193 4.257 1.715 2.514.922 23.597 9.099 24.132 9.622l.085 31.8zm37.675-32.922c.59-.361 4.927-1.357 5.916-1.601.695-.159 3.527-.94 3.99-.842.453.095.74.508.904 1.519.23 1.414.004 5.583.015 7.36.016 2.483-.028 4.81-.008 7.29a4353.174 4353.174 0 01-17.15-5.977c-.305-1.227.294-4.39-.232-4.786l-.34-.076c-.232-.043-.56-.095-.722-.474.647-.225.85-.305.94-.345.695-.31.591-.566.74-.703.135-.073.39-.04.948-.173l2.565-.644c.587-.055.169-.019.406.085.156.069.183.095.382.149.428.114 1.22.342 1.649.367l-.003-1.15zM88.057 28.3c-.017.644.07 1.072.22 1.369.377.746 1.153.655 1.682 1.053-.21.483-2.234.74-2.554.592l-.524-.727c.551-.1.918-.08.978-.636-.56-.192-.763.162-1.236.006-.07-.453-.144-.989-.026-1.416l1.46-.241zm-11.24 39.74c.318.242 1.048.387 1.455.573.483.222.802.158.636-.9-.114-.74-.685-.416-1.618-.496-.169-.29-.115-.305-.489-.349.016.428-.012.726.017 1.172zm-.062 4.376c.261.227 1.674.74 2.132.889.024-1.05.237-1.544-1.199-1.595-.613-.028-.337-.25-.902-.303l-.031 1.009z" fill="#22A3DA"/></svg>