<svg width="66" height="65" fill="none" xmlns="http://www.w3.org/2000/svg"><path d="M19.877 3.032l6.384-1.444L65.32 10.43l-26.725 7.81L.857 7.333l14.716-3.328m1.167-.264l1.987-.45" stroke="#22A3DA" stroke-miterlimit="22.926" stroke-linejoin="round"/><path d="M16.91 5.34l1.689-.39m1.461-.336l5.466-1.258 30.69 6.63-17.474 5.158L9.521 7.04l5.959-1.372m10.046-2.312l-.14 8.084" stroke="#22A3DA" stroke-miterlimit="22.926"/><path d="M8.222 9.463l.711 38.833 29.662 15.913v-45.97" stroke="#22A3DA" stroke-miterlimit="22.926" stroke-linejoin="round"/><path d="M57.087 12.835l-.43 41.944-18.062 9.43M15.485 8.694c0-4.936-.278-7.337 2.329-7.743 2.606-.405 2.132 2.774 2.206 7.305l-3.768.65" stroke="#22A3DA" stroke-miterlimit="22.926"/><path d="M15.485 8.694c0-1.132-.001-2.14.025-3.025.09-2.972.493-4.547 2.304-4.718 2.35-.22 2.132 2.774 2.206 7.305l-3.768.65" stroke="#22A3DA" stroke-miterlimit="22.926"/><path fill-rule="evenodd" clip-rule="evenodd" d="M45.097 13.21c-.01-3.528.613-5.493 2.401-5.535 1.295-.03 2.128 1.397 2.14 4.246-2.627.782-3.129.93-4.541 1.29z" fill="#FEFEFE" stroke="#22A3DA" stroke-miterlimit="22.926"/><path d="M17.544 5.813c.59.067 1.156-.656 1.264-1.616.11-.96-.28-1.793-.87-1.86-.588-.068-1.154.656-1.263 1.616-.11.96.28 1.793.87 1.86zm29.624 6.785c.59.067 1.155-.656 1.264-1.616.11-.96-.28-1.793-.87-1.86-.589-.068-1.155.656-1.264 1.616-.108.96.28 1.793.87 1.86zM8.329 15.281l30.266 9.064 18.436-6.091" stroke="#22A3DA" stroke-miterlimit="22.926"/></svg>