<svg width="131" height="85" fill="none" xmlns="http://www.w3.org/2000/svg"><path fill-rule="evenodd" clip-rule="evenodd" d="M48.99 74.653c.495.235 3.525-.955 4.174-1.226 1.538-.643 2.392-.912 4.005-1.504 1.579-.58.66-.127 1.932-.861.226-.13.367-.16.361-.406-.546-.18-2.236.513-2.811.748-2.195.893-4.598 1.641-6.677 2.476-.793.319-1.109.238-.984.773zm35.178-44.97l-.023-.57c-1.238.753-3.444 1.096-4.871 0l-.023.641c1.153 1.331 4.313.934 4.917-.071zm-47.15 48.769c-.255-11-.194-21.77-.198-32.753 0-1.115-.016-4.658.096-7.133.092-2.051.3-3.144 1.343-4.973.978-1.72 2.102-2.427 3.506-3.524.512-.4 2.247-1.085 2.916-1.266 1.718-.465 3.467-.923 5.194-1.407l6.36-1.863c1.398-.393 3.76-1.241 5.029-1.563.911-.231 1.688-.534 2.543-.788.86-.256 1.746-.592 2.571-.763.737-.154 1.822-.541 2.541-.793 1.973-.689 6.05-1.69 7.53-2.322l1.355-.348c.501-.072.928-.136 1.412-.21.69-.105 1.958.507 2.283.873-.085.263-.46.48-.427.89l-.002 7.123-1.705.016.013.848c.837.466 4.228.326 4.632-.054-.117-4.49-1.071-6.16-1.512-8.25.768-.033 2.2.022 2.988.094.89.08 2.027.106 2.96.107 5.657.006 40.791 1.365 41.211 1.604-.52 9.656-2.217 28.316-3.465 41.974-.269 2.956.191 3.004-1.45 2.87-3.167-.26-6.492-.415-9.675-.598-2.832-.163-8.326-.486-10.975-.787-3.572-.406-7.337-.412-10.96-.848-1.765-.213-3.738-.153-5.471-.386-1.37-.184-2.757-.237-4.1-.32-.43-.025-.771-.103-1.262-.138 1.384-1.347 1.01-4.856 1.11-6.649-.878.327-2.176.547-3.387.203-.369-.106-.675-.305-1.09-.141-.253.407.34.794.63.923.395.176.963.19 1.316.404.04 1.127-.085 3.32-.072 4.474.02 1.749-.133 1.713 1.858 1.9.454 2.363-2.918 4.64-6.815 6.076-9.196 3.39-24.355 9.353-33.083 11.645-2.618.688-4.743-1.163-5.356-3.374.455-.289 1.51-.553 2.098-.763.724-.259 7.256-2.79 7.403-3.296-.38-.231-4.709 1.454-5.253 1.642-.65.225-4.36 1.647-4.64 1.644zm53.508-22.853l.088-6.387c.061-2.184.126-4.454.123-6.637-.004-3.283.104-6.842.202-10.147.03-1.02-.009-2.144-.01-3.184.426-.099 6.217.235 7.282.27 3.736.123 7.456.443 11.209.426 1.744-.008 5.317.401 7.271.425.875.01 2.918.023 3.544.286.031 1.008-.139 2.36-.172 3.416-.218 7.056-.793 14.792-1.334 21.885-.02.26-.09.578-.02.822.11.386.366.16.152.556-.59.318-25.415-1.558-28.335-1.731zm-.89.705c.185.114 26.535 1.791 27.599 1.865 2.668.185 2.418.438 2.494-.995.032-.605.099-1.185.129-1.792.365-7.252.897-14.638 1.397-21.875.034-.49.309-3.346.231-3.5-.249-.485-.743-.261-1.387-.279-9.231-.254-18.104-.572-27.67-1.229-2.529-.24-1.966-.016-2.134 1.573-.107 1.015-.227 6.32-.212 7.506l-.448 18.726zm25.994-2.081c.276-4.258 1.002-14.91.956-18.958-.016-1.485-.052-1.441-.982-.583-.182.168-.632.521-.717.757-.182.505-.545 8.72-.558 9.323-.032 1.496-.517 7.137-.331 8.182.076.424 1.128.95 1.632 1.279zM84.198 31.061l.016-.486c-.51.205-.267.201-1.55.573-.72.209-1.67.135-2.382-.11-.791-.273-.904-.559-1.128-.301-.287.324-.167.503.103.692.51.358 1.128.754 1.832.768l-.091 20.062c.003.927.053 1.964-.01 3.16-.673.079-1.273-.615-1.292.527.433.356.645.486 1.397.476.401-.005 1.398-.143 1.91-.465.633-.397.492-1.944.488-2.606-.01-1.876-.01-21.488.008-21.506.42-.229.666-.475.699-.784zm39.584 28.76c.095.003.17.084.167.18a32.285 32.285 0 01-.252 3.027 17.19 17.19 0 01-.481 2.423.174.174 0 01-.215.12c-.364-.107.773-5.751.781-5.75zm-2.075-.143a.184.184 0 01.179.19 27.72 27.72 0 01-.23 2.97 16.564 16.564 0 01-.504 2.476.181.181 0 01-.227.124c-.03-.009.373-5.77.782-5.76zm-2.075-.142c.106 0 .192.089.19.196a23.981 23.981 0 01-.207 2.924c-.13.96-.312 1.82-.527 2.52a.192.192 0 01-.24.129c-.371-.115.711-5.77.784-5.769zm-2.074-.142c.111 0 .202.091.202.204.002 1.01-.067 1.99-.188 2.883a15.46 15.46 0 01-.548 2.558.202.202 0 01-.253.132c-.047-.015.334-5.777.787-5.777zm-2.077-.142a.213.213 0 01.215.21c.017.997-.047 1.965-.168 2.85a14.946 14.946 0 01-.568 2.59.212.212 0 01-.268.137c-.081-.028.68-5.786.789-5.788zm-2.075-.143a.222.222 0 01.227.218c.03.985-.03 1.943-.149 2.82a14.396 14.396 0 01-.588 2.618.22.22 0 01-.281.14c-.12-.04.398-3.287.542-4.888.022-.252-.059-.899.249-.908zm-1.836.081c.064.974-.011 1.925-.13 2.797a14.06 14.06 0 01-.608 2.641.231.231 0 01-.295.143c-.148-.051.493-4.467.583-5.028.121-.762.413-1.122.45-.553zm-2.318-.364c.046-.127.247.094.255.228.057.966.007 1.908-.111 2.775a13.615 13.615 0 01-.628 2.663.241.241 0 11-.455-.164c.683-1.926.463-4.19.939-5.503zm-2.076-.142c.046-.132.258.095.268.234.07.957.024 1.893-.093 2.756a13.175 13.175 0 01-.648 2.68.25.25 0 01-.321.151.253.253 0 01-.149-.324c.737-2.026.433-4.027.943-5.497zm-1.795.097c.199.931.042 1.88-.076 2.74-.14 1.03-.39 1.958-.667 2.697a.26.26 0 01-.335.153.263.263 0 01-.151-.337c.282-.755.635-3.45.817-4.7.021-.147.26-1.263.412-.553zm-2.36-.38c.106-.107.28.093.296.243.096.944.06 1.87-.057 2.725a12.395 12.395 0 01-.686 2.713.27.27 0 11-.503-.196c.32-.837.606-2.229.74-3.456.106-.975.069-1.889.21-2.03zm-2.077-.143c.658-.075.326 2.556.271 2.962a12.088 12.088 0 01-.706 2.726.278.278 0 01-.362.158.282.282 0 01-.156-.366 11.51 11.51 0 00.67-2.595c.091-.666-.125-2.838.283-2.885zm-2.078-.14c.087-.134.303.091.323.25.123.936.211 1.866.095 2.715-.055.396-.616 3.132-1.216 2.888a.293.293 0 01-.16-.38c.122-.302.487-1.25.624-2.268.189-1.395.155-2.932.334-3.206zm-2.079-.143c.098-.133.315.09.34.255.135.93.113 1.845-.004 2.694-.145 1.05-.433 2-.743 2.75-.063.154-.338.32-.39.163-.212-.646.344-1.242.541-2.996.097-.706.079-2.624.256-2.866zm-2.079-.14c.09-.146.326.087.354.257a9.13 9.13 0 01.015 2.685 11.107 11.107 0 01-.762 2.76.307.307 0 01-.404.166.313.313 0 01-.163-.409c.146-.345.466-1.523.624-2.678.174-1.278.186-2.537.336-2.782zm-2.078-.143c.158-.077.339.087.369.262.433 2.463.232 3.177-.749 5.448a.317.317 0 01-.418.166c-.183-.08.391-1.532.6-2.934.218-1.465.078-2.883.198-2.942zm-2.08-.14c.818.402.493 2.512.434 2.934a10.564 10.564 0 01-.799 2.781c-.073.167-.373.34-.432.167-.148-.433.589-2.624.68-3.478.133-1.268-.036-2.48.118-2.404zm-1.68.123c.189.918.185 1.824.068 2.667a10.328 10.328 0 01-.818 2.79.336.336 0 01-.446.168c-.007-.003.92-3.684.758-5.533-.057-.662.371-.414.437-.092zm-2.478-.404c-.001-.193.371.077.413.266a7.51 7.51 0 01.087 2.661 10.08 10.08 0 01-.836 2.799c-.057.123-.532.498-.413-.092.176-.871.763-3.728.749-5.634zm9.018-23.497c3.347.173 5.309.322 8.279.38.917.018 1.78.13 2.633.143 1.81.029 3.637.114 5.425.203.82.04 2.781.18 3.173.125.292-.042 1.366-.412 1.088-.988-.784.11-4.438-.142-5.354-.204-5.098-.343-10.232-.454-15.345-.751-.267-.059-.61.075-.637.251-.171 1.111-.252 8.285-.276 9.955a389.845 389.845 0 01-.319 9.386c-.051 1.161.277.962 2.418.98.917.008 1.74.126 2.634.146l11.527.638c1.172-.107 3.321.38 3.733.094-.048-.209-.339-.734-.554-.864-.266-.16-.664-.213-1.085-.212-2.528.007-5.159-.227-7.738-.273-3.365-.107-6.894-.576-10.203-.604.002-3.081.263-6.014.316-9.057.053-3.079.186-6.287.285-9.348zm-53.76.184l-.045 2.293c.006 1.06-.082 2.148-.049 3.199.033 1.034.035 2.143.048 3.203.01.806-.12 1.925.242 2.642.033.064.038.083.077.163l.058.12c.008.016.018.045.033.063.124-3.49.015-7.831.32-11.26 1.43-.71 5.368-1.514 6.896-2.018.263-.087.717-.236.912-.407-.218-.138-.746-.007-1.048.049-.334.062-.68.148-1.002.229l-6.442 1.724zM31.5 35.022c.25.15.708.19.843-.265.896-3.04 1.612-5.346 5.25-7.683.688-.442.588-.748.233-.95-.305-.172-.642-.238-1.333.223-2.418 1.614-4.402 3.619-5.187 8.037-.067.378-.154.428.194.638zm26.217 22.215c-.036.189-.396.42-1.155.525-.38.052-.855.012-1.283-.308-.2-.149-5.44-3.095-5.948-3.557l-.08-9.341 20.496 11.098c-.192.188-4.293 1.758-4.965 2.01-.797.298-1.77.535-2.568.847-1.986.776-5.59 1.932-7.666 2.582-.954.299-1.582.562-2.568.84-.85.24-1.744.666-2.554.875l-.109-4.663c.343.196.78.732 1.084.951.205.149.886.595 1.14.626.659.081.944-.063 1.481-.26.271-.099.719-.359.816-.54.178-.328.033-.807-.461-1.067.104.199.238.489.128.66-.117.183-.574.369-.8.47-.445.198-.86.332-1.317.13-.727-.32-1.416-.966-2.05-1.386l.001-3.468c.318.077 3.343 1.97 3.883 2.3.633.388 1.35.769 1.929 1.178.347.245.54.378 1.067.419.55.042 2.03-.117 2.201-.77.107-.406-.125-.57-.657-.873l-5.928-3.38c.124.228 2.922 1.784 3.745 2.377l1.572.914c.247.13.671.258.566.811zm9.358-23.42c1.307-.367 2.374-.86 4.03-1.091.178 1.586.163 21.986.025 22.212-5.194-2.71-15.908-8.39-21.887-11.523l-.01-1.651c.35-.038 4.178 2.092 4.726 2.42.801.477 1.559.83 2.4 1.248.8.399 1.575.874 2.334 1.315l4.727 2.57c.979.513 3.83 1.805 4.886 2.413l.11.734c.273.015.67.272.588-.98-.125-1.906.056-1.101-1.552-1.94-.406-.212-.832-.44-1.23-.632-2.096-1.017-3.893-2.16-6.036-3.281l-6.143-3.325c-.704-.362-2.322-1.365-3.018-1.644-.332-.132-.347-.174-.588-.343-.232-.163-.37-.232-.537-.394-.297-.288-.166-.213-.676-.322l-.018-.775c.387-.215.672-.206 1.086-.29.63.657-.141.098 1.023.663l8.273 4.146c.767.389 1.507.77 2.309 1.186l4.734 2.408c.303.208.623.27 1.177.605l.237.152c.292.249.253.857.743.682.567-.437.354-1.68.1-2.213-.678-.15-.279.337-1.125-.134l-11.505-5.808c-.348-.195-.64-.344-.99-.562-.344-.214-.67-.285-1.048-.505-.467-.273-1.809-.804-2.048-1.111.237-.155 2.32-.687 2.686-.733.239.175.073.128.36.293l10.265 5.023c.56.278 1.227.566 1.738.9.323.212.43.388.868.472.375.071.768-.016 1.08-.177.177-.528-.01-1.567-.318-1.844-.568-.019-.268.247-.768.139-.282-.062-.518-.232-.749-.337-1.774-.806-4.042-2.055-5.785-2.908-.837-.409-1.983-1.076-2.875-1.47-.357-.158-1.227-.571-1.41-.842.533-.145 1.179-.274 1.646-.433.856-.293.312-.078 1.555.392.68.257 3.087 1.497 4.333 2.037l2.886 1.46c.47.28 1.122.516 1.719.136.059-.29.042-1.366.034-1.726-.007-.311-.062-.525-.408-.474-.284.042-.322.307-.473.503-.655-.183-6.143-2.757-6.638-3.137.341-.174 2.142-.714 2.579-.732.181.488.524.436 1.023.666l2.453 1.118c.605.324.85.199 1.352-.053.015-.86.352-1.207-.073-1.926-.428-.033-.392.09-.696.246-.314-.17-.425-.205-.773-.34-.738-.288-.558-.318-.708-.483zm7.911 24.175c-.238.224-3.348 1.416-3.958 1.65-3.027 1.156-13.686 5.231-20.623 7.544-2.49.83-4.848 1.816-5.798 1.906l.078-32.952c.245-.099.744-.228.98-.272l16.348-4.748c1.87-.512 3.768-1.23 5.713-1.72.584-.145 1.317-.4 1.907-.577l5.9-1.642-.113 7.586c-.083 7.243.294 14.833.033 21.93-.022.572.058.922-.467 1.295zm-2.907-4.185c.153-7.464-.018-14.979.01-22.51l-23.377 6.79c-.186.46-.284 11.65-.278 13.156.009 2.146-.07 4.427-.131 6.565l-.135 4.918c.04.619.538 1.064.653 1.102.515.038 2.685-.84 3.324-1.035 1.146-.348 2.128-.806 3.22-1.12 2.251-.65 4.365-1.487 6.592-2.177l6.68-2.495c2.197-.75 3.393-.812 3.442-3.194zm3.858-27.82l-11.22 3.417c-1.188.37-2.586.79-3.837 1.078-1.174.271-2.572.698-3.72 1.067-1.225.394-2.55.686-3.822 1.074-2.47.753-5.02 1.427-7.517 2.168-.284.084-.614.17-.907.25-.891.244-1.46-.169-1.35.896.036.35.008.887-.015 1.251-.095 1.55.01 3.339.017 4.92.04 8.087-.049 16.182-.069 24.283-.009 3.646-.602 4.693 2.652 3.317 8.871-3.138 18.124-6.968 27.004-9.798l1.774-.63c.94-.411 1.434-.695 1.467-1.412.013-.28.013-.977.013-1.292-.013-5.651-.048-11.075-.03-16.733.006-1.629.08-3.255.072-4.842-.01-2.216.093-6.348.123-8.403.079-.529-.134-.706-.635-.61zm-8.144.894c.321.128 4.32-1.14 4.933-1.334l5.069-1.342c.11 8.824-.015 18.717-.18 27.529l.055 8.113c-2.174.824-5.1 2.147-7.294 2.837l-2.18.768c-1.508.617-2.921.994-4.414 1.553-.724.27-1.458.565-2.139.809l-2.207.738c-1.794.48-6.811 2.369-8.785 3.09-.757.277-1.413.497-2.207.742-.684.212-1.427.539-2.157.788-1.38.472-2.824 1.152-4.394 1.546l.013-8.514c-.001-1.053.07-2.11.063-3.201-.005-.58-.003-1.06.056-1.64.022-.224.195-1.011-.35-.963l-.265 9.552c0 5.03-.35 5.694 1.181 5.115l3.324-1.255c1.572-.552 12.497-4.573 13.427-4.8.742-.181 3.604-1.248 4.535-1.59l14.302-5.294c.074-3.776.043-6.705.03-10.424-.017-5.198 0-10.6.073-15.796.069-3.285-.102-6.624-.081-9.915.003-.47.036-.386-.328-.292-.067.069-7.828 2.16-8.983 2.665-.653.285-1.02.157-1.097.515zM45.887 10.449c-.191.056-.237.107.172.34.75.426 4.466 2.402 5.05 2.662.102.044.255-.077-.18-.325-1.433-.818-2.804-1.65-4.24-2.466-.435-.248-.345-.345-.802-.211zm9.702 6.65c-.192.056-.237.107.172.34.75.427 4.466 2.402 5.05 2.662.102.045.255-.076-.18-.324-1.433-.818-2.804-1.65-4.24-2.467-.435-.247-.345-.345-.802-.21zm-12.244-6.088c-.187.07-.175.133.234.366 1.47.836 3.099 1.77 4.569 2.605.439.25.557.263.77.183.105-.039.256-.076-.18-.324-1.433-.819-3.093-1.777-4.529-2.593-.435-.248-.589-.34-.864-.236zm10.27 6.713c-.191.056-.237.107.172.34 1.47.836 3.1 1.77 4.569 2.605.439.25.557.263.771.183.104-.038.05-.19-.18-.324-1.425-.833-3.094-1.777-4.529-2.593-.436-.247-.345-.345-.803-.211zM11.623 23.64c.151.064.43-.075.49-.44.375-1.928 2.138-6.212 5.42-7.885.59-.301.516-.464.238-.659-.225-.132-.36-.1-.99.228-1.963 1.023-4.288 3.962-5.26 7.608-.2.75-.21 1.016.102 1.148zm2.491 1.43c.144.078.434-.032.532-.39.317-1.995 1.852-6.167 5.276-8.02.583-.316.464-.519.167-.682-.239-.107-.368-.059-.96.335-1.817 1.207-4.033 4.139-5.001 7.603-.209.747-.311.99-.014 1.153zm2.617 1.496c.144.079.434-.032.532-.389.509-1.846 2.164-5.994 5.271-7.996.558-.36.464-.518.167-.681-.239-.107-.368-.058-.96.335-1.817 1.207-4.029 4.113-4.996 7.578-.209.748-.312.99-.014 1.153zM14.051 13.8c-2.861 1.459-5.047 5.686-4.695 8.155.39-2.891 3.28-7.08 5.96-7.968.795-.263.726-.435.262-.596-.592-.206-.966.122-1.527.409zm-1.384-1.35c-2.498.663-5.077 3.911-5.82 6.321-.171.558-.526 1.85-.152 2.073.33.197.35-.17.534-.881.697-2.701 2.671-5.756 5.826-6.991 1.66-.65.398-.73-.388-.521zm-1.882-.95c-2.333.153-5.057 3.152-5.484 5.795-.18 1.115-.331 3.868.051 1.863.427-2.241 2.51-6.583 5.986-7.382 1.504-.345-.058-.308-.553-.275zM49.28 9.336c-.1.035-.237.107.172.34 1.47.836 3.26 1.746 4.73 2.582.439.25.557.263.771.183.104-.039.255-.076-.18-.324-1.434-.819-3.255-1.754-4.69-2.57-.435-.248-.522-.31-.803-.21zm-21.94 6.18c-.456.109-.706.25.039.677 1.368.787 2.745 1.605 4.114 2.391.827.476 1.126.21 1.47.108.258-.076.459-.29.12-.484-1.445-.83-3.048-1.762-4.496-2.586-.659-.374-.7-.235-1.247-.105zm2.76-.778c-.52.121-.592.202.188.645l3.59 2.041c.989.564 1.19.682 1.86.453.235-.082.057-.343-.33-.51l-3.93-2.174c-.77-.437-.916-.564-1.377-.455zm2.346-.67c-.164.046-.467.115.037.401 1.47.835 3.117 1.768 4.586 2.604.44.25.607.24.823.166.288-.085.448-.113-.075-.41-1.435-.816-3.048-1.729-4.484-2.545-.452-.257-.615-.293-.887-.216zm2.054-.569c-.196.051-.26.207.021.382 1.47.836 3.156 1.779 4.625 2.614.44.25.607.24.823.167.287-.085.447-.113-.076-.41-1.434-.816-3.086-1.74-4.52-2.555-.454-.258-.6-.27-.873-.198zm2.05-.59c-.19.06-.036.245.182.35 1.47.835 3.099 1.768 4.568 2.604.44.25.559.263.772.184.104-.04.255-.077-.18-.325-1.434-.819-3.095-1.777-4.53-2.593-.435-.248-.5-.317-.811-.22zm1.86-.522c-.197.05-.055.211.19.351 1.469.836 3.098 1.77 4.568 2.606.438.25.557.262.771.183.104-.039.255-.076-.18-.325-1.434-.818-3.094-1.776-4.53-2.593-.435-.247-.57-.286-.82-.222zm2.273-.647c-.186.07-.175.132.235.365 1.47.836 3.099 1.77 4.569 2.606.439.25.557.262.77.183.105-.039.256-.076-.18-.325-1.433-.818-3.093-1.776-4.529-2.593-.435-.247-.589-.34-.865-.236zm6.932-1.928c-.192.057-.237.108.172.34.75.427 3.783 1.895 4.367 2.155.86.381-2.87-1.79-3.737-2.283-.435-.248-.345-.345-.802-.212zm3.924 8.402c-.192.056-.238.106.172.34 1.47.835 3.1 1.769 4.569 2.605.439.25.557.263.77.183.104-.039.051-.19-.18-.325-1.425-.832-3.094-1.776-4.529-2.593-.435-.247-.345-.345-.802-.21zm-2.025.494c-.192.056-.237.107.172.34 1.47.836 3.099 1.77 4.569 2.605.438.25.577.292.79.212.104-.038.116-.18-.2-.353-1.444-.797-3.093-1.777-4.529-2.593-.435-.247-.345-.345-.802-.211zm7.71-2.179c-.192.056-.237.107.172.34.75.427 3.335 1.715 3.919 1.974.101.046.255-.075-.18-.323-1.434-.82-1.673-.964-3.109-1.78-.436-.248-.345-.345-.802-.211zm1.542-.436c-.192.056-.238.107.172.34.75.427 4.755 2.53 5.34 2.788.1.045.254-.075-.181-.324-1.433-.818-3.094-1.777-4.529-2.593-.436-.247-.345-.345-.802-.21zm1.6-.448c-.192.056-.237.107.172.34 1.47.836 3.26 1.746 4.73 2.582.44.25.557.263.771.182.104-.038.255-.075-.18-.323-1.433-.82-3.255-1.754-4.69-2.57-.435-.248-.345-.345-.803-.211zm-12.719 3.583c-.192.056-.237.107.172.34 1.47.836 3.1 1.77 4.569 2.605.439.25.58.286.794.206.103-.039.126-.162-.203-.347-1.438-.811-3.095-1.777-4.53-2.593-.435-.248-.344-.346-.802-.211zm-2.06.58c-.298.085-.482.096.021.383 1.47.835 3.156 1.778 4.625 2.614.44.25.63.253.846.183.11-.035.424-.13-.099-.426-1.434-.817-3.085-1.74-4.52-2.556-.453-.257-.598-.265-.873-.197zm-26.812 7.968l.33.164c.146.073.433-.032.53-.388.488-1.767 2.023-5.64 4.876-7.725.377-.275.925-.738.512-.98-.229-.136-.483-.384-1.075.01-1.817 1.206-4.249 4.354-5.216 7.819-.147.524-.4.88.043 1.1zm2.164 1.263c.252.132.948.606.756.395-.615-.672 2.476-7.077 5.445-8.565.488-.244.37-.611.13-.756-.34-.204-.57-.29-1.089.057-1.812 1.213-4.317 4.304-5.285 7.768-.146.525-.395.87.043 1.1zm22.61-8.643c-.153.043-.483.096.02.383 1.47.835 3.118 1.767 4.587 2.603.44.25.627.256.846.194.171-.047.425-.14-.098-.437-1.435-.816-3.048-1.73-4.484-2.545-.452-.258-.752-.223-.87-.198zm-2.34.681c-.48.1-.614.172.166.615l3.59 2.042c.99.563 1.19.681 1.86.452.235-.081.094-.296-.33-.509l-3.93-2.174c-.769-.438-1.03-.49-1.356-.426zm-2.742.798c-.448.122-.734.207-.001.628 1.368.787 2.745 1.605 4.114 2.39.61.351.956.294 1.122.207l.445-.127c.19-.052.635-.108.024-.456-1.449-.824-3.049-1.762-4.497-2.585-.638-.363-.685-.198-1.207-.057zm-2.744 3.094c-.397-.272-.676-.28-1.368.237-1.922 1.44-4.527 4.798-5.065 7.955-.1.587.196.685.384.792.198.111.672.445.85-.374.792-3.632 2.557-6.077 4.854-7.64.565-.384.648-.762.345-.97zm-2.06-1.232c-.431-.264-.681-.273-1.42.354-2.306 1.96-4.104 4.023-4.896 7.805-.13.62.091.794.279.896.252.136.58.366.781-.52.622-2.726 2.587-5.756 4.777-7.385.825-.614.877-.905.478-1.15zm-2.009-1.16c-.4-.249-.783-.17-1.532.396-2.348 1.782-4.099 3.75-4.69 7.812-.102.71.116.877.4.992.21.086.573.346.723-.515.66-3.76 2.023-5.29 4.641-7.463.831-.69.897-.948.458-1.222zm-2.197-1.235c-1.226-.657-3.653 2.427-4.389 3.399a10.818 10.818 0 00-1.935 4.095c-.127.525-.273 1.18.135 1.436.323.203.416.257.835.504.424-4.014 2.438-6.66 4.906-8.398.112-.078.227-.151.338-.23.386-.277.565-.561.11-.806zm40.014-4.409l4.583-1.39-.373-.189-4.296 1.3c-.415.132-.98.403-1.721.01-.131-.074-.32-.424.325-.628l4.4-1.332-.495-.249c-1.411.427-5.119 1.541-5.873 1.337-.31-.168-.25-.355.751-.657l3.931-1.28-.652-.328-4.06 1.219c-.722.217-1.475.243-1.727.113-.153-.082-.458-.39.541-.69l4.085-1.226-.743-.375-3.69 1.104c-.93.278-1.724.414-2.091.18-.278-.176-.286-.353.565-.608l4.115-1.23-.867-.437c-1.455.442-5.065 1.563-5.716 1.266-.522-.238.505-.551 1.32-.794l3.352-.998-.997-.502-3.941 1.168c-.828.245-1.196.335-1.687.09-.384-.193.172-.43.947-.66l3.693-1.095-1.122-.565c-1.36.44-4.774 1.658-5.493 1.272-.265-.143-.278-.32.502-.55l4.052-1.195-1.26-.634c-1.334.426-4.672 1.57-5.389 1.267-.64-.27.033-.403.832-.637l3.67-1.077-1.4-.705c-1.36.433-4.569 1.539-5.34 1.231-.534-.212.049-.354.74-.556l3.761-1.097-1.548-.78c-1.32.422-4.593 1.535-5.214 1.235-.455-.22-.159-.303.533-.504l3.892-1.128-1.697-.854c-1.357.436-4.448 1.52-5.16 1.194-.384-.174-.004-.3.606-.474l3.806-1.096-1.625-.819c-1.457.323-4.755 1.24-5.29 1.06-.454-.15.05-.302.64-.47l3.713-1.061-2.172-1.094c-2.317-1.166-7.845.661-9.867 1.143-.92.218-3.573.684-4.144 1-.125 2.279.764 2.634-1.496 3.324-1.778.543-2.687.623-3.857.546-1.822-.12-2.809-.153-4.487-.96-.447-.216-.427-.295-.441-.562-3.883.93-11.184 2.269-15.644 3.614-4.618 1.394-5.662 3.477-5.843 8.531-.226 6.277-.005 16.23-.116 23.144-.058 3.667-.294 8.505-.157 12.102.084 2.186-.048 4.152 1.196 6.194.628 1.03 1.65 1.944 2.353 2.338l9.014 5.199c.83.4 2.904 1.738 3.881 2.25 2.07 1.08 5.684 3.216 7.753 4.436l2.563 1.476c2.127 1.234 4.229 2.602 6.358 3.814.464.265 1.114.617 1.506.856-.231-.831-.435-1.496-.423-2.106.188-10.224-.484-30.067.297-40.093.323-4.154 1.734-6.223 5.289-8.654.675-.461 2.666-1.343 3.406-1.559l9.051-2.664c.835-.263 1.75-.45 2.607-.725 2.554-.822 5.137-1.505 7.694-2.306.84-.264 1.746-.53 2.567-.764.413-.118.79-.27 1.238-.401l6.442-1.944c2-.588 2.933-.98 5.151-1.172l-3.664-1.845c-1.62.49-3.432 1.012-5.037 1.5-.648.196-1.791-.226-.906-.794zM31.624 6.658c-.038-.362-.299-1.558-.008-2.247.122-.291.555-.492.801-.502.097 1.51.198 2.252.07 2.346-.1.073-.373.32-.863.403zm-5.383-.846c.007.293.005.675-.007 1.063a6.315 6.315 0 01-2.51-.764l-.01-1.772c.767.324 1.485.51 1.976.619.589.131.535.231.551.854zm1.005-4.555c1.045-.104 3.399-.065 4.28.641.61.488.22 1.176-.442 1.513-1.099.56-2.375.62-3.235.62-.742 0-3.987-.28-3.662-1.634.176-.733 2.047-1.04 3.06-1.14zM22.99 5.725c-.794-.059-9.793 2.243-11.558 2.562-.576.105-5.748 1.343-6.586 1.635C2.348 10.792.908 14 .811 16.494.639 20.88.725 25.569.673 30.005c-.038 3.135-.033 6.232-.08 9.37C.47 45.272.009 51.741.41 57.582c.141 2.05 1.526 3.98 3.203 5.072 1.212.788 2.443 1.476 3.717 2.179 1.987 1.095 3.956 2.334 5.903 3.494l8.87 5.189c1.91 1.14 4.018 2.383 5.898 3.495.98.58 1.93 1.214 2.933 1.802.989.58 1.897 1.177 2.914 1.75 1.065.598 2.06 1.297 3.15 1.913 2.894 1.631 3.621 2.04 4.97 1.774 1.724-.34 1.36-.228 2.327-.539.206.41-.002.302.404.519.605.323 1.696.281 2.382.105 2.035-.47 1.24-1.159 1.466-2.24l26.626-10.023c.037.57.15.907.751.975.646.072.99.057 1.59-.113 1.262-.358 1.105-.88 1.054-2.138 3.05-1.27 4.815-2.36 5.103-5.72.123-.305 5.191.266 5.86.31 1.862.125 3.859.213 5.7.411 1.886.203 3.858.214 5.771.422.953.104 1.894.146 2.845.238 6.222.6 15.728 1.047 21.414 1.6 1.815.177 1.856-1.15 1.942-2.523.875-13.904 2.597-32.866 3.542-43.701.055-.632-.402-.903-1.027-.93-13.445-.562-33.17-1.45-46.69-1.642-1.164-.016-.737-.157-1.423-.468-.256-.116-.433-.083-.597-.334l-.137-.336a.605.605 0 00-.211-.255c-.791-.582-3.906-2.014-4.906-2.546-1.541-.82-3.462-1.788-5.038-2.49L50.335 2.57C48.848 1.819 47.317.962 45.65.713c-.997-.15-1.816.07-3.418.465-1.39.343-8.678 2.062-9.094 2.029-.023-.5-.187-1.383-.645-1.627C30.386.457 27.143.195 24.936.985c-.518.186-1.2.515-1.448.802-.56.65-.541.64-.521 1.747.014.752.034 1.434.023 2.191zm27.536 42.16c.194.213.36.2.74.424L55.872 51c2.138 1.163 4.095 2.503 6.06 3.649.97.565 1.005.8.585 1.064-.747.468-1.112.322-1.465.31-.342-.011-3.686-1.817-4.282-2.181l-4.233-2.444c-.195-.116-.42-.188-.616-.316-.213-.139-.355-.355-.611-.229.655.695 7.7 4.57 9.236 5.58.683.45 2.16.004 2.775-.78.224-.284-.076-.588-.282-.796-.363-.366-5.407-3.098-6.242-3.619-1.658-1.035-2.893-1.614-4.698-2.754-.2-.125-1.15-.775-1.364-.72-.193.05-.102.019-.209.122zM85.44 21.968a.457.457 0 01.226-.602.45.45 0 01.597.228c.761 1.689 1.122 3.482.943 5.337-.308 1.061-.494-.952-.88-2.637-.29-1.264-.826-2.193-.886-2.326zm41.169 1.772c.02.618-.022 1.115-.081 2a57.672 57.672 0 01-.296 3.134.173.173 0 01-.193.151c-.312-.04.115-2.898.143-3.308.048-.721.384-3.35.427-1.977zm-2.236-.292c.037.628.007 1.325-.042 2.212a48.85 48.85 0 01-.267 3.106.189.189 0 01-.211.165c-.332-.042.078-2.859.102-3.291.034-.624.332-3.672.418-2.192zm-2.469-.457a.205.205 0 01.221.188c.055.638.048 1.512.011 2.401a41.858 41.858 0 01-.24 3.079.204.204 0 01-.227.18.206.206 0 01-.178-.23c.081-.658.243-5.604.413-5.618zm-2.261-.103a.22.22 0 01.242.196c.073.652.082 1.529.056 2.418a36.703 36.703 0 01-.212 3.049.221.221 0 01-.246.194.223.223 0 01-.192-.248c.097-.796.126-5.584.352-5.61zm-2.263-.103a.235.235 0 01.265.202c.091.666.116 1.546.102 2.436a32.337 32.337 0 01-.186 3.02.237.237 0 01-.262.208.237.237 0 01-.206-.263c.1-.842.048-5.57.287-5.603zm-2.262-.103a.25.25 0 01.287.209c.11.68.151 1.563.149 2.453a28.621 28.621 0 01-.162 2.992.251.251 0 11-.498-.06c.104-.89-.031-5.552.224-5.594zm-2.264-.103a.267.267 0 01.311.214c.129.694.186 1.58.196 2.472a25.71 25.71 0 01-.137 2.963.265.265 0 01-.294.236.267.267 0 01-.234-.297c.108-.943-.112-5.536.158-5.588zm-2.263-.102a.282.282 0 01.334.218c.333 1.59.313 3.812.131 5.424a.282.282 0 01-.311.251c-.098-.01-.665-5.785-.154-5.893zm-1.757.12c.192.82.379 6.389-.39 5.641-.389-.379-.19-3.745-.287-5.103-.088-1.232.639-.702.677-.537zm-2.995.06a.315.315 0 01.224-.384c.166-.044.474.075.518.243.193.753.609 5.747-.321 5.644-.293-.033-.156-4.474-.421-5.504zm-1.637-.258c.219.783.963 5.795-.011 5.69-.272-.029-.442-3.71-.693-5.164-.178-1.033.619-.829.704-.526zm-2.897.101a.346.346 0 01.227-.43.343.343 0 01.428.23c.238.787.972 5.311.046 5.695-.282.118-.375-4.417-.701-5.495zm-2.268-.076a.363.363 0 01.23-.456.358.358 0 01.452.232c.254.782.416 1.679.499 2.576.042.455.239 2.576-.292 2.975-.3.225-.547-4.271-.89-5.327zm-2.267-.077a.373.373 0 11.706-.248c.278.8.46 1.697.554 2.592.05.464.26 2.243-.093 2.943-.273.54-.81-4.26-1.167-5.287zm-2.265-.075a.393.393 0 01.228-.505.389.389 0 01.5.23c.302.82.503 1.717.61 2.61.114.946.15 1.574.064 2.434-.225 2.217-1.113-3.983-1.402-4.77zm-2.451-.1c-.194-.501.744-.775.937-.275.294.755 1.434 4.734.392 5.49-.388-1.339-.695-3.585-1.33-5.215zm-2.082-.054a.426.426 0 01.229-.552.419.419 0 01.547.231 11.377 11.377 0 01.795 5.35c-.68.738-1.148-3.996-1.571-5.029zm-2.437-.108a.438.438 0 01.112-.464c.238-.204.695-.229.858.148.371.863.632 1.754.778 2.65.147.9.178 1.805.091 2.694-.025.272-.418.716-.516-.142-.35-3.065-1.034-4.214-1.323-4.886zm-7.529 41.726c.13-.267.143-.49-.175-.61-.246-.092-.505-.088-.665-.007-.226.115-.337.177-.584.272-2.822 1.081-5.436 1.922-8.21 2.957-2.069.772-4.248 1.667-6.32 2.363-.597.176-3.292 1.114-3.73 1.404-.25.166-.408.839.66.424.432-.167.904-.232 1.302-.397.867-.358 1.736-.468 2.562-.858 1.14-.539 2.623-.958 3.829-1.372.425-.149.863-.254 1.312-.385.434-.126.863-.364 1.28-.508l6.327-2.279c.63-.231 2.176-.515 2.412-1.004z" fill="#22A3DA"/></svg>