<svg width="117" height="67" fill="none" xmlns="http://www.w3.org/2000/svg"><path fill-rule="evenodd" clip-rule="evenodd" d="M59.268 9.61c5.805-.446 8.626 3.464 10.886 8.062 1.68 3.415 2.299 12.547 1.788 16.337-1.037 7.7-6.215 22.04-15.428 22.717-5.155.38-8.82-4.094-10.597-8.424-1.803-4.393-2.303-11.306-1.69-15.98.599-4.57 2.357-10.24 4.477-14.356 1.82-3.533 6.4-8.034 10.564-8.355zm53.961 55.686c.151-1.593.319-5.582.093-7.05-.259-1.679.069-5.298.164-7.149.245-4.816.36-9.64.624-14.451.396-7.195.588-14.573.853-21.802.041-1.112.204-2.546.159-3.601-.068-1.582.096-1.271 1.356-2.09-.222 9.631-.638 19.287-1.008 28.914l-.793 21.498c-.083 2.542.426 4.029-1.448 5.73zm-1.295.12c-2.387-.231-7.276-2.135-9.809-2.94-3.223-1.027-6.433-2.092-9.648-3.141-6.324-2.064-12.78-4.566-19.092-6.485-2.037-.619-1.302-2.963-1.3-4.96.003-2.112 0-4.224-.01-6.336-.01-2.049-.07-4.225.1-6.259.161-1.923.49-3.612.411-5.572-.168-4.163-.507-7.717-.459-11.958.045-3.96-.065-8.085.138-12.026l42.002 4.615c.119.433-2.012 50.083-2.333 55.061zm3.594-56.733c-.985 1.35-3.138.723-4.56.547-2.051-.255-14.963-1.48-15.118-1.673l19.678 1.126zM2.085 6.677c.548-.184 21.372.973 23.92 1.096 3.807.182 8.273.705 11.979.686 2.83-.015 3.017.421 2.863 3.203-.107 1.908.066 3.987.113 5.919.391 16.043.648 32.381.512 48.423-2.824-.436-7.106-1.837-10-2.63-3.31-.909-6.671-1.719-9.963-2.675l-14.74-4.176c-4.263-1.21-3.508-.672-3.617-2.525-.476-8.072-.527-16.169-.895-24.232a1102.98 1102.98 0 01-.5-11.954c-.069-1.956-.204-3.957-.227-5.906-.016-1.348-.892-4.742.555-5.229zm39.802 1.78c2.898-.466 6.742-.633 9.738-.862 3.3-.253 6.539-.636 9.85-.826l7.397-.469c1.102-.058 1.525-.483 1.648.723.091.89.13 10.12-.01 10.31-1.932-3.497-3.881-6.772-8.009-7.946-3.947-1.123-8.602.86-11.181 3.864-3.51 4.086-4.014 5.076-5.833 10.184-1.528 4.289-2.62 8.817-2.313 13.413.348 5.187.413 8.459 2.816 13.194 1.833 3.612 4.587 6.618 8.73 7.31 4.043.673 7.983-1.984 10.2-5.128 1.319-1.868 2.034-2.805 3.122-4.888.258-.494 2.377-5.491 2.413-5.475.163.15-.108 8.104-.122 9.425-.018 1.536-.38 1.088-1.322 1.92-.606.535-7.507 3.472-8.89 4.12-1.538.72-17.482 8.473-17.662 8.262l.275-.01-.847-57.12zM3.309 6.095c.52-.24 7.113-.518 7.578-.254.98.557 2.23.534 3.358.485 1.558-.067 1.77-1.026 2.961-1.182 1.958-.257 5.681-.328 7.694-.286 8.074.17 16.265.14 24.344.538l16.074.38c-2.156.426-5.41.428-7.717.607-2.539.198-5.093.37-7.635.537-5.31.346-9.927.768-15.269.515-3.157-.15-30.944-1.106-31.388-1.34zm9.879-4.66c1.601-.723 2.68 3.182.471 3.651-2.136.454-2.58-2.697-.471-3.65zm103.689 7.271c-2.006-.483-4.912-.452-7.064-.622-2.388-.188-4.779-.313-7.163-.535-7.042-.657-14.603-.95-21.744-1.56-1.181-.1-2.687-.067-3.75-.21-1.313-.176-1.518-.955-2.551-1.306-1.417-.482-5.102.251-6.648.614-1.43.335-5.862.068-7.622.043-12.513-.183-25.006-.702-37.564-.869-1.026-.013-6.676.618-7.05.311-.644-.528 1.003-4.096-3.08-4.258-2.663-.106-2.762 2.891-2.159 4.769-2.393.034-5.132.364-7.56.535-4.056.286-2.687.79-2.5 4.563.252 5.05.39 10.16.714 15.192.324 5.039.44 10.217.603 15.272.121 3.748.33 7.644.41 11.376.021.992-.169 2.983-.062 3.716 3.065 1.345 6.934 2.193 10.212 3.121l20.868 5.769c2.578.71 7.906 2.755 10.228 1.823 2.747-1.103 6.256-3.01 9.053-4.32 3.018-1.41 6.02-2.858 9.036-4.275 2.68-1.258 6.45-3.321 9.053-4.314 2.297-.877 7.3 1.474 9.742 2.328 6.61 2.309 13.253 4.519 19.892 6.742 3.373 1.13 6.686 2.198 10.033 3.408 4.968 1.797 5.063-3.009 5.028-6.41-.085-8.114.569-17.264.929-25.458.187-4.268.327-8.53.458-12.8.126-4.147.483-8.53.258-12.645zm-64.471 43.92c1.977.487 4.456 1.316 6.48.76 2.371-.652 3.008-1.734 4.81-2.864-2.52 4.081-7.593 6.004-11.29 2.104zm-4.747-7.712c.766.2.792.663 1.026 1.316.205.568.487 1.099.734 1.643-1.266-.65-1.477-1.713-1.76-2.96zm-.92-4.417l.389.186.224 1.596c-.37-.015-.436-.318-.492-.652-.062-.366-.171-.765-.12-1.13zm2.106 4.28c.234-.346 11.64-3.77 13.545-4.355.002 0 5.653-1.77 3.823-.744-1.42.796-10.735 3.606-13.462 4.498-.712.234-4.231 1.927-3.906.601zm16.235-5.743l-.002.029c-.006.089-12.735 3.994-14.469 4.566-.782.258-1.917.994-2.094.21-.418-1.848-.596-3.5-.791-5.337-.115-1.078.813-1.02 1.84-1.273 2.297-.568 2.678-1.034 5.055-.465 1.9.455 9.32 1.658 10.461 2.27zm-18.499-1.522l.344.04.08 1.651-.363-.143c.01-.483-.15-1.158-.06-1.548zM66.76 31.71c-1.046.58-8.091 2.133-9.783 2.57-.527.137-11.55 2.985-9.087 1.714.78-.402 8.447-2.147 9.903-2.489.43-.1 11.29-3.082 8.967-1.795zm-19.175 3.971l.967-6.866.222.063 16.351 2.202-.008.088-17.532 4.513zm18.152-12.245c1.914.018-6.764 1.71-7.553 1.859-1.892.355-7.12 1.601-8.661 1.64-.214.007-.505-.768.78-.873l6.602-1.138c2.02-.383 7.054-1.505 8.832-1.488zm-16.003 2.285c.456-1.244.876-2.523 1.433-3.725.402-.867 3.138-.084 4.022.032 1.291.169 8.498.94 8.98 1.215l-14.435 2.478zm-1.476 2.05c-.507-.34.362-.86.45-1.923.026-.309-.017-.356.072-.71.102-.407.844-2.357 1.136-2.484.263.23.04.541-.322 1.254-.04.078-.967 3.222-1.336 3.863zm3.307-6.687c3.047-5.246 6.915-9.417 13.174-5.183 4.16 2.814 5.961 11.332 5.45 15.997-.562 5.14-2.255 12.007-5.555 16.117-1.44 1.793-3.829 3.977-5.982 4.845-2.377.957-5.982-1.087-7.233-3.055 1.765.932 1.965 2.279 4.687 2.542 1.634.158 5.646-.901 5.212-1.92l-2.023.856c-.009-.09 2.367-1.396 2.775-1.673.434-.294 2.351-1.913 1.956-2.434l-2.631 1.986c.008-.005 2.356-2.453 2.65-2.792.345-.4 2.295-3.069 1.635-3.351-.208.01-1.043 1.541-1.256 1.845-1.22 1.737-3.322 3.49-5.099 4.578-5.58 3.418-7.66-1.95-8.95-1.76l.291 1.46-1.408-2.865L66.75 40.87c.944-1.76.512-2.07-.921-2.44-1.873-.481-10.71-1.95-11.49-2.4 1.288-.307 12.937-3.141 13.181-3.102.077-.615.284-1.533.18-2.117l-18.857-2.314.251-1.014 12.541-2.213c.985-.168 3.606-.46 4.324-.687.582-.184 1.066-.811.845-1.443-.212-.606-1.378-.438-2-.508-1.507-.17-3.032-.284-4.53-.47-1.773-.22-7.42-.66-8.71-1.079zm8.657-9.265c1.86.004 4.848 2.08 6.1 3.41 1.023 1.084 3.482 4.867 3.312 6.295-.103.855-1.423-2.361-1.504-2.512-.64-1.2-.934-1.893-1.977-2.861-2.082-1.934-4.028-2.744-6.894-2.558-3.662.237-6.568 2.989-8.466 5.935-.116.18-1.825 3.34-.962 1.382 1.447-3.283 6.548-9.099 10.391-9.09zm.727-.711c-9.468.045-14.171 12.916-15.367 20.49-.922 5.834-.772 9.296 1.281 14.856 1.505 4.072 4.326 8.227 8.948 9.017 9.255 1.583 13.814-13.434 15.09-20.167.966-5.098.918-10.593-.795-15.543-1.382-3.996-4.465-8.659-9.157-8.653zm44.759 28.097c.968-.23.633-.685 1.164-.968l-.204 1.116c-.66.123-.23.134-.627.495-.144.13-.407.367-.547.463l.214-1.106zm.191-1.845c.441-.256.227.013.609-.444a4.63 4.63 0 01.47-.466c-.229.625.207.478-.405 1.062-.544.52-.4.617-.75.74l.076-.892zM87.555 15.287c8.425-.966 15.878 8.681 17.182 16.223 1.528 8.841-.719 19.405-10.88 21.412-8.632 1.705-15.12-8.93-16.83-16.063-1.096-4.566-.837-9.905 1.134-14.22 1.548-3.388 5.544-6.91 9.394-7.352zm18.129 17.034c-.105-.18-.405-1.857-.5-2.238-.173-.7-.052-.513.117-1.16.093-.356.046-.79.248-1.092.397.4.295 1.674.331 2.24.042.68.178 1.67-.196 2.25zm-2.701-7.656c.108-.135.701-.65.914-.765.147.455.469 1.037.624 1.568.079.27-.259 1.468-.419 1.626l-1.119-2.429zm-.837-3.49c.543.469 1.101 1.477 1.454 2.207l-1.018.462c-.349-.497.043-.077-.081-.664-.081-.38-.174-.31-.412-.5-.155-.123-.25-.353-.412-.498-.215-.193-.259-.114-.491-.392l.96-.615zm-1.805-.353c.512.056.852-.316 1.116-.645.231.242.362.306.448.636-.191.091-.407.102-.624.183-.278.104-.299.212-.567.26l-.373-.434zm.925-.84c-1.502 1.137-1.847-.12-3.075-1.193-.43-.377-3.117-2.275-3.127-2.291 1.115-.21 5.786 2.231 6.202 3.484zm-11.03-6.15c-2.672 0-4.6.648-6.722 2.22-1.63 1.208-3.733 2.617-4.85 4.296-2.426 3.648-3.71 10.22-2.885 14.479.8 4.129 2.669 9.573 5.486 12.743 3.283 3.694 6.551 6.711 11.909 6.167 5.518-.56 8.203-2.538 11.484-6.741 3.116-3.993 3.458-9.538 2.894-14.368-.478-4.09-2.915-9.479-5.513-12.693-3.159-3.907-6.687-6.106-11.803-6.104zm-52.437 24.71c-.321.445-1.295.874-.633 1.659.138.079 3.33-.056 3.343-.06.862-.328.6-2.496.264-3.158-.22-.43-2.255-1.147-2.82-1.206-1.032-.108-.168 2.027-.154 2.765zM13.288 2.79c-.322.12-.003.133-.2.137-.302-.323-.448-.599-.951-.487-.266.528.441.968.832 1.28.585.467.6 1.091 1.319.628.067-.546-.183-.375-.386-.891-.173-.444-.328-.227-.614-.667zm76.939 32.503c.182.488.34.637.869.716.29-.295.596-.818.663-1.245.292-1.857-1.423-1.907-1.384-1.011.012.271.188.357.156.748-.035.447-.2.347-.304.792zm-50.37 12.78c-.773.25-.105 1.35.607 1.072.516-.202.49-1.425-.606-1.071zm-.494-38.605c-.213.091-.615.369-.575.595.065.36.52.477.829.465.92-.035.355-1.318-.254-1.06zM4.478 40.989c.247-.713-.07-1.198-.551-1.115-.293.05-.092.013-.21.115-.018.015-.058.068-.074.085-.23.244-.255.074-.224.4.016.166.121.277.227.373.275.249.488.276.832.141zm-.53 12.731c-.111.6-.028 1.005.592 1.202.72-.477.221-1.676-.592-1.202zm35.557-28.171c-.006.954.753 1.278.983.6.111-.328.098-.567-.208-.75-.355-.214-.505-.06-.775.15zM2.136 7.862c-.542.175-.263 1.356.528 1.054.622-.237.018-1.23-.528-1.054zm37.859 56.034c-.592.451.146 1.243.62.937.615-.398-.07-1.356-.62-.937zM2.909 22.51c-.587.283-.01 1.301.523 1.066.52-.23.13-1.38-.523-1.066zm86.166 11.287c.069.627.169.825.603 1.252.405-.191.57-.517.634-.96-.36-.392-.79-.763-1.237-.292z" fill="#22A3DA"/></svg>