<svg width="87" height="85" fill="none" xmlns="http://www.w3.org/2000/svg"><path fill-rule="evenodd" clip-rule="evenodd" d="M54.874 53.085c-.065.614.806.867 1.308.982l-.017-.961c-.4-.071-.988-.235-1.29-.02zm-.415 5.587c.643.267.688.269 1.101.48l1.241-.447-2.277-1.014c-.581-.298-1.003.007-1.601.11-.419.072-.77.105-.82-.289.14-.142.867-.24 1.067-.346l-1.69-.78.023 6.944a859.94 859.94 0 014.608-1.506c-.9-.468-2.384-1.476-2.853-1.4-.434.129-.56.246-1.158.277.011-.343.323-.425.82-.614l2.187-.77c-.565-.373-.903-.75-.648-.645zm2.044.913l2.63 1.221 1.475-.486c-.313-.198-2.472-1.093-2.63-1.167-.05-.006-.942.268-1.475.432zm-.702.232c-.776.247-1.207.4-1.296.464l2.35 1.304 1.411-.491-2.465-1.277zm-10.389-6.863c-.32.383-.712.536-1.22.14-.644-.5-.36-3.957-.075-4.27.46-.506 1.026-.794 1.625-.168.229.24.93 2.175 1.122 1.166.062-.324-.106-1.127.517-.945.318.093.166.805.287.978.07.1.442-.013.692-.407.246-.387.2-.307.193-.867l-.003-6.301c.01-1.376.072-7.433-.066-8.341-.256.031-.23.095-.578.03-.279-.506-.294-1.406-.31-2.04.136-.157.314-.252.632-.215.08.106.076.11.12.203.226-.162.07.023.145-.232l.002-1.537c-1.585.317-3.328.922-4.978 1.315-2.658.633-5.25 1.384-7.884 2.075-.134 1.517-.008 3.696-.009 5.349 0 1.823.025 3.647.021 5.47-.007 3.664.01 7.345.025 11.009.027 6.296.132 12.885.088 19.178-.005.768-.038 1.963.054 2.683.52.001 2.541-.769 3.212-.99.814-.268 9.432-3.033 9.609-3.261l-.014-1.502c-.678-.131-.675-.272-.64-1.291.01-.246-.006-.718.077-.894.137-.29.317-.24.561-.353l-.023-13.677c-.605-.042-.657-.057-.66-.65-.005-.85-.211-1.29.23-1.461l.386-.137c.027-1.138.024-1.997-.162-2.456-.052-.13-.628-.068-.679.063-.092.24-.059.992-.569.713-.11-.061-.06-.339-.111-.421-.112-.181-.255-.152-.376-.038-.395.373-.809 1.567-1.24 2.082zm.751-2.333c-.003-.359-.787-1.701-1.138-1.668-.523.05-.486.517-.507.869-.056.948.045 2.311.081 2.514.037.209.272.32.484.147.385-.316 1.084-1.413 1.08-1.862zm2.554 23.855c-.538.069-.977-.016-1.18-.347.171-.158.936-.405 1.168-.42l.012.767zm6.178-30.817l.714.197s.115.07.216-.109c.039.392.011.201.377.349-.012-1.722-.018-.766-1.012-1.185-.21-.088-.065-.107-.298-.197l.002.945zm5.28-2.22c.385.205.594.1.904.156l.33.117c.031.006.264.015.364.026.108-.453.123-1.463-.376-1.232-1.107.511-.18.028-.864.084-.303.024-.042.09-.38-.023.017.31-.016.437.022.873zm.054 3.983c.472.116.891.302 1.553.488.066-.213.087-.697-.051-1.164-.315-.04-.572-.184-.818-.162-.679.061-.183.03-.663-.196l-.02 1.034zM34.486 5.245l6.643-1.356c.935-.237 1.045-.04 1-1.562-.012-.437.072-.72-.18-1.066-.257-.353-1.236-.65-1.836-.695-.42-.03-6.724.915-8.465 1.427-.564.166-.625.378-.071.748.607.406 1.31.679 2.043.691 1.555.027 7.724-1.696 8.1-1.374.084.072.05.06.025.319l-6.612 1.498c-.741.2-2.237.286-2.936-.043a5.049 5.049 0 01-1.037-.65l.049 1.015c.073 1.19 1.78 1.23 3.277 1.048zm7.856-1.317l-.375.356.015 1.798 9.603 2.545.08.553c6.383 1.633 14.182 3.447 20.457 5.354.523.187.385.678.403 1.295.294.355.78.649.917 1.244.113.49.029 1.435.027 2.008-.003.902-.129 3.424.047 4.13l3.457.264c2.078.126 4.955.315 6.98.332 1.3.01 1.807.101 2.034.278.184.144.649 1.06.617 1.321-.037.307-.01.764-.037 1.07-.112 1.244-.106 3.86-.144 5.227l-.391 36.122c-.464.31-.734.183-1.454.145-.543-.028-1.043-.072-1.593-.107-2.094-.13-4.266-.35-6.338-.433-.841-.034-2.518-.186-3.369-.205.008.596-.029 1.605-.007 2.066.013.286-.117.293-.433.403l-3.374 1.372c-1.077.363-.286.484-.776.822-.004.003-2.216.66-2.55.772-.857.286-1.044-.054-1.515.01-1.89.26-6.49 2.199-8.624 2.87-2.582.812-1.547.755-1.97 1.28-.085.107-2.575.865-3.108 1.076-.863.34-.382-.473-1.686-.02l-11.648 3.99c-.678.212-.573.521-.892.804-.265.234-2.296.951-2.627.88-.304-.064-.38-.311-.717-.237l-3.091 1.102c-.304.117-.36.287-.668.327-.395.052-.55-.193-.824-.216-.252-.02-.53.112-.95.045-.693-.111-3.052-1.921-3.844-2.411-.884-.547-1.684-1.101-2.523-1.657L8.89 72.305c-1.79-1.102-5.78-3.654-7.593-4.909-.19-.13-.478-.304-.61-.429-.14-.134-.257-.519-.28-.737-.051-.505.077-1.393.103-1.93.057-1.15.081-4.965.019-6.238-.026-.53.073-1.357.069-2.004-.02-2.49.09-5.531.094-8.17.006-5.486.033-11.05.011-16.41-.01-2.765.031-5.478-.022-8.24l-.038-6.234c.05-.493.3-.316.259-.726-.036-.35-.113-.5-.053-.932l17.416-3.663.008-1.482c-.041-.581.218-.596.618-.767l-.016-2.193c-.036-1.4 2.885-1.831 4.287-1.612 1.021.16 2.566.448 2.696 1.784l-.014 2.544 2.095-.506.027-2.244 1.218-.433c.018-.61.043-1.063.015-1.676-.035-.779-.005-.843.33-.936.27-.075.538-.138.843-.21.032-.56-.163-1.801.294-2.012C31.849 1.395 37.742.331 40.11.251c.809-.027 2.275.217 2.57 1.102.1.299.057.496.099 1.097.043.637-.005 1.022-.437 1.48zm-1.117.508l-1.92.392a.71.71 0 00-.059.097c.379.137.817.384 1.131.584l-.023 3.433c.373-.05.747-.45.803-.593.117-.299.076-.955.082-1.313.012-.626.088-2.071-.014-2.6zM34.48 5.825l.085 3.527 1.314-.167-.085-3.542-1.314.182zm-1.36.267l-.935.025c-.099 1.163-.04 2.377.058 3.5l.918-.13-.042-3.395zm-.154 6.827l.01 1.878-.847.109-.012-1.88.849-.107zm19.56-2.934c.079.073 18.443 4.833 19.543 5.222-.36.384-26.589 7.07-31.908 8.424-1.431.377-10.2 2.634-10.974 2.51-8.557-3.266-17.125-6.533-25.666-9.838-.242-.094-1.082-.435-1.287-.611l.348-.168c2.258-.568 15.15-3.338 15.662-3.29.106.995-.037.63.665 1.073l.003 1.493c-.153.132-.176.099-.33.23-.402.346-.365.5-.356 1.048l.009.537c1.684 1.506 7.5 1.33 8.424-.092l-.002-.576c-.002-.535-.023-.582-.405-.955l-.371-.361-.066-4.082 2.113-.512.002 1.671-1.349.336-.013 1.134c.496.471 5.216 3.37 5.49 3.442.528.139 5.415-1.51 6.295-1.737.057-.445.002-.878-.091-1.037-.196.264-.122.427-.162.828-.912.357-4.59 1.286-5.568 1.413l-.01-.644 4.942-.903c.142-.256.12-.892.118-1.25.998.035 1.5.333 2.904-.203.594-.227.645-.235 1.008-.658.374-.437.263-.652.447-1.228l3.047 1.02 6.586-1.847.052-.536c.274-.017.529.163.9.147zM41.18 9.85l.026 2.012c-.143.31-.045.776-1.445 1.056-.645.129-1.683.232-2.115-.238l.007-2.349c.935.33 2.986-.001 3.527-.48zm-15.405 5.24c.548.415.783.42.196.875-1.48 1.146-4.433.958-5.757.617-.312-.081-1.02-.4-1.41-.636-.524-.317.094-.69.478-.878 1.368 1.405 5.073 1.297 6.493.022zm-.582-.459c-.773 1.326-4.56 1.174-5.658.006l-.004-1.133c.314.038.969.286 1.223.24.02-.004.817-.56.823-.566.196-.204.125-2.504 0-2.739-.188-.357-.447-.364-.994-.584-.472-.19-.613-.265-1.064-.49V8.102c1.635 1.338 5.19.552 5.655.024.003.537.021 6.5.02 6.504zm-6.306-4.408c.527.156 1.09.171 1.423.655.086.126.142.541.136.866-.009.387-.024.786-.034 1.174-.459.006-1.218-.277-1.552-.44-.033-.32-.006-1.934.027-2.255zm.902-3.363c.07-.61 1.183-.9 2.205-.958.749-.042 2.315.186 2.908.633.515.387.582.996-.378 1.336-1.028-.964-2.97-1.144-4.735-1.011zm19.855-1.067l.046 3.183c-.406.25-1.778.597-2.567-.054l-.014-2.797c.945.09 1.578-.002 2.535-.332zm-7.547 6.814l.007-.98.863-.072c-.009.22-.008.808-.011.978l-.859.074zm2.299-1.213l-.034 1.06-.956.068.013-1.068.977-.06zm-3.722-.202l.81.47.033 1.023a3.138 3.138 0 01-.865-.446l.022-1.047zm-2.689 1.324l3.28 2.671c-.77-.216-2.87-1.362-3.678-1.848-.76-.459-.797-.564-.82-1.015l1.205-.3.013.492zm5.402-2.55l.984-.111-.002 1.196-.952.056-.03-1.14zm-1.305.188l.86-.122.023 1.055-.863.077-.02-1.01zm5.07 3.351l-.01.357c-.461-.226-1.018-.514-1.464-.62.256.3.715.648 1.233.968-.173.115-3.176.547-3.51.539l-.008-1.833 1.04-.063c.2.369.187.356.4.439l.013-.605c.846-.109.842-.083 1.068-.22-.362-.127-.632-.053-1.053-.057l.017-1.069 1.035-.147c.068.371.053.613.235 1.34.15-.489.18-1.183.19-1.377.234-.047.23-.143.337-.239l-.204-.052c.017-.458.05-.74.059-1.164.551-.002.577-.355.652 1.556.032.792-.03 1.491-.03 2.248zm7.95-1.803l-.01-.874 6.026-1.665-.008.99c-.312.119-5.27 1.42-6.008 1.55zM34.828 9.827l1.055-.077.018 1.138-1.054.157-.019-1.218zm-3.301 1.322l-.808-.437.04-1.004.747.412.02 1.03zm-2.72-1.425c.182.145 1.462 1.206 1.462 1.231l-.003.97-1.417-.919c.04.293 1.124 1.148 1.391 1.268l.004 1.102c.262-.275.35-.512.473-.745.262.146.508.34.742.51l-.015 1.565c-.29-.086-1.702-1.218-2.151-1.54-.327-.236-.54-.396-.673-.565-.286-.359-.22-.754-.166-1.977.036-.798-.006-1.596-.01-2.394.249.076.634.401.84.517l-.002 1.183c-.112-.024-.219-.114-.475-.206zm1.508.67l-.65-.318.007-1.014.642.385v.948zm11.66-3.734l8.663 2.246-5.73 1.448c-.462-.02-2.393-.672-2.988-1.003l.055-2.69zM30.388 5.525c.302.042.81.415.997.612l-.025 3.376-.982-.676c.035-1.033-.03-2.275.01-3.312zm36.237 16.943c-.372.077-.564.179-.92.273-.301.08-.601.117-.906.188-.59.137-1.127.329-1.707.464-1.73.402-5.113 1.344-6.889 1.866-1.49.438-3.165.906-4.679 1.249l-.245-.258c-.43-.454-4.354.797-4.563.963-.255.203-.202.36-.395.611-.208.273-9.594 2.671-10.547 2.79-.009-.407.022-.51-.156-.827-.228-.018-2.031.223-2.195.856-.131.505.03 8.106.034 9.005.02 4.088-.035 8.185-.017 12.27-.38.19-3.12.884-3.671 1.006-.064-2.03.039-4.053.03-6.075-.01-2.024.037-4.014.05-6.023.017-3.065-.013-6.067.08-9.14.027-.911-.049-2.183.05-3.025.666-.322 2.462-.706 3.33-.914 1.073-.257 2.287-.605 3.346-.805 1.465-.424 3.037-.785 4.497-1.14a7711.348 7711.348 0 0027.174-7.03c.48-.127 4.383-1.124 4.52-1.108.012.96-.05 1.92-.034 2.875.01.632.003 2.217-.107 2.711l-1.84-.109c-.7-.38-1.005-.678-1.264-1.05-.016-.402.06-.97-.06-1.276-.315-.134-.712.023-1.062.115-.957.253-1.105-.09-1.144.786-.034.76-.244.543-.71.752zm-14.419 4.31l3.612-.93a55.695 55.695 0 003.675-.913l7.27-1.904v-.001c.008-.084.018-.156.03-.207-.095.093-.201-.158-.03.207v.007c-.16.664.086 1.874.09 2.558.015 2.472.08 5.437.02 7.822-.12 4.76-.114 10.987-.02 15.856.065 3.367-.063 7.166-.02 10.593.017 1.454.132 3.844-.063 5.208-2.56.99-5.203 1.654-7.547 2.52-1.252.463-2.608.793-3.808 1.273-.52.207-3.376 1.165-3.835 1.194-.006-.487-.031-.691-.022-.866 1.62-.801 5.385-1.819 7.136-2.48 1.779-.67 3.663-1.23 5.38-1.835.727-.255 1.455-.467 1.486-1.359.128-3.86-.114-31.383.05-37.3.021-.745-.28-1.196-.62-1.562-.466-.502-.99-.507-1.742-.286-1.269.373-2.501.664-3.789 1.017l-7.615 1.945c-.088-.22-.007-.174-.15-.396l.512-.16zm11.866-7.465c1.063-.255 8.144-2.052 8.608-2.306-.06-.255.077-.013-.166-.25-.475-.465-.641-.19-2.137.173-.908.22-1.799.457-2.695.652-1.745.378-3.555.967-5.29 1.375-9.922 2.474-19.958 5.224-29.884 7.486l-2.657.629c-.09.37-.128.357.032.706 11.449-2.655 22.782-5.725 34.19-8.465zm10.335 5.6c1.557.13 11.087.591 11.216.718.345.34-.315 18.833-.269 22.187.021 1.517-.091 2.974-.047 4.489.04 1.406.032 7.67-.054 8.897.003.744.012 5.815-.131 6.055-.141.094-.223.047-.472.026-2.322-.195-5.606-.342-7.954-.478-1.11-.064-7.893-.43-8.376-.59-.232-.65-.121-18.714-.11-20.96.018-3.49.093-6.975.09-10.456-.002-1.78.044-8.79.365-10.095.467-.055.452-.081.978-.044 1.563.112 3.203.12 4.764.25zM60.246 28.5c.242.103.01-.175.294.044.019.015-.038.004.1.106.103-.067.13-.107.235-.126.428-.08-.019-.028.283.05l.506.187a2.777 2.777 0 00-.09-1.53c-.247.14.017-.057-.121.12l-.107.155c-.01.015-.02.04-.035.057-.143-.393-.6-.398-1.048-.34-.08.31-.08.96-.017 1.277zm-3.883 4.992c.026-.572.02-.607-.193-1.038-.452-.151-.712-.33-1.275-.466-.09.227-.088.552-.034.798.062.279.192.317.458.38.109.027.255.04.359.069l.5.171c.323.098-.209-.016.185.086zm4.091 1.342c.276.1.474.163.689.21.284.063.13.014.384.12.154.065.133.086.339.101l.025-.939c-.185-.132-1.141-.504-1.411-.516l-.026 1.024zM38.2 32.325c-.208-.037-.626.134-1.283-.5l1.1-.275c1.231-.309 7.549-2.068 8.896-2.306.257.564 1.273.132 1.57.084l.011.34c-3.324.955-6.914 1.773-10.294 2.656zm12.21-5.438c.49-.033.827.135.74.63l-1.075.21c-.256-.235-.465-.471-.91-.406-.442.066-.384.216-.554.577-.08.171-.072.147-.319.219-.742.216-.756.244-.938.134-.201-.122-.248-.315-.298-.476.202-.113 3.006-.865 3.354-.888zm-21.824-.15c.11.144.052.35.036.59-.53-.078-2.86-1.003-3.517-1.273-5.682-2.335-11.584-4.346-17.24-6.735-1.706-.72-3.428-1.318-5.117-2.102-.288-.133-.576-.227-.798-.39-.114-.083-.288-.193-.38-.26-.302-.225-.085-.353.08-.329l2.622 1.041c.423.196.97.38 1.4.546 7.639 2.97 15.277 5.934 22.914 8.912zm1.054 56.116a123.44 123.44 0 01-.053-3.531c.008-4.297.15-8.82.104-13.017-.043-3.849.11-8.076.05-11.98-.005-.347-.02-.57.052-.64.069-.068 3.238-.96 3.621-1.094l.04 14.13c-.004 1.025-.166 9.775-.016 10.375.061.249.276.278.492.417l.653.464c.523.393.628.348 1.075.36.478-.572-.252-.142 1.217-.693 1.39-.52 2.946-.905 4.32-1.404.838-.304 5.1-1.867 5.737-1.852.932 1.528 1.813.726 3.352.235.92-.319.81-1.3.707-1.667.26-.155.416-.041.562-.25.133-.188.056-.545.162-.799.076-.094 1.1-.352 1.275-.404.424-.127.848-.3 1.24-.43l7.447-2.42c1.644-.519 3.357-1.16 4.995-1.617.78-.218.776-.403 1.27-.235.94.32 3.906.34 4.452.38.046 1.368.178 1.72-.643 2.002L30.824 83.142c-.487.157-1.165.473-1.184-.289zm21.995-11.465l.008-.38c.047-.05 14.689-5.153 15.268-5.195-.059.055.028.329-.063.388-1.256.362-2.417.877-3.646 1.27-2.657.852-5.08 1.745-7.692 2.593-.624.203-1.3.4-1.93.642-.526.201-1.404.574-1.945.681zm7.977-9.612c.014 0 3.984 1.988 4.172 2.15-1.033.423-1.741.705-2.807 1.048-1.042.336-9.174 3.095-9.435 3.11l-.033-3.579c2.652-1.018 5.392-1.877 8.103-2.73zM28.313 83.768l.043-30.62.83.417-.012 3.878c-.043 3.908-.015 7.587-.099 11.563l-.078 14.492c-.203.2-.272.364-.684.27zm32.32-22.282l4.121-1.286c.048.45.086 2.835-.01 3.194-.502-.195-3.824-1.704-4.111-1.908zm.696-3.52l2.83 1.18-2.497.852-2.87-1.205 2.012-.624c.28.345.465.757.525-.203zm-6.277-.768c1.087-.37 1.993-.654 2.681-.819.355.127 1.89.773 2.561 1.115-.255.126-2.31.796-2.523.822-.062.019-2.512-.985-2.72-1.118zm-3.39-1.512c.543-.159 2.181-.706 2.788-.703.284.002 1.285.427 2.458 1.051-.082.05-2.465.785-2.658.817-.13-.001-1.505-.611-2.193-.97l-.395-.195zm-.679-26.17c.04 1.775-.02 3.575 0 5.355.057 5.24.007 10.73.006 15.994 0 3.536.04 7.057.064 10.594.012 1.772-.025 3.556-.017 5.33.008 1.715.06 3.639-.046 5.332l-.82.335-.162-42.496c.064-.416.336-.23.975-.444zm.47 24.214l1.768.736-1.776.564.008-1.3zm13.381-4.044l-.048 8.717c-.32-.045-2.698-1.003-3.142-1.188-2.84-1.18-5.61-2.36-8.545-3.547-.467-.212-.81-.294-.828-.359-.008-.031.663-.218.712-.233 2.534-.79 10.655-3.446 11.851-3.39zm-4.086-1.333c.05.008.023-.428.023-.627l2.908 1.131c-1.115.325-2.55.804-3.16.924l-3.462-1.25 3.162-.771c.184.187.393.57.53.593zm-3.834-2c.822.28 1.608.554 2.43.832l-3.08.99-2.744-.98c.485-.2 2.616-.708 2.867-.7l.516.434.011-.575zm-.761 4.624c-.4-.062-2.828-1.298-2.861-1.059-.04.18 1.36.855 1.97 1.406-.538.17-3.5 1.022-3.784.974-.125-.378-.086-7.03-.057-7.907.307.047 4.15 1.407 4.332 1.558l-3.704 1.11 3.248 1.398c-.36.151-1.484.454-1.667.555-.845.466 1.775-.015 2.427-.16.537.147 2.016.892 2.986 1.382-.193.134-2.65.78-2.89.743zm-4.683-8.523l13.393-3.78-.062 9.571-13.363-4.734.032-1.057zm8.884-5.211l.007-.47c.554.187 2.397.808 3.235 1.168-.986.174-1.545.485-2.67.71l-3.274-1.149c.498-.249 1.83-.606 2.173-.675.206.148.523.859.53.416zm-8.89-3.565c.304.006 2.835.922 3.455 1.138.825.286 1.038.186 1.413.874.188.01.137.046.31-.04l.149-.16c.47.138 1.298.474 1.938.715-.32.197-1.094.407-1.53.574-.71.273-.894.363-1.627.096l-2.382-.818c-.26-.102-.532-.267-.8-.187-.145.61.71.621 1.24.92l1.34.613c.127.094.02-.009.12.125-.347.109-.698.223-1.073.312-.75.177-.558.658-.322.672l1.337-.359c.589-.175.89-.39 1.525-.118l2.74 1.17c-.248.195-3.754 1.029-3.803 1.026-.403-.03-1.245-.55-1.621-.695-.773-.299-1.22-.608-1.655-.455-.1.498.547.617.93.815.465.242 1.115.436 1.22.653-.234.163-2.564.75-2.925.778l.02-7.649zm-23.08-4.532c-.033-.981.367-.997.887-1.139-.197 4.323-.084 23.274-.044 24.755-.258-.15-.627-.391-.824-.501.097-7.623-.162-15.693-.02-23.115zm5.666 47.423c-.154-.284-.15-4.374-.146-4.725.024-1.843.006-3.761-.011-5.608a842.362 842.362 0 01-.019-11.286c.016-3.715.089-7.487.045-11.217-.01-.93-.14-10.423-.069-11.152.292.04.484.183.77.284-.17 1.516-.025 3.761-.006 5.398.022 1.845-.028 3.698-.006 5.54.044 3.682-.001 7.393-.014 11.078-.014 3.644.068 7.4-.005 11.008-.073 3.644.07 7.396-.134 11l-.404-.32zm1.275-46.162l-.025.985c-.23.094-1.265.443-1.454.447l-.012-1.004 1.49-.428zm-8.37 22.002c-.251.009-10.019-4.145-11.301-4.693-.81-.355-1.586-.648-2.381-1.025l-3.578-1.487c-.336-.145-.974-.507-1.28-.395-.036.31.37.406.974.677l17.602 7.78-.018 28.792c-7.497-4.622-15.34-9.125-22.639-14.01-.614-.412-.986-.675-1.597-1.048-.63-.385-.827-.65-1.411-.925a35.215 35.215 0 01-.072-2.332l.068-15.44c.01-2.04-.09-4.236.011-6.254.297.033.577.242.86.353.581.229 1.074.483 1.669.7.96.35 2.36 1.088 3.36 1.416.247.08.306.053.49.017-.6-.457-5.443-2.407-6.382-3.086-.115-1.863.01-4.046-.003-5.955-.012-2.01.006-4.016.012-6.024.008-2.805.072-6.16.023-8.931-.013-.754-.147-2.158-.013-2.802.49.03 2.585.98 3.322 1.26 1.154.438 2.218.923 3.331 1.328 1.968.714 18.468 7.047 18.886 7.453l.067 24.63zm29.485-25.5c.462-.28 3.856-1.051 4.63-1.24.544-.123 2.76-.728 3.123-.652.354.073.578.393.707 1.176.18 1.095.003 4.324.011 5.7.013 1.924-.022 3.727-.006 5.647-4.455-1.53-8.908-3.06-13.421-4.63-.24-.95.23-3.4-.182-3.706l-.267-.06c-.18-.032-.437-.073-.564-.366.506-.174.665-.236.736-.268.543-.24.462-.438.579-.544.105-.057.304-.03.741-.134l2.008-.498c.459-.043.132-.015.317.065.123.053.144.074.3.115.334.089.954.265 1.29.285l-.002-.89zm12.54-5.477c-.014.498.054.83.171 1.06.296.578.903.507 1.317.816-.164.374-1.748.573-1.999.459l-.41-.564c.431-.077.719-.062.765-.492-.438-.15-.597.125-.967.005-.054-.352-.113-.767-.02-1.097l1.142-.187zm-8.797 30.782c.25.187.82.3 1.139.444.378.171.627.122.497-.698-.09-.572-.536-.322-1.266-.384-.132-.224-.09-.236-.383-.27.013.332-.01.562.013.908zm-.049 3.389c.205.175 1.31.574 1.669.688.019-.812.186-1.195-.938-1.235-.48-.021-.264-.194-.706-.234l-.025.781z" fill="#22A3DA"/></svg>