<svg width="99" height="81" fill="none" xmlns="http://www.w3.org/2000/svg"><path fill-rule="evenodd" clip-rule="evenodd" d="M36.494 78.256c-.411.041-3.986-2.132-4.464-2.49-1.314-.983-1.064-.93-1.073-3.001-.058-14.789-.23-29.964.058-44.755.375.013 5.668 2.46 6.047 2.463l-.568 47.783zm43.661-39.344l-.044 3.309c-.093.65.043 1.294-.746 1.58l-17.682 5.905c-.464.038-.662-.175-.663-.6l-.012-4.826c.05-.553.046-.905.904-1.27l17.28-5.495c1.146-.346.981.022.963 1.397zm7.802 11.624l.049-3.494c.016-1.183-.188-1.48.908-1.853l2.103-.8c.759-.275.6.3.622 1.407.028 1.393-.072 3.019.05 3.776.784-1.046.564-4.72.573-5.712.004-.428-.176-.904-1.02-.632-.958.308-2.293.938-3.247 1.236-.903.282-1.079 1.043-1.102 1.977-.028 1.156-.162 5.3 0 5.797.35 1.084 2.053.063 3.01-.296.415-.155 1.264-.396 1.59-.651.604-.474.47-.89-.386-.64-.563.165-1.383.492-2.141.767-1.21.44-1.025.274-1.009-.882zM75.852 36.053c.365.192.15.175.62.166.2-.244.271-.517.425-.696.076-.089.48-.37.63-.512.202-.191.417-.318.48-.646.06-.313-.007-.545-.17-.678-.5.158-1.022.308-1.526.448-.014.052-.03.111-.046.181-.11.476-.433 1.377-.413 1.737zM63.728 40.36l.236-.36c.4-.006.505.23.73-.232.081-.166.415-1.379.495-1.674.071-.262.02-.399-.425-.258-1.132.357-1.052.053-1.363 1.034-.198.618-.493 1.36.094 1.565l.233-.075zm1.79-.538c.16-.268.283-.608.463-.846.135.081.248-.11.365-.026.093.066-.167.785.377.43.097-.758.638-2.376-.367-2.053-.857.276-.872 1.074-1.333 1.921-.192.353-.15.57.096.691l.4-.117zm3.221-2.64c-.24-.205-.33-.37-.494-.469l-1.026.335c-.06.12-.101.269-.12.501-.032.427-.084 1.311-.026 1.736l.595-.302c.274-.433.054-.811.6-.987-.03.36-.174.343-.022.77.148.053.262.086.352.101l.312-.1c.082-.125.12-.353.272-.66.436.085.27.253.813.197.166-.375.326-1.855.018-2.172l-.758.25c-.221.303-.4.699-.516.8zm4.437-2.108c-.124.106-.296.196-.599.202l-.592.199c-.041.06-.121.139-.29.242-.255.158-.323.062-.404-.01l-.513.17-.27 2.287.14.039.42-.139.49-.919.362.637.16-.053.422-.426c.197.062.366.098.512.112l.702-.238c.326-.412.216-1.116.418-1.785.222.02.427-.146.5-.062.298.337-.372 1.154.344 1.352.284.078.335-.588.413-.919.04-.162.015-.671.26-.772.484-.2.728-.663.388-.788-.07-.025-2.56.77-2.863.871zm16.605 11.513c-.534.328-.93.275-.977 1.197-.033.652.4 1.3 1.013 1.102.279-.09.857-.79.903-1.283.053-.57-.46-1.309-.94-1.016zm-12.723 2.595l-1.972.726c-.898.45-.136 1.29.66.79.641-.404.9-.502 1.695-.719.98-.267.48-1.137-.383-.797zm5.569.006c-.268.163.145.031-.316.213-.124.049-.462-.06-.805 1.001-.383 1.186 1.68 2.08 2.126.041.171-.778-.48-1.572-1.005-1.255zm-12.48 4.298c-.346.28-.757 1.194-.5 1.808.213.508 1.095.844 1.565.543 1.018-.654.705-1.95 0-2.347-.224-.127-.84-.185-1.065-.004zm-6.11 4.3c.591-1.843-1.854-2.16-2.178-.723-.549 2.44 1.802 1.897 2.178.723zm11.283-3.589c.446.627 1.32.457 1.8-.032 1.097-1.122.434-2.544-.483-2.523-1.123.025-2.058 1.513-1.317 2.555zm12.793-23.841c-.204.124-.451.074-.654.105-.16.024-.606.346-.621.377-.077.298-.123 1.542.307 1.594l.496.06c.156-.103.082-.17.365-.244l1.349-.131c.841-.27 1.142-.618 1.57-.599.678.03.546-.68.546-1.475 0-.727.168-.904-.793-.505-.498.206-2.499.777-2.565.818zm-.365 25.584l3.425-1.32c.76-.293.8-.159.903-1.021.249-2.096-1.934-.133-2.384-.088-1.208.121-2.939.263-2.767 1.922.075.727.2.747.823.507zm-5.74 2.376l.267-.829c.66.697 1.09.374 1.89-.047.211-.11.852-1.794.706-2.054-.359-.334-.792-.268-1.074.065-.581.684-.01.06-.883.408-.104.041-2.006.685-2.158.707-.855.122-1.215 1.399-.98 1.974.214.527 1.86.015 2.233-.224zM61.96 65.34c1.375.487.607.147 1.538-.047.114-.025 1.574-.312 1.574-.312.736-.285-.225-.45.002-1.436.203-.882-.913-.913-.96-.88l-.524.88c-.026.004-1.12.07-1.356.095-.23.023-1.22.399-1.322.482-.861.705-1.41.807-1.294 2.478l2.02-.566.322-.694zm8.396-3.253c1.355.699.93.091 1.736-.064.5-.096 1.553-.055 1.74-.62.72-2.177-1.25-2.54-1.726-.947-1.097-.288-.721-.117-1.48.162-.514.188-.753-.253-1.233.306-.776.904-1.67.444-1.616 1.823.405.403.805.659 1.537.348 1.155-.49.518-.1 1.042-1.008zM87.78 40.303c.03-1.393-.097-4.164-.016-4.687.11-.715.307-.927 1.496-1.253 1.83-.503 1.781-.703 1.79 1.581l-.01 2.662c-.001.64.077 1.356-.283 1.535l-2.425.8c-.43.137-.564-.094-.552-.638zm-.298 1.808c.888-.23 2.475-.708 3.433-1.118.68-.29.904-.426.898-1.448l-.029-5.49c-.006-1.122-.306-1.28-.899-1.094-.737.231-2.877.843-3.359 1.096-.617.325-.638 1.202-.574 2.88.028.719-.003 3.305.016 4.55.002.116.08.736.514.624zm-6.7 10.894l.048-3.494c.016-1.182-.187-1.48.908-1.852l2.008-.685c.928-.315.812.164.834 1.271.029 1.393-.062 3.293-.066 3.797.9.008.878-2.49.969-3.554.119-1.375.312-3.143-1.417-2.79-.888.181-2.293.938-3.246 1.236-.903.282-1.08 1.042-1.102 1.976-.028 1.157-.162 5.3-.002 5.798.351 1.083 2.054.063 3.012-.296.414-.156 1.263-.396 1.59-.651.603-.474.47-.89-.387-.64-.563.164-1.383.492-2.14.767-1.211.44-1.025.274-1.01-.883zM60.845 33.2c-.894-1.204-1.273-2.404-1.638-2.45-.41-.053-1.313.36-1.046.93.51 1.09 2.052 3.325 1.998 3.494-.234.733-.532 1.502-.837 2.319-.184.494-.31.681.428.405.292-.108.629-.172.885-.317.253-.142.443-.314.49-.489.277-.906.58-1.865.856-2.713.372-1.147 1.63-4.023 1.77-5.003.036-.26-1.037.019-1.425.452-.448.502-1.045 2.297-1.481 3.372zm8.153 24.049c.002-1.476.035-3.492.005-4.458-.016-.519.182-.868.656-1.037.724-.26 1.675-.66 2.413-.847.902-.228.839.05.837.969a122.695 122.695 0 01-.079 3.98c-.022.576-.063 1.001-.601 1.283-.586.306-1.667.698-2.455 1.04-.834.362-.777.015-.776-.93zm3.54-7.423c-.86.22-2.348.714-3.167 1.024-.739.35-1.381.54-1.322 2.158-.083 1.228.049 2.48-.017 3.71.054 1.933-.316 2.533 1.012 2.67.29.06 2.637-.91 3.166-1.118 1.189-.465 1.37-.881 1.445-2.326.063-1.223.013-2.735.038-3.978.023-1.133.328-2.52-1.155-2.14zM61.022 60.648c.025-1.171.086-2.434.052-3.622-.063-2.218-.297-2.12 1.736-2.761 1.445-.348 2.3-1.33 2.186.958-.046.921.002 3.163.204 4.234.716-.523.86-4.286.767-5.898-.043-.752-.477-1.237-1.32-1.153-.25.025-2.236.735-2.996.96-1.344.4-1.59.823-1.611 1.687l-.016 6.566c.022.296-.03.607.065.889.092.27 1.898-.48 2.583-.766 1.605-.67 3.13-2.242 1.21-1.472l-2.016.81c-.746.299-.862.424-.844-.432zm-6.671-24.186c1.945-1.294 2.828 1.671-.13 2.202l.13-2.202zm-.233 3.199c.593-.166 1.292-.375 1.806-.524.351-.215 1.04-.417 1.35-1.236.37-1.028.176-2.097-.262-2.648-.527-.66-1.953-.359-2.666-.008l.044-1.585 2.037-.65c.51-.183.632-.236.646-.795.012-.453.077-.721-.51-.675-.337.027-2.425.7-2.872.862-.387.14-.637.371-.61.934l-.19 5.578c-.043 1.235-.07 1.11 1.227.747zm-6.069-3.142l-1.445-1.707c-.236-.279-.425-.459-.713-.456a1.387 1.387 0 00-.69.198c-.295.182-.317.29-.318.592l-.013 6.476c.009.953-.089.796.717.58.98-.241.749-.191.77-.96l.08-4.552 1.252 1.273c.388.394.646.307.953-.148l1.063-1.569-.08 4.172c-.044.695-.076.617.77.371.956-.279.772-.112.788-1.025l.11-6.326c-.19-.585-1.066-.246-1.21-.025l-2.033 3.106zm4.54 11.215l.066 1.163c-.31.196-1.099.495-1.728.735-.11-.258-.582-.545-.99-.588-.12-1.437-.286-2.815-.37-1.798-.052.642-.059 1.05-.142 1.799-.472.104-.95.722-.95 1.267l-1.913.602-.154-1.216c-.047-.37-.092-.382-.175-.022-.08.353-.12.859-.168 1.409-.814.366-1.25.492-2.257 1.007l2.299-.364.015 1.266c-1.184.242-1.228 1.466-1.16 1.794l-1.295.498c-1.396.539-1.128.508.158.326.509-.072 1.049-.252 1.325-.236.112.103.446.569 1 .614.042.436.119.978.192 1.514.134.963.158 1.416.314-.15.058-.579.106-1.1.104-1.45.477-.346 1.096-.659 1.047-1.54-.073-1.017-.566-1.166-1.146-1.415l.002-1.422 1.883-.535c.311.291.382.28.94.533.06.485.073 1.796.117 2.213.078.751.085-1.541.406-2.213.965-.307 1.037-.879 1.03-1.264l1.697-.614.235.848c.164-.272.132-.905.343-1.047.504-.338.939-.43 1.335-.657.609-.348.613-.353-.09-.234l-1.353.26-.024-1.18c.737-.203 1.098-.678 1.15-1.375l1.98-.812c-.787.04-1.341.163-2.128.202-.165-.457-.399-.674-.962-.854-.28-.502-.225-2.708-.316-1.983-.122.977-.11 1.421-.24 2.006-.265.118-1.144.53-1.16 1.543-.01.706.486 1.033 1.082 1.37zm27.565-11.551l-18.5 5.962c-1.408.504-1.618.99-1.615 2.26 0 .6-.01 5.724.011 5.88.055.433.286.676.707.728l19.378-6.492c.6-.225.882-.75.89-1.345l.129-6.267c-.136-.559-.421-.919-1-.726zm-37.41-19.778l.209-.658 5.718-1.772c.643-.288 1.22.5 1.589.304.558-.297.382-.374.1-.536l-1.048-.606c-.383-.22-.906-.178-1.159-.022l-6.267 1.977c-.195.052-1.236.376-.788.762.106.104 1.381.56 1.646.55zm3.995 1.872l-.216-.86c.777-.371 2.457-.806 3.393-1.07.538-.152 1.21-.332 1.723-.518 1.32-.48 1.399-.104 1.848-.015.123.024.175-.083.234-.177-.391-.43-.65-.712-1.227-.918-.532-.19-.89-.105-1.443.103-1.8.676-4.867 1.34-6.27 1.994-1.34.623 1.666 1.544 1.958 1.46zm1.23.805c-.021.628 1.32.513 1.582.393.317-.146-.22-.75-.695-.796-.149-.014-.872-.057-.887.403zm7.628-1.52c.446-.141.878-.346.655-.513-.797-.593-1.168-.924-1.63-.514-.431.38-.372.627-.05.906.244.21.454.3 1.025.12zm41.672 6.58l.366 32.88c.01 1.184.24 1.546-.952 1.987L39.403 78.97c-1.185.353-.96-.656-.99-1.922l.156-46.887 58.538-17.484.025.187.09 7.331.047 3.947zm1.378 34.696c.067-.284.005-7.239-.03-8.176-.096-2.517-.392-21.672-.61-29.77a129.52 129.52 0 00-.128-3.485c.044-2.244.077-4.829-.068-5.242-.134-.385-5.326-2.676-6.205-3.075-.695-.316-1.726-.7-2.776-.415l-7.89 2.237L60.853 1.42C58.486.299 58.636.157 56.14.79l-5.275 1.474.008.899-37.12 10.619-1.11-.504-9.522 2.63c-.49.211-1.286.948-1.275 1.91l.177 16.017c-1.153.1-1.825.633-1.68 1.844.098.809 1.115 1.35 1.78 1.835.505 4.663-.086 10.605-.056 15.267.019 2.816 1.666 3.01 3.6 4.244 3.48 2.22 23.461 14.864 23.63 15.527.066 1.347-.467 2.947.604 3.66.953.63 1.969 1.293 3.008 1.93.502.308 3.933 2.48 4.649 2.442.282-.015.877-.129 1.557-.37l57.803-20.437c1.127-.398 1.713-.802 1.73-.94zm-57.43 16.184l.106-40.786c.037-1.574.664-1.346 2.019-1.757.865-.262 1.782-.536 2.704-.83 12.48-3.971 25.358-7.475 37.7-11.593 2.541-.847 5.505-1.83 8.095-2.508 1.066-.278 2.397-.978 2.493-.05.121 3.125.113 9.102.159 13.227.051 4.67.01 10.056.12 14.725.055 2.296.205 5.206.227 7.488.034 3.635.153 3.604-2.443 4.389l-51.18 17.695zm-1.301-1.11c-.162 1.921-.037 2.92 1.854 2.53l50.946-17.591c2.132-.736 3.297-.716 3.333-3.282.016-1.093-.114-2.44-.134-3.534-.044-2.377-.208-6.02-.156-8.39.106-4.793-.18-10.437-.228-15.239-.038-3.69-.117-8.926-.136-11.465-.01-1.282-.367-1.933-1.376-1.533-.743.295-1.99.621-2.814.897l-8.404 2.717c-3.7 1.146-7.527 2.315-11.227 3.494-3.879 1.236-7.477 2.185-11.384 3.418-3.782 1.194-7.48 2.447-11.288 3.544-1.842.531-3.842 1.036-5.76 1.647-2.94.937-3.137.936-3.075 4.326l-.151 38.461zM17.76 44.966c-.477-2.19 1.59-.468 2.415.002 1.797 1.027 4.15 2.162 5.874 3.246.858.54 2.758 1.28 1.576 2.099l-9.865-5.347zm-.844.783c-1.643.027-2.038-2.992-.846-4.102.773-.72.892-.698 1.89-1.288.934-.551 1.263-.207 2.088.396l-.044 2.75-.83-.259-.035-1.366c-.814-.383-1.61.554-1.957 1.137-.527.887-.313 1.683-.266 2.732zm-2.478-2.628c-.45-.09-1.248-.684-2.076-1.027-.885-.366-1.52-.573-1.51-1.695.006-.722.479-.337.886-.082l2.921 1.725-.221 1.08zm-2.796.962c-3.172-2.397-2.747-1.38-2.686-4.102.012-.523-.076-3.105.004-3.326.114-.314 1.71-1.257 2.148-1.33l.14 2.335c-1.055.825-2.11 2.942-1.008 4.322.266.333 1.476.88 1.933 1.166.955.602.657.89 1.308 1.793.222.308 7.129 4.726 7.62 4.77l.383-1.486.828.438-.252 3.19-10.265-5.386-.153-2.384zm1.445-4.456c-.708.064-1.288-1.882-1.19-3.782.07-1.32-.185-1.979 1.028-1.354 2.972 1.531 5.944 2.788 8.916 4.319.957.493.702.82.654 1.952l-.171 4.05c-1.548-.084.305-4.291-1.314-4.973-3.21-1.349-2.7.202-4.931.537.045-2.705.56-2.694-2.11-3.763-1.382.382-.605 1.73-.882 3.014zm-4.948-.124c-.567-.04-3.359-1.553-4.032-1.893-.628-.318-3.982-1.576-2.75-2.736.506-.477 5.126 2.552 5.556 2.95 1.1 1.016 1.314-.31 1.226 1.679zm14.524-1.334c-3.169-1.617-5.946-3.234-9.291-4.72-2.545-1.128-2.373-1.445-2.45.86-.409.242-1.424.566-1.95.853-1.137.622-.623 1.44-.95 1.888-.783-.218-2.955-1.595-3.836-2.093l-.965-2.05c-.156-2.505-.382-14.219-.105-14.777l26.286 12.908-.04 39.134c-.282.331-8.314-4.814-9.057-5.308-2.843-1.89-6.225-3.69-8.936-5.624-1.372-.98-3.026-1.945-4.461-2.846-1.318-.828-3.593-1.73-3.621-3.685-.025-1.755-.195-13.77.182-14.39l4.569 2.54.128 2.235 2.558 1.571c.354 2.596-.476 1.981 2.004 3.346l6.776 3.724c.747.424 2.719 2.02 3.513 1.558l.224.002.056-3.949c1.694.106 5.406 4.578 5.444.257.015-1.685-1.074-1.737-2.316-2.446-.84-.479-2.081-1.243-2.99-1.662a142 142 0 00.069-5.49c-.014-1.178-.08-1.45-.84-1.836zM36.37 15.643c.509-.341 5.488-1.556 6.552-1.886 2.242-.698 4.367-1.309 6.386-1.987l11.516 5.272-12.751 3.649c-1.195-.431-11.561-4.665-11.703-5.048zm-21.595-1.445c.313-.18 4.09-1.122 4.328-1.067.01.003 3.515 1.805 3.542 1.84-1.186.338-3.425 1.147-4.155.828-.645-.281-3.553-1.328-3.715-1.601zm5.62-1.461c.308-.346 3.16-.988 3.508-.808.325.168 2.83 1.55 2.94 1.667-.535.15-3.19.99-3.407.95-.395-.17-2.92-1.613-3.04-1.809zm11.322 14.25l56.178-16.669c2.005-.693 3.01-.529 4.828.244.793.336 2.314.866 2.713 1.316L38.765 29.106c-1.21.386-1.215.477-2.255.014l-4.793-2.134zM29.145 10.33c.411-.292 2.953-1.008 3.386-.894.002.001 2.502 1.71 2.518 1.758l-7.376 2.241-2.806-1.902c.211-.212 2.58-.84 3.041-.91.828-.129 2.053 1.792 2.724 1.012l-1.487-1.305zm4.305-1.204c.456-.324 2.615-.898 3.064-.667.043.023 2.543 1.434 2.55 1.44-.183.27-2.662 1.072-3.194 1.007-.472-.058-2.129-1.409-2.42-1.78zm4.16-1.171c.679-.246 2.456-.93 3.094-.578.508.28 2.241 1.118 2.384 1.482-.594.144-2.735.955-3.166.767-.232-.102-2.25-1.534-2.313-1.671zm4.127-1.15c.464-.26 2.65-.838 2.986-.688.217.098 2.298 1.394 2.354 1.462-.137.18-2.833.974-3.12.955-.238-.015-2.115-1.416-2.22-1.728zm7.66-2.138c.804-.229 1.79-.702 2.534-.316.543.282 1.85.75 2.048 1.2-.917.455-3.338 1.025-4.477 1.378-1.238.385-1.151.591-2.058-.075-.23-.17-1.574-.994-1.666-1.165 1.117-.655 2.452-.854 2.798-.7.965.428 1.481 1.252 2.19.713l-1.368-1.035zm3.27-1.485c.68-.225 3.921-1.143 5.031-1.469.676-.289 1.103-.089 2.83.681 2.736 1.217 18.419 8.867 18.52 9.082-1.38.606-4.274 1.31-5.925 1.813L62.27 16.583l-11.965-5.444c-.842-.383-1.025-.489-1.957-.178-3.897 1.299-10.148 3.007-13.016 3.91-.7.222-1.224.766-.548 1.08l11.386 5.303c-2.585.683-12.518 3.686-14.885 4.323-1.51.406-1.854 1.002-1.861 1.42l-.038 2.192-25.53-11.983c.182-.122 8.704-2.618 9.219-2.552 1.426.652 2.905 1.366 4.33 2.02.99.452 1.016.354 2.057.047 11.972-3.534 23.696-7.146 35.654-10.678 1.178-.348 1.624-.487.575-1.11l-3.024-1.75z" fill="#22A3DA"/></svg>