<svg width="99" height="91" fill="none" xmlns="http://www.w3.org/2000/svg"><path fill-rule="evenodd" clip-rule="evenodd" d="M51.154 2.703c.305 1.421 2.268 1.111 3.113 3.044.32.73.226 1.667-.333 2.078-.555.408-1.253.488-2.16 1.162-1.085.809-1.8 2.179-1.728 3.418.056.978.462 1.802 1.373 2.2.28.123.068-.833-.039-1.127-.136-.38-.652-.807.016-2.238.906-1.945 2.349-1.973 3.59-2.56 2.561-1.21.87-3.731-.494-4.435-.432-.223-1.14-.708-1.63-.995-.48-.281-.965-.652-.993-1.062-.04-.576.161-.773.428-1.256.33-.594.33-.723-.385-.285-.58.355-.896 1.408-.758 2.056zm14.18 9.159c-.53.445-.672.744-.909 1.657-.172.666-.09 1.797.026 2.478.575 3.354 3.23 3.121 6.386 4.257.407.146.541.217.768.5.517.644.822.563.911 1.83.03.418-.16 1.07.24 1.043.577-.039.672-1.485.637-2.022-.15-2.3-3.024-2.817-4.792-3.248-.749-.181-1.335-.308-1.95-.677-1.545-.926-1.731-1.886-1.745-3.603-.007-.848.37-1.592.427-2.215zM45.57 43.566c.612.226 1.619-.553 1.86-.84.306-.366.197-.528.907-.575.686-.046.611.166 1.028.393.43.235 1.234-.489 1.499-.8 1.076-1.269 2.324-.108 3.28-.244 1.044-.147 1.209-1.172 1.473-1.378.24-.188.734-.321 1.138-.21 1.16.318 2.504.43 3.634-.1.413-.193.68-.35.693-.814-.388.092-.58.34-.956.512-1.438.654-2.34-.537-4.02-.146-2.052.478-1.062 1.724-3.466 1.298-.96-.17-1.404.445-1.942.784-.554.35-1.662-.377-2.135-.383-.807-.009-1.466.538-1.676 1.033-.13.307-.24.74-.42.911-.327.312-.78.169-.897.56zm-.922-16.793c1.07.836 4.444 3.537 5.145 4.457.344.451.77 1.871.849 2.455.11-1.274.112-1.894-.09-2.542-.17-.544-.477-.928-1.052-1.368-.535-.409-3.36-2.166-4.852-3.002zm-28.089-15.78c.196.33 1.451 1.109 1.864 1.38 1.232.81.79.653 2.374.298l7.85-1.878c1.262-.316 7.848-1.723 8.096-1.947-.022-.179-2.055-1.635-2.317-1.72-.154-.051-.608-.064-.77-.047-.4.04-.983.216-1.375.3-1.739.374-3.489.8-5.234 1.193l-7.873 1.788c-.696.158-2.037.386-2.614.634zm32.75 68.054c11.714-3.337 31.89-10.265 46.81-15.058.353-.13 1.499-.512 1.523-.355.045.288.055 2.03.05 2.468l-.006 5.27c-.014 1.564.122 1.592-.8 1.82l-3.873 1.299c-3.922 1.163-7.883 2.581-11.777 3.878-5.117 1.703-10.486 3.668-15.643 5.194l-3.87 1.31c-1.291.491-2.61.84-3.92 1.319-2.599.95-5.162 1.61-7.739 2.485-.39.133-.754.127-.786-.513l.006-3.993c-.01-.949-.159-4.494.025-5.124zM36.51 1.62c.496.047.844.347 2.003.93l9.035 4.84c.652.35.578.585.58 2.473 0 1.375-.056 2.928-.07 4.253.452-.07.41-.09.687-.107.138-.008.325.023.515.12 1.389.712 4.847 2.807 6.534 3.626.033.331-.017 1.091-.01 1.463.539-.015 1.396-.325 2.092-.407-.548-1.372-.4-2.643.15-3.771.668-1.372 1.93-2.532 3.261-3.406 1.15-.755.358-2.053.499-2.894.528.55 1.216 1.95.524 2.792-1.083 1.316-2.475 1.915-3.382 4.05-.528 1.244-.381 1.71.067 2.87.421.007.712-.125 1.103-.192.676-.116 1.906.896 2.469 1.196.898.48 9.243 5.073 9.834 5.218.581-.484 1.959-1.455 2.235-2.172.483-1.256-.049-2.694-.733-3.382-1.188-1.193-1.506-1.165-3.148-1.246-1.486-.073-3.882-.464-4.853-1.771-.184-.248-.646-1.099-.695-1.496-.143-1.163.333-2.807.827-3.544 1.035-1.546 2.016-2.214 3.578-3.03.59-.308 1.097-.27 1.867-.309.163-.652-.336-.795-.692-1.203-.112-.128-.055-.093-.153-.222-.156-.206-.23-.192-.383-.352-.075-.357-.005-.678.28-.852.205.09.2.165.375.327.123.113.236.193.375.3.71.548 1.808 1.13 1.573 2.256-.264 1.27-1.716.679-3.559 1.62-.333.17-.48.36-.795.556-1.532.955-3.369 4.03-1.087 5.784.596.46.813.674 1.769.866 1.54.309 3.078.166 4.411.739 1.13.484 2.25 1.505 2.38 2.784.114 1.112.188 2.247-.66 3.083-.791.781-1.312.917-1.464 1.083-.16.175-.545.473-.612.655.288.22 1.976 1.15 2.242 1.195.249-.268.41-.744.663-1.046.239-.286.612-.601.868-.857 1.425-1.413 1.067-2.66-.008-4.149-.15-.208-.165-.308-.287-.54-.258-.485-.663-2.533.288-2.467-.37 1.01.251 1.998.938 2.667 1.4 1.364 1.535 3.743.127 5.027l-.945.855c-.324.248-.618.534-.745.971.307.386 4.642 2.437 5.597 3.014.904.547 1.818.996 2.78 1.497l7.067 3.733c.449.229.92.501 1.392.706.95.412 1.843 1.026 2.797 1.48 1.01.48 1.552.573 1.578 1.689.008.368-.012.68-.019 1.032.244.127.5.26.726.39.317.182.458.261.374.74-.13.75-.069 1.37-.081 2.131-.024 1.449-.02 2.917.003 4.367.045 2.93-.103 5.886-.014 8.809.13 4.34-.186 8.608-.09 12.948.011.466.114 3.927-.005 4.053-.22.153-.525.293-1.02.459-8.933 2.994-23.81 7.993-34.258 11.455-1.25.414-5.906 2.133-6.96 2.418-.827.223-6.54 2.395-6.893 2.278-.437-.144-.551-.364-.714-.445-.203-.1-.705.023-2.78.81-.907.344-.904.374-1.553-.214-.435-.393-1.018-1.09-1.51-1.29-.399.205-.73.325-.936.298-.004-.001-6.233-4.63-6.855-5.084-.76-.559-1.451-1.042-2.19-1.564L28.32 79.36c-.404-.276-.695-.543-1.119-.832l-10.05-7.055c-.367-.249-.762-.47-1.133-.742L12.7 68.347c-.764-.545-1.509-1.07-2.247-1.578L8.15 65.246c-.703-.505-1.806-.871-1.692-1.946.123-1.157.07-2.56.1-3.75.06-2.304.385-1.48-1.11-2.576L1.25 54.088c-.493-.264-.907-.751-.832-1.44.06-.56.05-1.149.044-1.753-.015-1.272-.037-2.567-.026-3.84.11-12.604-.243-25.199-.092-37.79 11.744-2.52 23.254-4.727 35.05-7.498.421-.099.693-.148 1.118-.148zM7.593 33.665c.474-.023 2.75 1.565 3.319 1.93 3.272 2.034 6.506 4.099 9.797 6.1 2.345 1.377 5.269 3.244 7.613 4.762 3.266 2.034 6.514 4.082 9.77 6.131l3.811 2.414c.6.409.503.428.5 1.109-.019 5.133-.08 10.472-.273 15.563-.065 1.711-.161 3.647-.15 5.383-.988-.33-18.887-12.669-20.431-12.973.186.1 1.594 1.194 1.773 1.33.553.419 4.909 3.495 5.418 3.81 2.403 1.489 7.017 4.67 9.45 6.377.542.381 1.005.71 1.56 1.067.56.362 1.04.771 1.604 1.099.832.484.598.478.576 2.037-.013.849-.03 1.745-.078 2.556-.1 1.65.089 3.608-.121 5.212-.381-.106-1.865-1.154-2.208-1.416-1.768-1.348-4.56-3.199-6.45-4.576a22.96 22.96 0 00-1.071-.73c-.459-.297-.692-.49-1.103-.774-1.951-1.35-4.576-3.275-6.5-4.529l-8.6-6.027c-.755-.523-1.395-1-2.152-1.525-.352-.243-.677-.485-1.052-.745l-4.32-3.035c-.372-.255-.728-.483-1.101-.748-.054-.607.007-1.394-.007-2.032-.046-2.03.122-3.958.098-6.222.428.098 3.963 2.551 4.526 2.981.452.346 1.048.686 1.56.992.51.304.966.644 1.514.96 1.357.785 4.097 2.784 5.214 3.036-1.36-.987-2.568-2.1-3.346-2.58l-4.752-3.125c-1.053-.746-2.78-1.774-3.936-2.592-1.134-.801-.7.42-.723-3.087l.084-17.015c-.007-.576-.08-.806.187-1.118zm90.064 29.237C82.28 67.59 64.48 73.813 49.388 77.885c-.09-.64.07-4.045.063-5.158-.03-5.19.13-10.561.119-15.81-.003-1.475-.373-1.274 3.111-2.156l4.117-1.203c5.305-1.638 10.888-3.21 16.288-4.823l16.318-4.818c1.39-.422 2.726-.752 4.143-1.19 1.08-.335 3.15-1.11 4.256-1.105.027.797-.046 1.772-.077 2.569-.085 2.176.02 5.835.053 8.059.026 1.678.094 3.77-.013 5.415l-.109 5.237zm-49.084-3.575l-.456 29.052c-.293.2-1.96.684-2.36.708l.265-16.737c.027-4.786.203-10.63.325-15.584l.074-2.71c.568-.47 2.221-.767 3.038-1.031 2.865-.925 6.505-1.966 9.366-2.825 4.137-1.241 8.322-2.49 12.57-3.77 1.043-.315 2.063-.614 3.115-.93 1-.3 2.04-.653 3.108-.938 2.125-.566 4.092-1.292 6.272-1.897 1.364-.379 12.148-3.668 12.758-3.568.154.497.046.918.197 1.678-1.078.479-4.959 1.463-6.422 1.912l-9.597 2.918c-1.085.313-2.172.615-3.24.958-2.074.666-4.332 1.24-6.503 1.89-.982.294-2.165.62-3.17.948-1.07.35-2.161.587-3.228.951-1.034.354-2.142.65-3.245.95a85.028 85.028 0 00-3.235.956l-3.175.948c-1.675.423-3.536 1.046-4.917 1.383-1.126.274-1.483.09-1.532.922-.076 1.286.016 2.512-.008 3.816zM35.557 38.883c1.078-.36 2.21-.784 2.912-.075.553.559.902 1.406.956 2.492-.38-.079-1.395-.803-1.792-1.048-.375-.232-1.653-.923-1.948-1.225-.017-.017-.105-.133-.128-.144zm-9.884-5.831c.263-.197 5.317-1.333 5.352-1.323.132.306.16.6.39 1.181-.014-.227.124-1.08.116-1.331l2.979-.718c.472.393 1.068.815 1.67 1.296-.584.24-2.525.69-3.232.882-1.565.39-3.587 1.023-4.965 1.325-.29.063-1.997-1.06-2.31-1.312zm-17.19-2.195c.398.113 1.395.892 1.801 1.15.656.417 1.29.685 1.906 1.094 1.565 1.04 4.253 2.538 5.548 3.451l1.865 1.136c1.24.787 2.501 1.523 3.712 2.29 1.223.775 2.44 1.54 3.692 2.307 4.915 3.012 9.74 6.264 14.656 9.27l2.29 1.46c1.704.94 1.26 1.483 1.275 2.838.033 2.961-.097 6.81-.275 9.744-.06.988-.01 2.012-.053 2.993-.116 2.582-.279 6.175-.298 8.654-.015 1.923-.234 3.977-.21 5.872l-.161 5.84c-.155-.025-1.17-.8-1.262-.92-.173-.229.03-6.047.046-6.576.089-2.913.164-5.943.207-8.88l.278-11.07c.071-2.005.288-4.734.134-6.7-.08-.157-12.618-7.843-13.625-8.467-1.894-1.045-5.046-3.064-6.84-4.263-3.79-2.332-7.645-4.663-11.395-7.055-.767-.49-1.446-.975-2.233-1.443-1.266-.753-1.09-.359-1.058-2.725zm12.417-.74l1.706-.472c.473-.108.386-.34.609-.21l3.901 2.283c-.102.096-.288.066-.44.135l-.668.157c-2.083.415-1.159.527-2.386-.173l-2.722-1.72zm12.964-.752c.302.071 4.659 2.064 5.057 2.34-.028.153-.193.4-.477.718l-4.125-2.54c-.3-.211-.416-.19-.455-.517zm11.63.482l-3.18.76c-.52-.297-.924-.473-1.096-.703-.066-.366-.234-.709-.318-.904.723-.147 1.693-.45 2.405-.453.31-.002.452.098.79.307.41.254 1.197.622 1.399.992zm3.618-2.832l2.945-.575c.321-.007 1.946.967 2.062 1.116l-3.03.662a1.847 1.847 0 01-.182-.107l-1.795-1.096zm26.958 4.14c.141-.235-.097-1.318-.155-1.712-.07-.47-.19-1.452-.088-1.906.296-.13.26-.118.574.055.247.135.415.193.654.326.43.237.794.434 1.264.692.9.495 1.645.95 2.52 1.38 2.346 1.155 5.234 2.738 7.523 4.023l5.004 2.715c.473.236 2.243 1.112 2.51 1.368l-5.864 1.843c-.963.26-1.986.625-2.951.872l-5.928 1.785c-1.314.396-3.3.893-4.473 1.302-1.033.36-3.292.875-4.55 1.295l-5.956 1.762c-1.992.586-4.047 1.13-6 1.72-.918.277-2.053.536-2.953.848l-3.047.865c-1.014.238-2.025.563-3.013.86l-3.046.851c-1.988.554-2.01.77-2.951.17-.805-.514-1.618-.956-2.438-1.46-1.617-.99-3.196-1.99-4.751-2.974-2.937-1.857-6.737-4.053-9.534-5.919-2.074-1.383-5.08-3.026-7.165-4.388-2-1.308-11.625-7.14-11.886-7.563.207-.145 6.174-1.254 6.833-1.58l3.777 2.223c1.967 1.258 3.64 2.208 5.613 3.387l16.931 10.22c1.239.769 2.531 1.585 3.687 2.421l17.769-5.18c1.445-.39 3.036-.877 4.424-1.277l8.999-2.564c.7-.182 1.497-.44 2.182-.657.938-.299 1.269-.226 2.111-.8.016-.59-.1-.66-.825-1.01-1.086-.525-2.47-1.336-3.545-1.929-.81-.444-1.6-.796-2.421-1.252-.688-.381-1.684-.976-2.425-1.251.061-.521.637-1.35.502-1.857-.174-.657-1.355-.224-1.526-.859-.161-.593.46-1.396.78-1.891.146-.225.232-.355.465-.452.239.056 2.402 1.192 2.606 1.372-.055.82-.388 2.242.25 3.3.35.58.277.395.513.827zm-37.642-6.69c.136-.317-.016-1.519.06-1.921.07-.075 1.442-.405 1.663-.403l.04 4.23 1.897 1.336c-.377.13-1.36.404-1.747.39-.61-.731-.5-.752-.73-1.678-.677 1.268.778 1.681 1.093 3.662.07.441-.337 1.203-.514 1.505-.56.96-1.285 2.366-1.273 3.559.015 1.485 1.272 3.171 1.485 3.369l-.027-3.398c-.004-.452-.158-1.435-.466-1.671l.408-.989.47.377c.434.539.697.896.917 1.706.152.56.314 1.066.397 1.64.27-.574.385-2.542-.056-3.17-.569-.68-.852-.87-1.313-1.296.157-.255.26-.666.426-.975.497.108 1.637.934 2.353 1.416 1.688 1.128 1.528 1.542 1.535 3.07.002.42.057 3.437.036 3.494-.294.796-1.303.406-2.093.672.084.328 2.106.508 2.565-.263.27-.454.283-1.154.234-2.086.127-.195 2.256-.643 2.87-.833.175.147.414.143.505.221.022-.309.031-.803.039-1.505.008-.758.005-1.444-.006-1.718-.082-2.092-1.169-2.822-2.695-3.91-1.092-.778-2.264-1.436-3.396-2.154-.352-.24-.438-.335-.862-.562-.736-.393-.877-.5-.813-1.124l.141-.482c.352.175 1.018.812 1.422.601.393-.413-1.521-1.377-2.18-2.009l.023-.879c.419-.019.866.514 1.192.72.438.276.8.536 1.226.8.851.523 1.642 1.057 2.498 1.554 1.042.605 5.984 3.612 6.874 4.318 1.146.91 1.259 1.252 1.252 2.637a134.41 134.41 0 00.002 2.687c.02.785-.13 1.18-.82 1.373-.865.242-1.715.356-2.718.185.588.526 1.703.476 1.992.481.84.014 1.786-.462 2.026-.781.51-.674.035-1.47.348-2.01l2.098-.65c.083.136.497.298.71.37-.025-.566.015-3.878-.092-4.729-.143-1.133-1.15-1.903-2.034-2.392-.745-.413-1.468-.89-2.184-1.313-.983-.58-2.623-1.444-2.5-2.159 1.587 1.144 6.869 3.49 7.716 4.715.449.649.647 2.195.783 3.017.197-.911.308-2.798-.066-3.334-1.334-1.575-5.531-3.552-8.56-5.487-.172-.11-1.025-.664-1.148-.772-.145-.13-.213-.667-.078-.975.222.03 2.123 1.204 2.389 1.352l3.565 2.134c1.049.598 5.285 2.843 5.992 3.46 1.214 1.057.868 4.478.889 6.248.005.5-1.719.662-2.76.66-.28-.001-1.107-.09-.284.24.494.198 1.29.188 1.592.143.668-.097 1.656-.304 1.976-.808l.974.675 1.455 1.096c.424.292.49.514.75.543.357-.37.238-.664.03-1.03-.2-.354-.296-.647-.468-1.042-.295-.68-.424-1.51-.66-2.266-.51-1.627-.714-3.457-.11-5.023.616.067 2.525 1.324 3.271 1.773l2.51 1.313c.277.142.512.329.806.469l.005 2.942c.421-.968.717-1.665.902-2.325.378.146.68.31.983.49l4.799 2.704c.475.25 1.48.72 1.864 1.148-.49.398-1.414.407-2.14.637-3.49 1.108-1.302.734-4.513-.66-1.085-.47-4.664-2.564-5.701-3.296-.89-.628-1.772-.506-1.425.696.09.316.214.678.289.954.1.374.045.726.153 1.136.075.28.16.718.312.974.546.926.968 1.38 1.637 2.118l.7.602c-.064.053-.028.034-.148.09-.043.021-.218.084-.218.084l-3.28.944c-3.7.982-7.36 2.218-11.052 3.174-1.313.34-2.515.674-3.711 1.018-.594.171-1.322.283-1.913.483-.952.322-1.295.272-1.935.46-.81.237-.838-.11-1.56-.456-1.03-.494-2.041-1.187-3.026-1.776-.424-.254-1.15-.614-1.456-.934.282-1.479-.601-2.13-1.23-2.916-1.315-1.64-3.02-3.994-1.202-5.992.304-.334 1.19-1.805 1.282-2.223-1.873-1.121-5.303-3.173-6.974-4.435l-.01-1.363c.466.19 1.51.956 1.972 1.284 1.307.93 2.687 1.708 3.975 2.625.261.185.626.405.983.63l-.314-.926c-.95-.65-2.753-2.006-3.22-2.248-.04-.961-.161-2.332-.032-3.258.328-.148 1.723-.513 2.07-.542.296.865.209 1.45.292 1.742zm-8.866.411c.72-.167 1.508-.37 2.498-.673v5.235l.962.57-2.847.604c-.054-.1-.417-4.874-.613-5.736zm-1.015 6.72c-.831-.14-4.111-2.115-4.821-2.79l.116-7.352 4.689 3.163.016 6.98zm35.13-4.973c-.062.54-.177.974-.295 1.496-.113.495-.402 1.01-.49 1.543-.07-1.002-.474-2.063-1.356-2.591-.975-.584-3.246-1.877-3.72-2.156L55.67 23.66l.068-1.275c.643.108 7.041 3.924 7.939 4.238zm-42.92 2.59c-.349.175-.896.266-1.155.124-1.485-.817-1.352-.58-1.42-1.333l.041-7.398c.229.07 2.496 1.634 2.611 1.832.02.035.095 6.33-.078 6.774zm25.716-8.717c.308-.12 1.644-.427 1.986-.462-.047.439 0 3.902.063 4.18.019.085 2.149 1.375 2.349 1.485-.646.1-1.508.308-2.152.463-.938.225-.989-.045-1.702-.471-.47-.282-1.081-.636-1.535-.94-.486-.328-.85-.654-1.385-.903v-2.714l1.963-.55c.309.532.233.797.344 1.217.096-.548.085-.598.07-1.305zm9.293-.343c.425-.077 1.162-.31 1.525-.43.794-.26.992-.198 1.478.168l2.222 1.527c1.309.845 3.278 2.689 2.987 4.444-.18.022-2.624-1.334-3.171-1.62l-3.08-1.725a37.129 37.129 0 01-1.982-1.156l.02-1.208zm-26.147-1.005c1.322.686 4.228 2.79 5.879 3.803l-.388 2.856c-.187-.02-2.318-1.317-2.496-1.488-.03-.616.088-.931-.192-1.08-.952-.682-1.929-1.344-2.87-2.008l.067-2.083zm-5.526 1.662l2.953-.756c.387.215.852.598 1.246.834 1.185.71 2.631 1.997 3.793 2.746-.363.14-2.102.616-2.58.67-.177.02-4.616-3.03-5.412-3.494zm13.862-.831c.022-.436 0-1.848.1-2.133.772.111 4.21 2.789 5.533 3.472l.02 2.225c-1.763-1.119-3.805-2.587-5.653-3.564zm17.092 3.233c-.26-.03-2.265-1.204-2.405-1.381-.159-.2-.02-2.448.002-2.577.043-.261.048-.415.381-.516l2.055-.62-.033 5.094zm4.665-4.09l.698-.091c.253.193.417.384.746.562 1.444.779 3.54 2.182 5.009 2.648.404.128 5.575 2.828 5.727 2.981-.105.307-.393.626-.587 1.004-.33.643-.753 1.563-.5 2.292.118.345.344.521.657.653.282.118.357.133.297.477-.038.216-.124.333-.255.502-.445-.084-2.825-1.543-3.243-1.813-.786-.51-2.092-1.076-3.231-1.786.012-1.031.762-1.725.633-2.676-.207-1.53-4.383-3.593-5.951-4.753zm-29.247-.049a584.29 584.29 0 013.422-.806c.383-.03 4.855 3.044 5.903 3.52-.684.119-1.314.43-1.746.184-.742-.422-1.435-.949-2.101-1.335.272.347 1.51 1.167 1.86 1.665-.292.125-1.323.344-1.66.382-.586-.222-5.576-3.482-5.678-3.61zM16.52 27.406l-.071-9.554c.587-.024 3.094 1.934 4.02 2.135.642-.4.623-.771 1.31-.375.468.256.85.532 1.329.768l-.028 2.654c-.477-.147-.964-.56-1.372-.796-.853-.494-3.519-2.49-3.878-2.313-.337.164-.108.85-.099 1.834.007.702.015 1.405.018 2.108l.028 4.432-1.257-.893zm29.516-11.724c.121.02 1.112.695 1.29.814 1.42.951 3.118 1.56 4.51 2.49l.031 2.479c-.596-.214-2.963-1.757-3.834-2.218-.645-.34-1.252-.733-1.876-1.122-.519-.323-.48-.298-.487-1.033 0-.119-.02-.712.025-1.097.04-.342.049-.361.341-.313zm-20.812.448c.533.193 2.338 1.552 2.901 1.914.241-.268.664-.487.95-.685l1.687 1.082c-.413.105-.753.2-1.133.28-.44.095-.4.365-.454.802-.68-.392-1.47-1.061-2.142-1.484-.22-.139-.38-.197-.554-.12l-.041 1.13-.02.628c-.402-.306-.675-.412-1.071-.779l-.123-2.768zm13.162.962c.32-.236 3.325-.963 3.662-.943.036.003 5.472 3.243 5.89 3.511l-1.544.384c-.484-.07-2.235-1.41-2.59-1.464.775.64 1.062.672 2.004 1.594-.463.124-1.138.349-1.818.523-.534-.07-2.323-1.274-2.783-1.58-.502-.334-2.507-1.68-2.82-2.025zm-3.843 1.082c-.25-.167-.431-.331-.669-.486l-.048-3.863c.51.366 2.658 1.783 3.25 2.15.287-.017.582-.286.861-.311l1.008.667-1.411.46-.11.729c-.576-.232-.885-.52-1.408-.862-.804-.526-1.055-1.014-1.334-.695-.248.395-.116 1.695-.14 2.21zM48.7 14.386c.334-.078 5.292 2.939 5.85 3.313-.484.086-1.555.35-2.362.677a916.967 916.967 0 01-6.034-3.308l2.546-.682zM1.153 10.937c.391.115 4.017 2.69 4.378 2.963l4.575 3.145.005 4.318c-.087 1.017.15 7.018-.102 7.34-.411.104-1.356.252-1.611.373-.21.098-.39.218-.479.47-.086.244.013 2.382.013 2.903-.217.169-.23.27-.411.378-.275.165-.527.046-.6.392l-.193 17.676c.003.841-.022 5.395-.107 5.865-.302-.116-.973-.674-1.321-.92l-2.637-1.864c-.272-.196-1.187-.879-1.364-.953-.092-1.677-.002-3.58-.017-5.29-.11-12.226-.38-24.607-.129-36.796zm10.134 5.822c1.491-.25 3.093-.734 4.537-1.102 1.458-.37 3.032-.706 4.5-1.032 1.465-.324 2.95-.729 4.498-1.075.748-.168 1.47-.409 2.216-.554a42.65 42.65 0 002.245-.52c3.705-.93 7.436-1.73 11.207-2.647 2.257-.55 4.354-1.163 6.677-1.6.078.703.126 5.565.006 6.077-.377.176-1.59.46-2.125.662-.02.818-.026 1.546-.082 2.382-.438-.191-.75-.402-.905-.56.067-1.558.23-1.268-1.373-.974l-2.296-1.382c-.69-.415-.555-.277-1.135-.388-.267-.05-.465-.24-.742-.43-1.24-.85-1.188-1.157-2.347-.88l-2.754.643.026 4.012c-1.098-.618-1.489-1.288-2.19-1.28-.659.006-.699.366-1.288-.07-.895-.662-1.718-1.328-2.132-1.348-.5-.024-1.612.375-2.538.61-.54.139-.62.28-.604.746.029.844.044 1.744.022 2.573-.475-.297-.597-.36-.902-.458-.441-.139-.813.17-1.305-.034-.53-.22-1.466-.787-2.019-1.147-.23-.15-.74-.38-.896-.368-.789.055-2.281.438-3.64.778l.011 5.348c-.447.251-1.323.11-1.62.491-.171.406.037 3.4-.101 4.61-.456.188-.851.229-1.38.328-1.67.315-1.438.542-1.44-1.22 0-.445-.064-.866-.068-1.351l-.063-8.84zM2.634 9.6c8.228-1.758 16.469-3.47 24.7-5.246.2-.043.423-.136.701-.19 2.296-.456 4.923-1.175 7.32-1.618.685-.127.944-.326 1.323-.031l8.633 4.717c.792.473.308.472-.418.697-1.401.434-3.92 1.049-4.907 1.308-4.69 1.23-10.014 2.402-14.786 3.572-2.961.727-6 1.253-8.963 2.057l-4.483 1.062c-.705.258-1.275-.159-1.884-.518-.943-.554-2.754-1.867-3.805-2.574-1.06-.714-3.03-1.812-4.068-2.689-.442-.373.018-.414.637-.547zm60.143 29.152c.356-.41 1.891-.928 2.651-.783 1.078.206 1.418.478 1.47.205-.293-.607-.705-1.093-1.3-1.084-.802.011-1.964.403-2.517.937-.23.223-.355.47-.304.725z" fill="#22A3DA"/></svg>