<svg width="101" height="103" fill="none" xmlns="http://www.w3.org/2000/svg"><path fill-rule="evenodd" clip-rule="evenodd" d="M14.91 53.179c.816.054.924-.608 2.253-1.155 1.267-.52 2.912-1.215 4.995-1.632 2.502-.502 5.664-.728 8.28-.922 3.064-.229 6.49-.297 8.418-.109 2.092.205 4.628.164 6.757.18.594.006.986-.137 1.584-.096.564.04 1.114.112 1.69.15 1.135.077 2.15.2 3.264.307 2.073.199 4.106.477 6.098.924 1.083.244 5.212 1.438 5.95.712-.125-.25-.21-.281-.509-.395-.219-.083-.469-.148-.673-.216-4.01-1.334-6.455-1.684-10.64-2.18-5.91-.703-18.721-.724-27.323.467-3.064.424-6.456 1.314-9.352 2.957-.45.255-.866.583-.793 1.008zM31.193 16.22c.56-2.36.562-4.45.262-6.442l.57-.01c.46 1.726.493 4.25-.153 6.252l-.679.2zm27.76 53.219c.33.116.372.492.416 1.064.077.997-.048 2.423.062 3.073.172 1.029.18 6.221.16 7.564-.01.74-.32.702-.091 1.831.123.607.204 1.33-.325 1.518-.374-2.68.258-11.576-.506-13.519-.14-.355-.37-.645-.738-.818-.377-.378-12.224.92-15.549.91l.146-.22c.093-.14.145-.28.573-.29 4.83-.114 9.908-.995 14.816-1.117.244-.006.834-.068 1.037.004zM15.608 17.844c-1.08-3.017-1.07-9.76 1.642-10.801.56-.216 1.023-.291 1.54.007.222.127.484.344.711.51.27-.462.824-.827 1.473-.432.608.37.898 1.256 1.024 1.615l5.654-.007c.238-1.089 1.94-2.44 3.165-1.106.134-.055.902-.84 1.597.964l24.172.641 7.29-.447c.654-1.479-.51-8.666 1.838-8.14 1.581.354.743 6.752 1.34 8.517.618.302 6.565 1.168 7.46 1.06.059-.967.124-1.85.151-2.861.025-.94-.063-4.493.886-4.826.637-.223 1.725.32 1.882.923.596 2.3.127 8.393.176 11.22l3.83 2.019c.471.226.698.43 1.222.669 1.14.519 3.399 1.635 4.522 2.32.33.201.317.104.487.438-2.055.05-5.135-2.324-6.163-2.365.144.157 4.159 2.602 4.691 2.815 1.83.735 7.537 3.737 8.485 3.96-.151-.37-1.722-1.298-2.222-1.6-.656-.398-1.928-.933-2.221-1.516.68.028 3.906 1.714 5.056 2.056.715.213 1.11.32 1.703.682.754.46.226-.217 1.661.72 1.876 1.223 2.61 1.003 1.75 2.292-.316.474-.333 1.117-.736 1.538-1.202.218-2.182-.758-3.251-.929-.82-.13-.63-.436-1.117-.953-.677-.716-.57-.822-.977-1.006l-5.666-2.47c-2.8-1.372-5.347-2.802-8.102-4.2-.417-.212-.94-.463-1.39-.697-.466-.242-.833-.599-1.348-.617-.186.944-.236 2.827-.245 3.857-.008.86.29 3.947-.546 3.157-.213-.2-.184-6.673-.36-7.703-.227-.263-.429-.438-.808-.354-.211 1.467.136 3.245.005 4.822-.178 2.147.417 3.254-.13 4.704 1.547.205 1.344-.234 1.572-.542.642-.064.609.419 1.587.473.406.022.456.024.856.125l.79.282c.445-.065 1.018.39 1.488.522 1.34.374.252.07 1.447.64 2.823 1.307 5.939 2.465 8.625 3.723.793.372 2.585 1.439 3.28 1.84.656.38.446 2.334.436 3.134-.039 2.797-.024 1.126.39 2.656.225.836.498 1.548.712 2.453.156.659.722 1.958.231 2.365-.352.292-.856.119-1.355.217-.46.09-.496.413-.934.678-.591.357-1.468.719-2.12.946a55.76 55.76 0 01-2.346.745c-2.47.745-1.179-.238-1.376 1.177-.678.226-.346.14-.804-.09-1.225-.615-1.82-.036-2.656.117-1.16.213-2.28.448-3.54.657-1.17.195-2.36.436-3.622.512-.608.038-1.306.123-1.911.18-1.953.183-.936.31-1.464.515-.633-.014-1.079-.29-1.716-.376-.275.017-.69.072-.985.077 2.32 2.88 5.276 6.36 7.07 8.697l-.08 6.244c-.076 4.172.038 8.313.01 12.352l-.118 4.052c-.011.786-.157 7.515-.004 8.066.1.363.326 1.214-.105 1.369-.093.16-5.107 3.299-6.244 4.054-1.434.953-2.29 1.338-3.648 2.32-1.35.977-3.991 2.084-5.307 3.006-10.409 1.019-18.967 2.196-29.474 2.873-1.02-.062-19.651-4.23-24.662-5.65-1.036-.293-1.795-.318-2.413-.973-1.324-1.732-6.947-8.923-6.975-9.77-.482-4.962.467-20.262.124-26.277-.033-.562-.023-1.082-.083-1.598-.081-.692.106-1.056.04-1.733-.095-.995-.144-1.069-.03-1.73 1.986-1.12 14.637-8.362 15.223-8.588.867-.335 2.24.04 3.183-.272-.038-2.466.1-4.341.077-6.8-.064-6.595.213-12.424-.12-19.113-.857.874-2.492-.107-3.18-2.031zm9.435-.313c.275-2.305.162-6.526-.007-7.73l-2.495-.024c.06.266.268.96.304 1.5.438-.027.752-.036.806.465.061.576.108 2.207.017 3.05-.023.222-.135.316-.33.432-.123.072-.347.055-.461.118-.083.676-.33 1.527-.61 2.224l2.776-.035zM19.89 45.015l-.041.687c.431-.009.921-.018 1.197-.103-.03-2.598-.05-24.46-.52-25.556l-.575.028c-.045 4.168.019 8.024.026 12.197.007 4.226-.157 8.547-.087 12.747zM7.104 73.485c.06-2.165-.092-4.47.1-6.519.075-.79-1.685-4-2.503-4.644-.272-.244.068-.046-.181-.21.135.558.824 1.673 1.177 2.138.25.329.45.734.708 1.076.443.585.226.71.35 1.698.24 1.919-.318 3.825.005 4.789.282.845-.094.591-.012 1.237.019.148 0 .045.033.186.06.25.261.139.323.248zm14.426-4.477c.073.247-.084.173.748.373.325.079.573.122.907.195.559.123 1.104.274 1.714.446 1.222.345 2.394.536 3.617.858 2.763.727 1.775-.949 1.904 5.463.056 2.762-.064 5.85-.01 8.598.024 1.203-.035 8.289.087 8.777.423-.32.333-3.769.303-4.231-.084-1.31-.05-3.303.01-4.633.103-2.282-.012-10.74.256-12.245.218-1.224-.122-1.538-.925-1.86-1.546-.623-5.722-1.445-7.709-1.79-.12-.02-.467-.106-.517-.11-.623-.048-.18-.083-.385.16zm-4.125-57.5c-.145.526-.492 4.51.69 4.115.534-.178.673-1.33.722-2.15.067-1.098-.14-1.903-.283-2.323-.272-.798-.786-.878-1.128.358zm47.23 40.426c.614.37 1.754 1.175 2.373 1.67.436.35.416.761.349 3.168-.04 1.385-.07 1.089-1.117 1.645l-1.283.904c-2.356 1.016-4.24 1.679-7.026 2.27-1.138.242-3.272.757-3.906.423.284-.145 3.023-.748 3.612-.88 1.878-.423 4.907-1.382 6.582-2.356l2.017-1.259c.215-.111.48-.284.493-.598-.135-.03-6.239 2.734-11.35 3.635-1.017.179-7.79 1.11-8.98 1.109-2.935-.001-5.873.067-8.807-.04-4.01-.145-5.727-.425-9.982-1.022-1.378-.193-2.799-.563-4.124-.907-1.673-.435-4.162-1.17-5.64-1.897-1.277-.628-2.11-1.088-2.821-2.24-.327-.53-.27-.2-.255-.952.008-.475.077-.983-.368-.995-.67-.018-.537 1.421-.47 1.969.042.349.813 1.145 1.109 1.444.592.6 2.035 1.58 3.01 2.056.516.251 1.143.531 1.675.791.564.276 1.363.383 1.908.66-.428.248-4.969-1.417-5.83-1.89-.29-.158-.623-.463-.786-.513-.303-.094-1.102.099.398 1.094 7.676 5.094 27.97 5.458 36.116 4.135 3.985-.646 15.532-2.526 16.663-5.67l-.034-3.704c-.125-.255-.173-.3-.45-.575-.645-.645-2.007-1.373-3.076-1.475zM8.252 94.88c-.036-.013-4.988-6.7-5.508-7.249-.675-.713-1.199-1.056-1.259-1.695-.102-1.1.052-7.367.11-8.435.2-3.67.123-7.83.113-11.536-.005-1.906.065-3.875.067-5.729.002-1.822-.096-1.565.017-3.35.265.113 2.393 2.744 2.698 3.116 1.14 1.393 1.261 2.045 2.187 3.26l1.224 1.632c.809.946.489.949.454 2.377-.076 3.17.032 6.079.095 9.269.035 1.796.05 3.947-.021 5.732-.144 3.61-.03 8.862-.177 12.608zm19.01-62.904c.173 1.812.241 11.775-.044 13.105-.688.084-2.205.158-2.858.023l-.254-11.776c1.336-.55 2.304-.995 3.156-1.352zm-9.8-24.437c.954-.507 1.587.852 1.83 1.469.336.858.434 1.88.48 2.9.055 1.188-.018 6.035-1.377 6.412-2.022.56-2.295-3.926-2.382-5.52-.08-1.495.143-4.568 1.449-5.261zm3.235 10.82c-.193.019-.384.049-.551.067.142-.263.793-2.03 1.018-4.221.147-1.437-.076-3.069-.314-4.403h.57c1.105 2.658.32 7.381-.723 8.557zM42.46 44.834c1.132.57 4.405 1.843 6.46 2.393 6.162 1.65 14.126 1.937 20.487 2.194 1.755.07 1.017-.356 2.668 1.343 1.912 1.969 4.145 5.045 5.837 7.243-.776.926-8.484 5.819-9.919 6.594-.847.458-.63.412-.923.985-.167.326-.223.103-.108.342.405.19 1.19-.374 1.815-.766 1.468-.922 8.103-5.099 8.602-5.055.098.634.31.336.305.965-.005.652.112 1.095.126 1.779.06 2.863.266 5.08.227 7.76-.01.727.103 1.1.108 1.776.019 2.336.15 4.833.185 7.216l-.09 9.937c-.93-.035-10.183 6.79-11.786 7.166-.14-1.478-.384-9.665-.378-11.72.011-3.835.06-7.808-.064-11.646-.039-1.2-.189-2.596.069-3.619.31-1.232 2.231-2.082 3.195-2.66l4.11-2.893c.68-.366 1.277-.856 1.898-1.229-.363-.209-7.989 4.25-9.106 4.893-.62.356-.43.058-.743.838-.337.84.024 3.679.065 4.92.064 1.971.019 3.882.075 5.83.055 1.924.352 17.164.07 17.665-.335.284-.584.475-.99.52-.19-5.734-.315-11.02-.422-16.71-.027-1.452-.496-11.297-.136-12.182.901-2.214 1.893-1.573 2.064-2.407-.302-.008-.005-.405-.211-.397-.661.024-1.493.528-2.214.711-.417.106-.433.02-.717.075-.998.193-2.312.308-3.7.263L47.9 68.012c-4.734.264-9.208.514-13.937 1.029-3.509-.342-9.386-1.983-13.136-2.715-.833-.163-2.199-.398-2.21.716.405.285 9.834 2.335 13.595 3.284.783.198.942.24.982.926.14 2.464-.154 11.85-.118 13.293.11 4.404.027 11.906-.218 16.034-5.445-1.423-10.843-2.323-16.411-3.628-1.677-.393-3.417-.737-5.044-1.076l.13-7.533c.141-2.08.033-4.439.07-6.564l.159-9.684c0-.556-.002-1.127.032-1.681.027-.452.144-1.175-.28-1.345-.406.995-.45 10.659-.515 12.612-.074 2.153-.134 4.26-.198 6.423l-.228 7.504-.94-.238.105-8.522c.093-1.318.054-2.33-.008-3.67-.09-1.972.197-6.079.064-7.511-.146-1.578-.113-9.635.208-9.997.105-.118.472-.05.883.002 1.455.183 3.307.482 4.741.74.718.13 1.61.554 1.695-.353-.167-.294-4.152-1.322-4.622-1.42-.482-.1-2.785-.474-3.14-.648-.465-.227-1.831-1.192-2.329-1.82-.834-1.238-5.36-6.934-5.373-7.038 4.117-2.911 9.932-5.937 14.342-8.494l26.262-1.804zM96.2 25.27c1.245-.048 1.326.274 2.569.977.481.272.579.098.614.585-.533.337-1.881-.584-2.556-.936-.49-.256-.342-.227-.626-.626zm-24.127-8.465c.77.065 1.633-.272 2.418-.025l.007 8.707-1.76.097c-.303-.396.005-.32-.66-.77-.336-.228-.505-.284-.875-.496-.054-1.159-.141-1.313.241-2.036.4-.758.21-1.186-.157-1.822-.311-.537-.196-3.236-.105-3.37.18-.262.29-.1.72-.208.336-.086.034.057.17-.077zM61.856 10.09c.251-.007 1.837-.15 2.031.057l.145 5.436c-2.404.554-4.969.882-7.315 1.662-.13.044-.186.068-.315.115-.13.047-.166-.84-.454-.798-.09.013-.206 1.013-.302 1.054-5.587 2.372-31.511 14.211-31.596 14.201-.017-1.793-.436-10.635-.193-11.805.347-.2 3.234-.968 3.898-1.163 1.302-.383 2.577-.775 3.884-1.16 2.62-.77 5.353-1.338 7.905-2.23 1.183-.415 2.676-.763 3.937-1.12l7.837-2.29c.711-.198 3.467-1.17 3.95-.93l.395 3.039c.425-.196.341-.089.33-.66-.011-.673-.109-2.39.214-2.705.355-.279 4.8-.512 5.65-.704zm4.819 5.465l-1.566-.004c-.14-3.669-.416-7.367-.206-11.01.037-.637.307-2.704.977-2.24.537.372.218 3.352.23 3.975.011.68-.011 1.347.03 2.028.07 1.193-.361.845-.346 1.53 1.496.079 8.118 1.274 9.263 1.033 1.284-.272.762-5.078.828-6.366.135.149.55 1.275.638 1.527.108.307-.037 7.522-.031 7.928-1.201-.193-4.156-1.992-5.21-2.243-.497-.474-2.855.697.208 2.621.982.617 1 .359 1.095.836-.399.205-5.3.336-5.91.385zm3.017 1.532l.54-.015c.152.858.288 2.619-.07 3.25-.578 1.017-.738 1.814.246 2.578l.04 1.451c-.95.5-1.085-.228-1.528 1.043l-1.812.056c-.125-1.18.068-2.942.1-4.153l.014-3.263c.023-.438.084-.482.328-.733l2.142-.214zm-3.377-.404c-.03 1.86.082 3.72.03 5.602-.015.518-.198 4.98.23 5.45.47-.328.351-.76.462-1.329.418-.224 1.462-.31 1.795-.213.504.146-.008.08.427.331.674-.18.345-.22.597-.748l.772.153c.205 1.561-.274.485-.383 1.396 1.058.927 2.376-.765 2.379-.766.427-.011 1.001.001 1.325.174.284.341-.614 1.377 2.169 1.284 2.278-.077 1.731-.612 2.385-1.176l1.29.136c1.08.35 2.059.491 2.508 1.435-.324.944-1.275 1.44-2.425 1.765-4.96 1.404-5.792 1.314-11.133 1.645-3.175.196-8.063-.647-10.77-1.867-.97-.439-2.12-.758-2.657-1.642.207-.65 1.154-.919 1.79-1.033.772-.139 1.527-.495 2.298-.438-.34.385-.749-.12-.745.974.001.575-.078 1.076.521 1.142.475-.514.072-.283.34-.844 1.319-.03.583 1.176.538 1.346.59.223.287.425 1.242.34 2.036-.18.999-2.104.964-2.144-.324-.371-.811-.64-.996-1.06.531-.141 2.516-.39 3.125-.37l-.065 1.841c-.562.117-.754.064-.818.758-.027.288.054 1.163.183 1.365.603.942 4.353.684 4.663-.508.3-1.155-.358-1.706-1.175-1.739.436.583-1.092 1.545-2.225.729.115-1.034.192-12.08.26-12.27l1.06-.074.04.355zM54.45 28.514c.414.78-.06.685.785 1.392.484.406.785.551 1.487.791 1.234.421 2.196.805 3.505 1.045 2.585.475 5.652.917 8.436.735 3.995-.261 4.05-.083 8.15-.876 2.32-.45 3.321-.714 5.087-1.784.83-.504.64-.35 1.174-1.126 1 .118 8.51 4.138 10.269 5.032.864.439 1.307.86.507 1.648-.625.615-.795.819-1.803 1.272-2.057.925-3.6 1.206-5.772 1.77-.468.12-.95.092-1.42.168-1.821.297-3.372.666-5.044 1.118-.557.15-.826.04-1.411.07-.834.044-2.812.474-4.18.458-.9-.01-2.166-.008-3.056.055-.782.056-2.167-.105-2.823.256.1.133-.078.207.747.293 1.406.146 1.52.08 2.855.123 1.25.04 2.726.023 3.978-.028.816-.034.952-.242 1.683-.25.733-.008 1.16-.013 1.79-.218.848-.277 7.72-.481 13.167-2.907.471-.21 1.463-.779 1.844-1.133.413-.384.174-.331.638-.53l-.064 6.56c-.05 1.24-5.372 3.22-6.438 3.266-.538-.604-1.678-5.057-2.534-4.609-.376.197-.193 1.417-.231 2.234-.014.295-.119.834.223.958.361.131.416-.346.423-.365l.131-.341c.235.237.451.837.57 1.155.156.419.37.847.407 1.258-1.149.63-11.075 2.238-12.538 1.917l-.77-4.669c-.105-.453.025-.368-.291-.53-.502.478.06 3.553-.106 5.258-.876.367-5.436.262-6.686.217-2.113-.074-4.888-.168-6.893-.451-.12-.643-.028-2.1-.017-2.829.014-.852.214-2.453-.61-2.316-.463.077-.91 1.833-1.018 2.294-.225.963-.588 1.702-.807 2.543-2.044-.148-8.364-.972-9.65-1.841-.083-.648-.014-1.519.022-2.201.036-.68.35-1.777-.158-2.225-.529-.236-1.312 1.438-1.459 1.781-.277.65-.927 1.651-1.341 1.998-.936-.163-3.013-1.544-3.126-1.768-.155-2.037-.084-5.395-.03-7.46.36.126.128.083.41.364.803.8 2.903 1.652 3.919 2.021.878.32 1.75.458 2.64.756 2.348.786 6.233 1.215 8.721 1.49 1.038.114 5.873.396 6.442.018-.258-.57-.897-.355-2.279-.436-4.437-.26-16.29-2.308-18.582-4.508-2.064-1.98-1.257-1.381 3.07-3.364l8.057-3.549zm9.845-10.784l.097 7.713c-.794.143-2.244.34-3.066.28-.406-1.531.472-1.412.417-2.447-.064-1.206-.48.08-.486-2.472 0-.453-.02-.941-.001-1.39.027-.702.071-.733.645-.89.473-.131 2.093-.775 2.394-.794zm-3.827 6.83l.02 1.334c-1.846.563-3.767.895-5.57 1.599-.57.222-1.065.462-1.68.706-1.087.43-2.195.9-3.369 1.395-1.044.44-2.361.878-3.396 1.357-.64.296-4.457 1.837-4.88 2.274-.342.356-.29 1.397-.332 2.006-.173 2.492.12 1.473-.533 4.238-.179.757-.288 1.156-.554 1.838-.165.42-.586 1.322-.622 1.732.555.361 1.22.283 1.48-.036.131.202.075.195.277.442.191.234.27.256.334.583-.444.219-12.037.709-12.458.521-.106-1.272-.335-12.5-.21-13.107C38 27.66 47.761 23.258 56.572 20.347c.526-.275 3.444-1.33 3.913-1.307.064.652-.002 1.131-.003 1.766-.004 1.292-.014.572-.435 1.319-.44.784-.508 1.832.422 2.434zM26.262 11.161l-.073-1.364 2.79-.061c.068.35.072 6.403-.032 6.822a25.22 25.22 0 01-2.779.152c.056-.228.009-1.322.04-1.855.433 0 1.13-.171 1.208-.519.065-.289.16-2.686.036-2.873-.238-.362-.655-.405-1.19-.302zm6.56-1.323l21.371.186c-2.102 1.05-19.928 5.577-21.436 5.758.267-.711.688-3.35.065-5.944zm-15.5 44.96c.236 1.343 2.783 2.106 3.434 2.066-.14-.36-1.81-1.015-1.862-1.387-.11-.755 1.124-1.214 1.763-1.471 3.045-1.228 4.193-1.591 7.824-2.098 4.352-.608 8.1-.764 12.654-.63 2.005.06 4.123.361 6.061.416 1.583.045 4.551.315 6.065.621.913.184 1.895.24 2.84.448.946.208 1.846.39 2.767.61 1.032.246 1.679.352 2.432.841.656.427 1.637.486 1.481 1.848-.348.206-.837.477-1.373.485-.366-.714.255-.328-1.125-1.03-3.457-1.756-8.826-2.49-12.686-2.657-2.855-.124-5.706-.404-8.552-.302-1.356.049-2.98-.055-4.277.056-.706.06-1.184.292-1.885.333-.661.039-1.43.026-1.741.468.74.641 2.744.334 3.928.394 1.354.068 3.005.033 4.29.186 2.69.32 5.144.664 7.797 1.064-1.815.1-8.864-.637-9.857-.063l.023.4c.344.141.464.07.827.097.77.058.684.208 2.487.25l2.395.206c.28.053.488.071.713.24-1.022.043-3.708-.067-3.993.463-.085.158.083.467.023.747-.067.31-.034-.206-.081.215.426.375 1.328.367 1.932.374.878.012 5.903.518 6.348.764-5.83.997-19.04-.383-22.062-.806l-2.28-.431c-.319.035-.843.31-1.185.34 1.852.989 9.393 1.74 11.947 1.97 7.114.639 15.136.553 22.237-.785 2.055-.387 1.562-.517 2.604-.77 1.421-.346 3.985-1.007 4.994-1.752.674-.497 1.468-1.409.663-2.121-.35-.309-.146.054-1.005-.679-.339-.288-.606-.478-1.046-.635-.847-.299-1.813-.48-2.649-.716a37.526 37.526 0 00-2.76-.635c-.963-.192-1.844-.378-2.835-.533-8.212-1.282-12.892-1.364-21.23-.927-2.868.151-5.86.53-9.233 1.146-1.956.356-3.298 1.03-4.94 1.834-1.165.572-1.153.564-1.873 1.546zM34.938 70.7c4.584-.313 8.71-.817 13.307-1.182 2.186-.174 3.78-.526 5.916-.599 2.272-.078 6.073-.672 8.314-.747-.01.51.047.878.08 1.347.031.457-.031.836-.011 1.287.073 1.633.603 26.695.33 27.485-.483.104-2.921.381-3.44.514-.502.128-1.062.145-1.599.187-3.416.265-5.3.387-8.935.722-2.162.2-4.369.25-6.525.494-1.04.117-5.579.574-6.344.528-.1-1.23-.13-3.148-.056-4.378.089-1.468.122-2.938.188-4.406.267-5.86.285-11.854.496-17.685.028-.765-.039-1.056-.026-1.819.02-1.181 3.138-.677 4.608-1.514-.908-.362-2.775.07-3.545.074-.64.003-1.31.241-1.723 1.3-.093.717-.053 1.133-.1 2.354-.073 1.872-.149 9.907-.255 16.06-.027 1.57-.24 8.163-.199 10.095l-.548-.011c-.21-1.182.121-9.61.032-12.002-.147-3.94.013-8.178.015-12.155l.02-5.95z" fill="#22A3DA"/></svg>