<svg width="120" height="73" fill="none" xmlns="http://www.w3.org/2000/svg"><path fill-rule="evenodd" clip-rule="evenodd" d="M57.282 68.105c3.703 3.427 11.94 3.204 15.419.332l-.026 1.037c-2.754 2.872-12.68 2.758-15.36-.158l-.033-1.211zm41.299-13.862l.014 2.787c-.1.317-13.403 7.688-16.044 9.122l-.855-.352-1.5.815-6.947-3.004-.005 2.002-.235.677c.248.459.24.795.242 1.152l-.005 1.858c0 .344.028.446-.214.707-2.957 3.193-12.632 2.99-15.9.126-.416-.365-.367-.442-.372-.97l-.022-2.105c-.002-.14.13-.802.272-.886l-.267-.692.002-.472-10.347 4.672c-.407.184-1.14.017-1.491-.437-.584-.753-.63-2.549.3-3.007l16.74-7.611-3.27-1.43c-.3-1.73-1.748-2.71-1.747-3.037l.012-2.84 17.305-7.285 24.334 10.21zm-17.453-6.439L65.893 54.72l2.253.982 15.181-6.887-2.199-1.01zM60.082 62.77c-.06-.881 3.238-1.63 5.007-1.113.898.318.988 1.945.953 2.728-3.119.248-5.886-.535-5.96-1.615zm-.871.154c.174 1.898 4.169 2.147 5.638 2.182 1.144.026 5.63-.655 5.32-2.32-.558-2.98-11.2-2.502-10.958.138zm13.11 4.474c-2.272 3.72-13.4 3.023-14.466-.087 3.6 3.113 11.503 2.486 14.466.087zm-36.438-1.79c1.359-.163 1.927 3.6.2 3.7-.83.048-1.288-1.345-1.194-2.27.08-.772.462-1.366.994-1.43zm.23 3.058c.256-.014.42-.27.5-.613-.467-.217-.803-.803-.803-1.493 0-.105.008-.208.023-.307-.758.365-.654 2.461.28 2.413zM57.53 64.35c3.219 2.681 9.933 3.49 15.013.191l-.027 1.094c-.948 1.44-4.406 2.6-7.514 2.586-3.589-.016-6.624-1.434-7.429-2.576-.063-.089-.077-1.024-.043-1.295zm23.112-2.1l1.318.497.023 1.93c-.456-.021-.887-.006-1.323.594l-.018-3.021zm-23.166.625c-.375-2.445 5.103-3.252 7.06-3.254 2.013-.003 6.969.646 7.702 3.002.871 2.798-5.94 3.607-7.614 3.588-1.862-.021-6.786-.98-7.148-3.336zM47.1 68.76c.1-.91-.046-1.87-.634-2.313l10.98-5.108c-.84.947-.707 1.36-.707 3.077L47.1 68.76zm-9.485-1.255c-.06-1.003-.36-1.73-1.137-2.196l17.487-7.484c1.174-.502 1.633.911 1.624 1.696l-17.974 7.984zm34.556-8.993l1.735.782c-.445.555-.449 2.02.586 2.377.76.262 1.261-.449.911-1.798l1.644.805c-.37.971-.245 2.274.92 2.559.72.176 1.24-.677.888-1.739l.99.39v3.67l-6.617-2.768c-.662-2.949-5.854-3.538-8.215-3.789l-5.484-2.346-.063-3.696 1.536.702c-.308.706-.631 1.976.655 2.403 1.032.342 1.07-1.02.924-1.733l1.812.81c-.42.566-.6 2.069.686 2.364 1.053.243 1.001-.973.818-1.715l1.387.657c-.308.552-.525 1.953.61 2.336 1.18.398 1.142-.86.942-1.738l1.829.812c-.477 1.043-.425 2.118.685 2.39.794.194 1.114-.991.82-1.735zM24.12 71.055c.04-.304-.12-1.451-.463-1.812l32.293-13.94c.314-.008.505.41.478 1.1-.02.482-.346.459-.776.616-.754.276-.457.086-1.174.03-.72.084-18.947 7.952-19.175 8.18-.334.22-.685.782-.76 1.226l-10.423 4.6zm58.693-6.19l.01-1.7 14.896-8.357.038 1.706-14.944 8.35zm.256-2.64l-3.82-1.682 14.295-7.4 3.228 1.305-13.703 7.777zm-24.225-7.003c-.342-.973-.7-1.175-1.089-1.497l-.02-1.511 1.07.458.039 2.55zm16.593 3.702c5.05-2.474 9.83-4.721 14.878-7.188l2.034.874-14.529 7.35-2.383-1.036zm-3.294-1.456l14.79-7.078c.107-.012 1.863.724 2.103.818l-14.716 7.19-2.177-.93zm-3.029-1.349l15.225-6.866 1.523.63-14.714 7.112-2.034-.876zm10.668-8.713l-15.1 6.715-2.147-.88 15.143-6.8 2.104.965zm-5.852-2.544l2.654 1.118-15.166 6.77-2.718-1.217a496.215 496.215 0 0115.23-6.671zM56 60.913c.667-1.585.176-2.239-.02-2.79 1.892-.713 1.6-3.37.002-3.64-.451-.077-31.16 13.266-33.786 14.407-1.327.576-.954 3.79.636 3.942a.763.763 0 00.282-.028l11.367-4.951c.25 1.835 1.494 2.189 2.484 1.671L56 60.914zm-4.919-30.639c2.17 1.818 7.1 1.486 8.734 1.255-.05 5.182-.026 9.648-.472 14.81-.065.753.174.626-1.757.8-1.35.123-3.451-.022-4.72-.44-2.205-.728-1.798-1.187-1.823-3.34-.05-4.439-.22-8.634.038-13.085zm6.836-3.698l-.072-.004.075.007c.226.36 2.105 2.022 1.637 3.14-.86.23-1.924.374-3.016.391-.95.015-4.483-.324-4.38-1.783.074-1.035 2.091-1.693 4.33-1.745-1.216-.168-5.553.133-5.039 2.316.685 1.53 4.09 1.664 5.04 1.664 2.614.002 5.654-.622 5.537-2.114-.11-1.401-2.9-1.805-4.108-1.872h-.004zm2.215-.255c3.418 1.027 3.477 3.24.085 4.274-2.142.653-7.593.701-9.124-1.138-.4-.48-.365-1.141-.185-1.556.854-1.972 7.488-2.102 9.224-1.58zm1.984 4.105l.243-.103c.079.334.072 5.902.055 6.667-.03 1.461.048 5.548-.094 6.645l-.204-13.209zM50.14 41.716c-1.94.188-3.03-.31-3.775-.755-.692-.413-.547-.827-.603-2.183l.028-33.606c3.618 2.008 7.401 1.968 10.223 1.45.079 2.636 1.263 17.156.743 18.859-1.288.005-5.474.303-6.401 2.245-.347.734-.166 1.745-.181 2.662-.02 1.246.07 11.139-.034 11.327zm8.657-36.038c.206-.147.233-.223.4-.345l-.253 20.297-.287-.069.14-19.883zm-6.56-4.453c1.193-.083 7.814.496 6.36 2.803-1.672 2.652-12.192 2.11-12.088-.515.07-1.793 4.53-2.205 5.728-2.288zm-2.13 41.714c.24.748.045 1.759.064 2.6.058 2.532 6.245 3.226 8.191 2.847 1.598-.312 2.933-.52 4.258-1.352.733-.461.603-1.162.558-2.13l.186-16.717c-.216-1.25-1.882-2.055-2.965-2.285-.089-3.646-.071-7.126-.041-10.815.023-2.945.237-8.756.044-11.432-.379-2.234-2.61-2.839-4.695-3.253C54.8.222 54.018.198 53.052.17c-3.129-.087-8.31.933-8.102 4.333l-.034 35.128c-.008.839-.102 1.206.71 2.02.888.887 3.184 1.23 4.48 1.288zm-16.263 4.045c1.819 1.018 3.262 1.302 5.47 1.354 1.748.041 4.792-.407 5.695-1.458.038.596.12 1.439-.057 1.595-1.756 1.545-7.632 2.339-11.046-.104-.075-.054-.057-1.226-.062-1.387zm8.07-7.76v5.96c.153-.102.263-.215.316-.34.028-.945-.005-5.783-.01-5.794-.091.062-.194.12-.306.174zm-1.086 6.36l-.428-5.95c-1.287.165-2.823.002-3.774-.669l-.017 5.611c.308 1.132 2.647 1.338 4.219 1.007zm-.017-7.525c.127-.84-2.7-.986-2.73-.04-.026.807 2.606.86 2.73.04zm-4.958 5.727c-.013.314-.105 1.2.166 1.588 1.148 1.647 5.65 1.5 6.876.073.435-.506.194-1.16.254-1.442.893.172 1.915.822 1.851 1.437-.104.998-2.062 1.67-3.35 1.912-3.277.614-7.718-.483-7.8-1.991-.043-.755 1.37-1.536 2.003-1.577zm-18.172 3.899l-.006-1.655.72-1.26c4.375 3.693 6.347-5.123 6.123-7.744l2.013-.845-.061 10.21-8.79 1.294zm-7.253-5.744l6.294 3.846.007 1.555-6.012-3.57-.29-1.83zm31.604-3.911c-.055 1.222-4.603 1.462-5.143.2-.656-1.53 5.205-1.602 5.143-.2zm-23.7 5.598c1.632-1.306 3.208-4.377 2.64-7.958l2.737 1.333c.509 2.871-2.013 11.069-5.378 6.625zm-2.014-1.675l4.029-6.119c.537 2.943-1.165 6.019-2.565 6.95l-1.464-.831zm-2.988-1.62l-.75-.43c1.377-.182 2.781-3.626 2.316-7.459l2.8 1.288-4.366 6.6zm12.175-5.853l13.324-4.078.007 6.005c-.856.13-2.996.498-2.987 1.656l.023 2.787-8.358 2.727v-8.22l-2.01-.877zm-10.823-2.676l1.885-.582 2.597 1.19 14.49-4.4 4.321 1.852-14.314 4.512 2.744 1.144-2.082.966-3.996-1.896-5.05 7.733 2.643 1.51-.744 1.315-6.79-4.012.762-1.172 2.299 1.375 5.094-7.727-3.859-1.809zm-.6-.222c.638 2.709-.156 7.919-2.472 8.044l-.541-.281-1.214 1.92.501 2.957 6.992 4.392 10.188-1.338-.019-2.796 8.357-2.778c.014.236.006 1.185-.003 1.379-1.359.326-2.7 1.201-2.692 2.171l.028 3.459c2.745 2.963 11.134 2.56 12.53.04l.034-3.715c-.503-1.405-2.165-1.782-2.701-1.948l-.01-5.22c-.146-1.074-2.651-1.451-3.52-1.466l-.008-6.618-5.701-2.43-14.757 4.382-2.364-.968-2.629.814zm51.595-13.425c.838.652 2.176.8 2.68.734.744 8.582.15 16.854.316 25.366-.176.257-2.9.085-2.899-.44-.013-2.437-.251-25.344-.097-25.66zm1.179-.823c.203.633 2.482.8 2.818-.106.402-1.08-3.168-.988-2.818.106zm3.307 18.622l-.42-17.329.495-.216-.075 17.545zm.221-18.807c-.12 1.301-3.52 1.305-4.244.34-1.17-1.561 4.274-1.847 4.244-.34zm-5.422 27.204c1.49 1.523 5.03 1.113 6.176-.114l.046-27.38c-.795-1.726-6.058-1.87-6.245.33l.023 27.164zM17.045 60.35c-1.65-.036-5.14-.229-6.305-1.223l.001-1.84c3.842 2.229 9.566 1.626 12.257-.08l.015 1.614c-1.2 1.14-4.413 1.561-5.968 1.529zm-2.023-7.534c.07.793 3.886.805 3.895.043.006-.585-1.43-.623-2.004-.619-.901.006-1.93.125-1.89.576zm-4.041 3.438c-.22-.507.896-1.02 1.328-1.058l.004.727c1.036.87 3.322 1.107 4.622 1.126 1.686.024 4.388-.59 4.541-1.189.04-.157.038-.399.049-.72.69.179 1.817.81.882 1.653-1.978 1.782-10.48 1.634-11.426-.54zm2.106-.597l-.007-1.546c2.442 1.342 6.855.635 7.6.113l-.033 1.548c-1.8 1.048-5.825 1.02-7.56-.115zm-.083-2.813c-.06-1.674 7.81-1.552 7.687.035-.131 1.715-7.63 1.546-7.687-.035zm-.712 1.708c-1.009.137-2.333.775-2.307 1.833l.085 3.502c.73.62 1.431.815 2.257.961-.22 1.395 2.446 1.723 4.157 1.77 2.501.069 5.161-.526 4.923-1.806 1.523-.443 2.095-.95 2.342-1.326l-.042-3.288c-.255-1.569-1.637-1.586-2.224-1.842l.009-1.833c-.383-1.945-7.012-1.824-8.646-.694-.4.276-.474.541-.555.824l.001 1.899zm81.024-21.029l.018 4.524-5.685-2.15 5.667-2.374zm.325-2.475l19.131 6.947-10.827 5.145-19.054-7.29 10.75-4.802zm9.012 16.02c.564-.423 1.38-.754 2.062-1.117 3.417-1.816 6.969-3.558 10.436-5.292.282-.135 4.205-2.049 4.219-2.042l-.027 3.945c-1.689 1.08-3.456 1.836-5.148 2.842l-4.192 2.192c-.937.457-6.821 3.696-7.272 3.753-.099-.268-.132-3.828-.078-4.28zm-27.435-6.291l.157-3.661c.099-.046.29.093.685.253l7.175 2.806c2.395.884 4.688 1.96 7.105 2.797 1.746.605 3.81 1.56 5.4 2.119l5.756 2.275.028 4.03c-.488.013-11.687-4.65-13.47-5.361l-12.836-5.258zm.752-4.397c.192-.243 2.157-1.018 2.55-1.174l14.862-6.552c.252-.024.582.144.776.211 3.788 1.305 7.369 2.66 11.053 3.942.87.302 1.865.64 2.71.982.905.366 1.886.615 2.79.985l8.2 3.144-16.495 8.331c-.371.159-.405.082-.789-.047l-3.477-1.291a334.252 334.252 0 00-5.545-2.133c-1.503-.56-4.254-1.522-5.594-2.09-2.525-1.07-5.706-2.168-8.304-3.207-.912-.364-1.851-.732-2.737-1.101zm-1.49-.042l-.074 4.845 27.699 11.282 17.818-9.313.077-5.269c-.15-.58-.64-.738-1.631-1.102l-12.887-4.644c-1.097-.38-2.138-.759-3.234-1.15l-8.143-2.86c-.413-.211-1.093-.002-1.493.196-4.638 2.304-10.236 4.527-15.094 6.652-1.033.462-2.17.891-3.038 1.363zm7.145.51l20.302 7.948 11.953-5.866.054-1.089-20.305-7.528-11.936 5.342-.068 1.194zm12.183-3.278l13.165 5.016-5.38 2.644-7.762-3.06-.023-4.6zm-7.434 2.365l15.217 5.868 6.803-3.397-14.878-5.685-7.142 3.215zM29.915 62.733l21.948-9.174c.196.012.38.27.452.484l-22.125 9.39c-.045-.4-.12-.417-.275-.7zM51.372 53.2l-22.437 9.23c-.97.489-.633 2.638.532 2.543 1.909-.155 18.651-7.94 22.605-9.401 1.412-.521.717-2.877-.7-2.372z" fill="#22A3DA"/><path fill-rule="evenodd" clip-rule="evenodd" d="M27.72 54.41c2.67 1.643 6.79.842 7.755.349l.045 1.974c-1.426.976-5.549 1.33-7.807-.32-.001-.003-.006-1.957.006-2.003zm2.39-1.538c.043 1.105 4.47.936 4.14-.097-.315-.983-4.18-.901-4.14.097zm.516-1.54c1.686-.267 3.815-.15 5.071.627.28.173.61.38.651.826.123 1.328-3.26 1.643-4.179 1.651-2.045.017-4.327-.452-4.282-1.44.017-.382.348-.7.615-.864a5.791 5.791 0 012.124-.8zm-3.7 5.452c.912 1.034 2.483 1.442 3.821 1.604 1.412.17 6.271-.197 6.574-2.039l-.094-3.592c-.142-.655-.362-.989-.976-1.282-.312-.149-.461-.285-.757-.41-.557-.236-1.172-.37-1.812-.516-1.913-.437-6.511.072-6.788 2.176l.031 4.059zM1.572 53.437l.017-2.942c1.236.756 3.416.888 4.79.743l.051 3.025c-2.447.418-4.425-.25-4.858-.826zm2.373-4.18c.015.81 2.4.683 2.41 0 .012-.758-2.425-.783-2.41 0zm4.168 1.599l-.033 2.931c.316-.155.476-.288.714-.625l-.024-2.786c-.295.294-.441.38-.657.48zm.145-1.677c.382 1.74-6.591 1.66-6.36-.069.19-1.423 5.962-1.749 6.36.069zm-7.447.258l.005 4.267c1.468 2.173 7.914 1.56 8.453.038.032-.09-.024-4.078-.01-4.479-.277-2.273-7.647-2.595-8.448.174z" fill="#22A3DA"/></svg>