<svg width="23" height="23" fill="none" xmlns="http://www.w3.org/2000/svg"><path d="M11.296.518a10.84 10.84 0 00-6.515 2.36A11.22 11.22 0 003.41 4.175 10.853 10.853 0 00.694 12.28a10.885 10.885 0 001.367 4.475l.05.088-.77 2.817a990.32 990.32 0 00-.77 2.82c0 .002 1.298-.337 2.885-.753 2.08-.546 2.885-.755 2.893-.751a10.921 10.921 0 001.843.792c1.382.445 2.83.61 4.278.489a10.832 10.832 0 006.302-2.713 10.857 10.857 0 003.632-7.346c.02-.294.024-.405.024-.797a10.774 10.774 0 00-1.436-5.42 11.02 11.02 0 00-2.66-3.095A10.803 10.803 0 0011.296.518zm.57 1.839a8.986 8.986 0 013.085.656 9.093 9.093 0 013.675 2.753 8.965 8.965 0 011.966 5.737 7.068 7.068 0 01-.025.641 9.06 9.06 0 01-3.723 6.596 9.018 9.018 0 01-6.04 1.689 9.043 9.043 0 01-3.99-1.302l-.208-.125-1.71.449c-.941.246-1.711.447-1.713.446l.45-1.653c.249-.908.454-1.659.455-1.669.003-.016-.014-.047-.13-.232a9.024 9.024 0 01-1.44-5.6 9.084 9.084 0 016.378-7.995 9.09 9.09 0 012.97-.39z" fill="#22A3DA"/><path d="M6.582 6.005c-.179.02-.358.098-.51.22-.061.05-.226.221-.345.36a2.929 2.929 0 00-.713 1.708c-.02.246-.018.455.008.675.08.648.36 1.355.826 2.079.06.093.136.202.275.397l.15.21c.16.225.402.541.58.756 1.138 1.38 2.421 2.432 3.693 3.025.503.234 1.334.546 1.865.698a3.76 3.76 0 001.574.082c.195-.028.392-.092.632-.204.496-.232.926-.566 1.131-.879.088-.135.166-.348.23-.63.053-.236.07-.373.07-.59 0-.2-.006-.247-.04-.299-.044-.067-.105-.105-.39-.246a54.723 54.723 0 00-1.892-.908 1.151 1.151 0 00-.377-.107c-.123 0-.223.06-.313.19-.156.223-.426.56-.772.964-.136.159-.182.203-.241.235-.124.064-.234.053-.451-.049a8.697 8.697 0 00-.225-.1 6.966 6.966 0 01-1.14-.613 7.184 7.184 0 01-1.812-1.735 8.775 8.775 0 01-.503-.75c-.1-.17-.116-.276-.06-.392A.812.812 0 018 9.89c.12-.125.44-.511.503-.605.055-.084.18-.331.201-.4a.332.332 0 00.013-.122.489.489 0 00-.051-.228c-.085-.186-.19-.439-.528-1.261-.387-.943-.38-.926-.45-1.032-.085-.129-.178-.2-.289-.222a7.81 7.81 0 00-.817-.015z" fill="#22A3DA"/></svg>